<?xml version="1.0" encoding="UTF-8" standalone="no"?><svg xmlns="http://www.w3.org/2000/svg" xmlns:xlink="http://www.w3.org/1999/xlink" height="780" version="1.1" width="1140"><defs/><g><g transform="translate(10,10) scale(1,1)"><path d="M 0 0 L 1120 0 L 1120 760 L 0 760 L 0 0" fill="none" stroke="#000000" stroke-miterlimit="10"/></g><g transform="translate(10,10) scale(1,1)"><path d="M 0 0 L 0 22 L 146.076171875 22 L 157.076171875 11 L 157.076171875 0 L 0 0" fill="#ffffff" stroke="none"/></g><g transform="translate(10,10) scale(1,1)"><path d="M 0 0 L 0 22 L 146.076171875 22 L 157.076171875 11 L 157.076171875 0 L 0 0 L 0 0" fill="none" stroke="#000000" stroke-miterlimit="10"/></g><g transform="translate(10,10) scale(1,1)"><g><path fill="none" stroke="none"/><text fill="#000000" font-family="Arial" font-size="13px" font-style="normal" font-weight="normal" stroke="none" text-decoration="none" x="24.72998046875" y="16">Aggiunta/Rimozione</text></g></g><g transform="translate(10,10) scale(1,1)"><g><path fill="none" stroke="none"/><text fill="#000000" font-family="Arial" font-size="13px" font-style="normal" font-weight="bold" stroke="none" text-decoration="none" x="4.279541015625" y="16">sd</text></g></g><g transform="translate(10,10) scale(1,1)"><rect fill="#C0C0C0" height="39" opacity="0.2" stroke="none" width="99.18994140625" x="15" y="47"/></g><g transform="translate(10,10) scale(1,1)"><rect fill="#ffffff" height="39" stroke="none" width="99.18994140625" x="8" y="40"/></g><g transform="translate(10,10) scale(1,1)"><path d="M 8 40 L 107.18994140625 40 L 107.18994140625 79 L 8 79 L 8 40 Z Z" fill="none" stroke="#000000" stroke-miterlimit="10"/></g><g transform="translate(10,10) scale(1,1)"><g><path fill="none" stroke="none"/><text fill="#000000" font-family="Arial" font-size="13px" font-style="normal" font-weight="bold" stroke="none" text-decoration="none" x="17.5" y="58">User: Cliente</text></g></g><g transform="translate(10,10) scale(1,1)"><path d="M 58.5 80 L 58.5 744" fill="none" stroke="#000000" stroke-dasharray="3" stroke-miterlimit="10"/></g><g transform="translate(10,10) scale(1,1)"><rect fill="#C0C0C0" height="39" opacity="0.2" stroke="none" width="137.46630859375" x="271" y="47"/></g><g transform="translate(10,10) scale(1,1)"><rect fill="#ffffff" height="39" stroke="none" width="137.46630859375" x="264" y="40"/></g><g transform="translate(10,10) scale(1,1)"><path d="M 264 40 L 401.46630859375 40 L 401.46630859375 79 L 264 79 L 264 40 Z Z" fill="none" stroke="#000000" stroke-miterlimit="10"/></g><g transform="translate(10,10) scale(1,1)"><g><path fill="none" stroke="none"/><text fill="#000000" font-family="Arial" font-size="13px" font-style="normal" font-weight="bold" stroke="none" text-decoration="none" x="273.5" y="58">Gui: GUI Principale</text></g></g><g transform="translate(10,10) scale(1,1)"><path d="M 333.5 80 L 333.5 744" fill="none" stroke="#000000" stroke-dasharray="3" stroke-miterlimit="10"/></g><g transform="translate(10,10) scale(1,1)"><rect fill="#C0C0C0" height="39" opacity="0.2" stroke="none" width="116.51904296875" x="551" y="47"/></g><g transform="translate(10,10) scale(1,1)"><rect fill="#ffffff" height="39" stroke="none" width="116.51904296875" x="544" y="40"/></g><g transform="translate(10,10) scale(1,1)"><path d="M 544 40 L 660.51904296875 40 L 660.51904296875 79 L 544 79 L 544 40 Z Z" fill="none" stroke="#000000" stroke-miterlimit="10"/></g><g transform="translate(10,10) scale(1,1)"><g><path fill="none" stroke="none"/><text fill="#000000" font-family="Arial" font-size="13px" font-style="normal" font-weight="bold" stroke="none" text-decoration="none" x="553.5" y="58">Manager Utente</text></g></g><g transform="translate(10,10) scale(1,1)"><path d="M 603.5 80 L 603.5 752" fill="none" stroke="#000000" stroke-dasharray="3" stroke-miterlimit="10"/></g><g transform="translate(10,10) scale(1,1)"><rect fill="#C0C0C0" height="39" opacity="0.2" stroke="none" width="71.736328125" x="839" y="47"/></g><g transform="translate(10,10) scale(1,1)"><rect fill="#ffffff" height="39" stroke="none" width="71.736328125" x="832" y="40"/></g><g transform="translate(10,10) scale(1,1)"><path d="M 832 40 L 903.736328125 40 L 903.736328125 79 L 832 79 L 832 40 Z Z" fill="none" stroke="#000000" stroke-miterlimit="10"/></g><g transform="translate(10,10) scale(1,1)"><g><path fill="none" stroke="none"/><text fill="#000000" font-family="Arial" font-size="13px" font-style="normal" font-weight="bold" stroke="none" text-decoration="none" x="843.302734375" y="58">Carrello</text></g></g><g transform="translate(10,10) scale(1,1)"><path d="M 868.5 80 L 868.5 744" fill="none" stroke="#000000" stroke-dasharray="3" stroke-miterlimit="10"/></g><g transform="translate(10,10) scale(1,1)"><rect fill="#ffffff" height="28" stroke="none" width="13" x="868" y="484"/></g><g transform="translate(10,10) scale(1,1)"><path d="M 868 484 L 881 484 L 881 512 L 868 512 L 868 484 Z Z" fill="none" stroke="#000000" stroke-miterlimit="10"/></g><g transform="translate(10,10) scale(1,1)"><path d="M 58 104 L 326 104" fill="none" stroke="#000000" stroke-miterlimit="10"/></g><g transform="translate(10,10) scale(1,1)"><path d="M 315.83732514237585 108.20951775601598 L 326 104 L 315.83732514237585 99.79048224398402" fill="#000000" stroke="none"/></g><g transform="translate(10,10) scale(1,1)"><path d="M 315.83732514237585 108.20951775601598 L 326 104 L 315.83732514237585 99.79048224398402 L 315.83732514237585 108.20951775601598" fill="none" stroke="#000000" stroke-miterlimit="10"/></g><g transform="translate(10,10) scale(1,1)"><g><path fill="none" stroke="none"/><text fill="#000000" font-family="Arial" font-size="13px" font-style="normal" font-weight="normal" stroke="none" text-decoration="none" x="121.5791015625" y="99">1 : GUI Interact Apertura</text></g></g><g transform="translate(10,10) scale(1,1)"><rect fill="#ffffff" height="584" stroke="none" width="13" x="326" y="104"/></g><g transform="translate(10,10) scale(1,1)"><path d="M 326 104 L 339 104 L 339 688 L 326 688 L 326 104 Z Z" fill="none" stroke="#000000" stroke-miterlimit="10"/></g><g transform="translate(10,10) scale(1,1)"><path d="M 339 112 L 369 112 L 369 132 L 346 132" fill="none" stroke="#000000" stroke-miterlimit="10"/></g><g transform="translate(10,10) scale(1,1)"><path d="M 356.16267485762415 127.79048224398402 L 346 132 L 356.16267485762415 136.209517756016" fill="#000000" stroke="none"/></g><g transform="translate(10,10) scale(1,1)"><path d="M 356.16267485762415 127.79048224398402 L 346 132 L 356.16267485762415 136.209517756016 L 356.16267485762415 127.79048224398402" fill="none" stroke="#000000" stroke-miterlimit="10"/></g><g transform="translate(10,10) scale(1,1)"><g><path fill="none" stroke="none"/><text fill="#000000" font-family="Arial" font-size="13px" font-style="normal" font-weight="normal" stroke="none" text-decoration="none" x="377.486328125" y="126">2 : Apri(Gui)</text></g></g><g transform="translate(10,10) scale(1,1)"><rect fill="#ffffff" height="28" stroke="none" width="13" x="333" y="132"/></g><g transform="translate(10,10) scale(1,1)"><path d="M 333 132 L 346 132 L 346 160 L 333 160 L 333 132 Z Z" fill="none" stroke="#000000" stroke-miterlimit="10"/></g><g transform="translate(10,10) scale(1,1)"><path d="M 339 168 L 369 168 L 369 188 L 346 188" fill="none" stroke="#000000" stroke-miterlimit="10"/></g><g transform="translate(10,10) scale(1,1)"><path d="M 356.16267485762415 183.790482243984 L 346 188 L 356.16267485762415 192.209517756016" fill="#000000" stroke="none"/></g><g transform="translate(10,10) scale(1,1)"><path d="M 356.16267485762415 183.790482243984 L 346 188 L 356.16267485762415 192.209517756016 L 356.16267485762415 183.790482243984" fill="none" stroke="#000000" stroke-miterlimit="10"/></g><g transform="translate(10,10) scale(1,1)"><g><path fill="none" stroke="none"/><text fill="#000000" font-family="Arial" font-size="13px" font-style="normal" font-weight="normal" stroke="none" text-decoration="none" x="374.5" y="179">3 : ShowForClient(Gui)</text></g></g><g transform="translate(10,10) scale(1,1)"><rect fill="#ffffff" height="36" stroke="none" width="13" x="333" y="188"/></g><g transform="translate(10,10) scale(1,1)"><path d="M 333 188 L 346 188 L 346 224 L 333 224 L 333 188 Z Z" fill="none" stroke="#000000" stroke-miterlimit="10"/></g><g transform="translate(10,10) scale(1,1)"><path d="M 58 272 L 333 272" fill="none" stroke="#000000" stroke-miterlimit="10"/></g><g transform="translate(10,10) scale(1,1)"><path d="M 322.83732514237585 276.209517756016 L 333 272 L 322.83732514237585 267.790482243984" fill="#000000" stroke="none"/></g><g transform="translate(10,10) scale(1,1)"><path d="M 322.83732514237585 276.209517756016 L 333 272 L 322.83732514237585 267.790482243984 L 322.83732514237585 276.209517756016" fill="none" stroke="#000000" stroke-miterlimit="10"/></g><g transform="translate(10,10) scale(1,1)"><g><path fill="none" stroke="none"/><text fill="#000000" font-family="Arial" font-size="13px" font-style="normal" font-weight="normal" stroke="none" text-decoration="none" x="123.5" y="267">4 : GUI Interact Aggiunta</text></g></g><g transform="translate(10,10) scale(1,1)"><rect fill="#ffffff" height="28" stroke="none" width="13" x="333" y="272"/></g><g transform="translate(10,10) scale(1,1)"><path d="M 333 272 L 346 272 L 346 300 L 333 300 L 333 272 Z Z" fill="none" stroke="#000000" stroke-miterlimit="10"/></g><g transform="translate(10,10) scale(1,1)"><path d="M 346 288 L 596 288" fill="none" stroke="#000000" stroke-miterlimit="10"/></g><g transform="translate(10,10) scale(1,1)"><path d="M 585.8373251423759 292.209517756016 L 596 288 L 585.8373251423758 283.790482243984" fill="#000000" stroke="none"/></g><g transform="translate(10,10) scale(1,1)"><path d="M 585.8373251423759 292.209517756016 L 596 288 L 585.8373251423758 283.790482243984 L 585.8373251423759 292.209517756016" fill="none" stroke="#000000" stroke-miterlimit="10"/></g><g transform="translate(10,10) scale(1,1)"><g><path fill="none" stroke="none"/><text fill="#000000" font-family="Arial" font-size="13px" font-style="normal" font-weight="normal" stroke="none" text-decoration="none" x="384.5" y="283">5 : AddToCart("chiave scelta")</text></g></g><g transform="translate(10,10) scale(1,1)"><rect fill="#ffffff" height="28" stroke="none" width="13" x="596" y="288"/></g><g transform="translate(10,10) scale(1,1)"><path d="M 596 288 L 609 288 L 609 316 L 596 316 L 596 288 Z Z" fill="none" stroke="#000000" stroke-miterlimit="10"/></g><g transform="translate(10,10) scale(1,1)"><path d="M 609 304 L 861 304" fill="none" stroke="#000000" stroke-miterlimit="10"/></g><g transform="translate(10,10) scale(1,1)"><path d="M 850.8373251423759 308.209517756016 L 861 304 L 850.8373251423758 299.790482243984" fill="#000000" stroke="none"/></g><g transform="translate(10,10) scale(1,1)"><path d="M 850.8373251423759 308.209517756016 L 861 304 L 850.8373251423758 299.790482243984 L 850.8373251423759 308.209517756016" fill="none" stroke="#000000" stroke-miterlimit="10"/></g><g transform="translate(10,10) scale(1,1)"><g><path fill="none" stroke="none"/><text fill="#000000" font-family="Arial" font-size="13px" font-style="normal" font-weight="normal" stroke="none" text-decoration="none" x="615.5" y="299">6 : AggiungiArticolo("chiave scelta", User)</text></g></g><g transform="translate(10,10) scale(1,1)"><rect fill="#ffffff" height="67" stroke="none" width="13" x="861" y="304"/></g><g transform="translate(10,10) scale(1,1)"><path d="M 861 304 L 874 304 L 874 371 L 861 371 L 861 304 Z Z" fill="none" stroke="#000000" stroke-miterlimit="10"/></g><g transform="translate(10,10) scale(1,1)"><path d="M 874 312 L 904 312 L 904 332 L 881 332" fill="none" stroke="#000000" stroke-miterlimit="10"/></g><g transform="translate(10,10) scale(1,1)"><path d="M 891.1626748576241 327.790482243984 L 881 332 L 891.1626748576241 336.209517756016" fill="#000000" stroke="none"/></g><g transform="translate(10,10) scale(1,1)"><path d="M 891.1626748576241 327.790482243984 L 881 332 L 891.1626748576241 336.209517756016 L 891.1626748576241 327.790482243984" fill="none" stroke="#000000" stroke-miterlimit="10"/></g><g transform="translate(10,10) scale(1,1)"><g><path fill="none" stroke="none"/><text fill="#000000" font-family="Arial" font-size="13px" font-style="normal" font-weight="normal" stroke="none" text-decoration="none" x="910.5" y="326">7 : Add("chiave scelta")</text></g></g><g transform="translate(10,10) scale(1,1)"><rect fill="#ffffff" height="28" stroke="none" width="13" x="868" y="332"/></g><g transform="translate(10,10) scale(1,1)"><path d="M 868 332 L 881 332 L 881 360 L 868 360 L 868 332 Z Z" fill="none" stroke="#000000" stroke-miterlimit="10"/></g><g transform="translate(10,10) scale(1,1)"><path d="M 861 368 L 58 368" fill="none" stroke="#000000" stroke-dasharray="3" stroke-miterlimit="10"/></g><g transform="translate(10,10) scale(1,1)"><path d="M 68.16267485762415 363.790482243984 L 58 368 L 68.16267485762415 372.209517756016" fill="none" stroke="#000000" stroke-miterlimit="10"/></g><g transform="translate(10,10) scale(1,1)"><g><path fill="none" stroke="none"/><text fill="#000000" font-family="Arial" font-size="13px" font-style="normal" font-weight="normal" stroke="none" text-decoration="none" x="401.594970703125" y="383">8 : UpdateGUI(Gui)</text></g></g><g transform="translate(10,10) scale(1,1)"><path d="M 58 416 L 333 416" fill="none" stroke="#000000" stroke-miterlimit="10"/></g><g transform="translate(10,10) scale(1,1)"><path d="M 322.83732514237585 420.209517756016 L 333 416 L 322.83732514237585 411.790482243984" fill="#000000" stroke="none"/></g><g transform="translate(10,10) scale(1,1)"><path d="M 322.83732514237585 420.209517756016 L 333 416 L 322.83732514237585 411.790482243984 L 322.83732514237585 420.209517756016" fill="none" stroke="#000000" stroke-miterlimit="10"/></g><g transform="translate(10,10) scale(1,1)"><g><path fill="none" stroke="none"/><text fill="#000000" font-family="Arial" font-size="13px" font-style="normal" font-weight="normal" stroke="none" text-decoration="none" x="111.1708984375" y="410">9 : Gui Interact Rimozione</text></g></g><g transform="translate(10,10) scale(1,1)"><rect fill="#ffffff" height="50" stroke="none" width="13" x="333" y="416"/></g><g transform="translate(10,10) scale(1,1)"><path d="M 333 416 L 346 416 L 346 466 L 333 466 L 333 416 Z Z" fill="none" stroke="#000000" stroke-miterlimit="10"/></g><g transform="translate(10,10) scale(1,1)"><path d="M 346 433 L 596 433" fill="none" stroke="#000000" stroke-miterlimit="10"/></g><g transform="translate(10,10) scale(1,1)"><path d="M 585.8373251423759 437.209517756016 L 596 433 L 585.8373251423758 428.790482243984" fill="#000000" stroke="none"/></g><g transform="translate(10,10) scale(1,1)"><path d="M 585.8373251423759 437.209517756016 L 596 433 L 585.8373251423758 428.790482243984 L 585.8373251423759 437.209517756016" fill="none" stroke="#000000" stroke-miterlimit="10"/></g><g transform="translate(10,10) scale(1,1)"><g><path fill="none" stroke="none"/><text fill="#000000" font-family="Arial" font-size="13px" font-style="normal" font-weight="normal" stroke="none" text-decoration="none" x="360.5" y="428">10 : RemoveFromCart("chiave scelta")</text></g></g><g transform="translate(10,10) scale(1,1)"><rect fill="#ffffff" height="28" stroke="none" width="13" x="596" y="433"/></g><g transform="translate(10,10) scale(1,1)"><path d="M 596 433 L 609 433 L 609 461 L 596 461 L 596 433 Z Z" fill="none" stroke="#000000" stroke-miterlimit="10"/></g><g transform="translate(10,10) scale(1,1)"><path d="M 609 456 L 861 456" fill="none" stroke="#000000" stroke-miterlimit="10"/></g><g transform="translate(10,10) scale(1,1)"><path d="M 850.8373251423759 460.209517756016 L 861 456 L 850.8373251423758 451.790482243984" fill="#000000" stroke="none"/></g><g transform="translate(10,10) scale(1,1)"><path d="M 850.8373251423759 460.209517756016 L 861 456 L 850.8373251423758 451.790482243984 L 850.8373251423759 460.209517756016" fill="none" stroke="#000000" stroke-miterlimit="10"/></g><g transform="translate(10,10) scale(1,1)"><g><path fill="none" stroke="none"/><text fill="#000000" font-family="Arial" font-size="13px" font-style="normal" font-weight="normal" stroke="none" text-decoration="none" x="613.982421875" y="451">11 : RimuoviArticolo("chiave scelta", User)</text></g></g><g transform="translate(10,10) scale(1,1)"><rect fill="#ffffff" height="72" stroke="none" width="13" x="861" y="456"/></g><g transform="translate(10,10) scale(1,1)"><path d="M 861 456 L 874 456 L 874 528 L 861 528 L 861 456 Z Z" fill="none" stroke="#000000" stroke-miterlimit="10"/></g><g transform="translate(10,10) scale(1,1)"><path d="M 874 464 L 904 464 L 904 484 L 881 484" fill="none" stroke="#000000" stroke-miterlimit="10"/></g><g transform="translate(10,10) scale(1,1)"><path d="M 891.1626748576241 479.790482243984 L 881 484 L 891.1626748576241 488.209517756016" fill="#000000" stroke="none"/></g><g transform="translate(10,10) scale(1,1)"><path d="M 891.1626748576241 479.790482243984 L 881 484 L 891.1626748576241 488.209517756016 L 891.1626748576241 479.790482243984" fill="none" stroke="#000000" stroke-miterlimit="10"/></g><g transform="translate(10,10) scale(1,1)"><g><path fill="none" stroke="none"/><text fill="#000000" font-family="Arial" font-size="13px" font-style="normal" font-weight="normal" stroke="none" text-decoration="none" x="910.5" y="478">12 : Remove("chiave scelta")</text></g></g><g transform="translate(10,10) scale(1,1)"><path d="M 861 520 L 58 520" fill="none" stroke="#000000" stroke-dasharray="3" stroke-miterlimit="10"/></g><g transform="translate(10,10) scale(1,1)"><path d="M 68.16267485762415 515.790482243984 L 58 520 L 68.16267485762415 524.209517756016" fill="none" stroke="#000000" stroke-miterlimit="10"/></g><g transform="translate(10,10) scale(1,1)"><g><path fill="none" stroke="none"/><text fill="#000000" font-family="Arial" font-size="13px" font-style="normal" font-weight="normal" stroke="none" text-decoration="none" x="397.97998046875" y="535">13 : UpdateGUI(Gui)</text></g></g><g transform="translate(10,10) scale(1,1)"><path d="M 58 584 L 333 584" fill="none" stroke="#000000" stroke-miterlimit="10"/></g><g transform="translate(10,10) scale(1,1)"><path d="M 322.83732514237585 588.209517756016 L 333 584 L 322.83732514237585 579.790482243984" fill="#000000" stroke="none"/></g><g transform="translate(10,10) scale(1,1)"><path d="M 322.83732514237585 588.209517756016 L 333 584 L 322.83732514237585 579.790482243984 L 322.83732514237585 588.209517756016" fill="none" stroke="#000000" stroke-miterlimit="10"/></g><g transform="translate(10,10) scale(1,1)"><g><path fill="none" stroke="none"/><text fill="#000000" font-family="Arial" font-size="13px" font-style="normal" font-weight="normal" stroke="none" text-decoration="none" x="120.5" y="579">14 : Gui Interact Chiusura</text></g></g><g transform="translate(10,10) scale(1,1)"><rect fill="#ffffff" height="64" stroke="none" width="13" x="333" y="584"/></g><g transform="translate(10,10) scale(1,1)"><path d="M 333 584 L 346 584 L 346 648 L 333 648 L 333 584 Z Z" fill="none" stroke="#000000" stroke-miterlimit="10"/></g><g transform="translate(10,10) scale(1,1)"><path d="M 346 592 L 376 592 L 376 612 L 353 612" fill="none" stroke="#000000" stroke-miterlimit="10"/></g><g transform="translate(10,10) scale(1,1)"><path d="M 363.16267485762415 607.790482243984 L 353 612 L 363.16267485762415 616.209517756016" fill="#000000" stroke="none"/></g><g transform="translate(10,10) scale(1,1)"><path d="M 363.16267485762415 607.790482243984 L 353 612 L 363.16267485762415 616.209517756016 L 363.16267485762415 607.790482243984" fill="none" stroke="#000000" stroke-miterlimit="10"/></g><g transform="translate(10,10) scale(1,1)"><path d="M 323 734 L 343 754" fill="none" stroke="#000000" stroke-miterlimit="10"/></g><g transform="translate(10,10) scale(1,1)"><path d="M 343 734 L 323 754" fill="none" stroke="#000000" stroke-miterlimit="10"/></g><g transform="translate(10,10) scale(1,1)"><g><path fill="none" stroke="none"/><text fill="#000000" font-family="Arial" font-size="13px" font-style="normal" font-weight="normal" stroke="none" text-decoration="none" x="382.5" y="606">15 : Chiudi</text></g></g><g transform="translate(10,10) scale(1,1)"><g><path fill="none" stroke="none"/><text fill="#000000" font-family="Arial" font-size="13px" font-style="normal" font-weight="normal" stroke="none" text-decoration="none" x="383.5" y="587">«destroy»</text></g></g><g transform="translate(10,10) scale(1,1)"><rect fill="#ffffff" height="28" stroke="none" width="13" x="340" y="612"/></g><g transform="translate(10,10) scale(1,1)"><path d="M 340 612 L 353 612 L 353 640 L 340 640 L 340 612 Z Z" fill="none" stroke="#000000" stroke-miterlimit="10"/></g></g></svg>