<?xml version="1.0" encoding="UTF-8" standalone="no"?><svg xmlns="http://www.w3.org/2000/svg" xmlns:xlink="http://www.w3.org/1999/xlink" height="484" version="1.1" width="692"><defs/><g><g transform="translate(-62,-14) scale(1,1)"><path d="M 72 24 L 744 24 L 744 488 L 72 488 L 72 24" fill="none" stroke="#000000" stroke-miterlimit="10"/></g><g transform="translate(-62,-14) scale(1,1)"><path d="M 72 24 L 72 46 L 153.05078125 46 L 164.05078125 35 L 164.05078125 24 L 72 24" fill="#ffffff" stroke="none"/></g><g transform="translate(-62,-14) scale(1,1)"><path d="M 72 24 L 72 46 L 153.05078125 46 L 164.05078125 35 L 164.05078125 24 L 72 24 L 72 24" fill="none" stroke="#000000" stroke-miterlimit="10"/></g><g transform="translate(-62,-14) scale(1,1)"><g><path fill="none" stroke="none"/><text fill="#000000" font-family="Arial" font-size="13px" font-style="normal" font-weight="normal" stroke="none" text-decoration="none" x="96.72998046875" y="40">Aggiunta</text></g></g><g transform="translate(-62,-14) scale(1,1)"><g><path fill="none" stroke="none"/><text fill="#000000" font-family="Arial" font-size="13px" font-style="normal" font-weight="bold" stroke="none" text-decoration="none" x="76.279541015625" y="40">sd</text></g></g><g transform="translate(-62,-14) scale(1,1)"><rect fill="#C0C0C0" height="29" opacity="0.2" stroke="none" width="99" x="175" y="239"/></g><g transform="translate(-62,-14) scale(1,1)"><rect fill="#ffffff" height="29" stroke="none" width="99" x="168" y="232"/></g><g transform="translate(-62,-14) scale(1,1)"><path d="M 168 232 L 267 232 L 267 261 L 168 261 L 168 232 Z Z" fill="none" stroke="#000000" stroke-miterlimit="10"/></g><g transform="translate(-62,-14) scale(1,1)"><rect fill="#ffffff" height="29" stroke="none" width="99" x="168" y="232"/></g><g transform="translate(-62,-14) scale(1,1)"><path d="M 168 232 L 267 232 L 267 261 L 168 261 L 168 232 Z Z" fill="none" stroke="#000000" stroke-miterlimit="10"/></g><g transform="translate(-62,-14) scale(1,1)"><g><path fill="none" stroke="none"/><text fill="#000000" font-family="Arial" font-size="13px" font-style="normal" font-weight="bold" stroke="none" text-decoration="none" x="177.405029296875" y="250">User: Cliente</text></g></g><g transform="translate(-62,-14) scale(1,1)"><rect fill="#C0C0C0" height="29" opacity="0.2" stroke="none" width="127.46630859375" x="343" y="119"/></g><g transform="translate(-62,-14) scale(1,1)"><rect fill="#ffffff" height="29" stroke="none" width="127.46630859375" x="336" y="112"/></g><g transform="translate(-62,-14) scale(1,1)"><path d="M 336 112 L 463.46630859375 112 L 463.46630859375 141 L 336 141 L 336 112 Z Z" fill="none" stroke="#000000" stroke-miterlimit="10"/></g><g transform="translate(-62,-14) scale(1,1)"><rect fill="#ffffff" height="29" stroke="none" width="127.46630859375" x="336" y="112"/></g><g transform="translate(-62,-14) scale(1,1)"><path d="M 336 112 L 463.46630859375 112 L 463.46630859375 141 L 336 141 L 336 112 Z Z" fill="none" stroke="#000000" stroke-miterlimit="10"/></g><g transform="translate(-62,-14) scale(1,1)"><g><path fill="none" stroke="none"/><text fill="#000000" font-family="Arial" font-size="13px" font-style="normal" font-weight="bold" stroke="none" text-decoration="none" x="340.5" y="130">Gui: GUI Principale</text></g></g><g transform="translate(-62,-14) scale(1,1)"><rect fill="#C0C0C0" height="29" opacity="0.2" stroke="none" width="106.51904296875" x="543" y="231"/></g><g transform="translate(-62,-14) scale(1,1)"><rect fill="#ffffff" height="29" stroke="none" width="106.51904296875" x="536" y="224"/></g><g transform="translate(-62,-14) scale(1,1)"><path d="M 536 224 L 642.51904296875 224 L 642.51904296875 253 L 536 253 L 536 224 Z Z" fill="none" stroke="#000000" stroke-miterlimit="10"/></g><g transform="translate(-62,-14) scale(1,1)"><rect fill="#ffffff" height="29" stroke="none" width="106.51904296875" x="536" y="224"/></g><g transform="translate(-62,-14) scale(1,1)"><path d="M 536 224 L 642.51904296875 224 L 642.51904296875 253 L 536 253 L 536 224 Z Z" fill="none" stroke="#000000" stroke-miterlimit="10"/></g><g transform="translate(-62,-14) scale(1,1)"><g><path fill="none" stroke="none"/><text fill="#000000" font-family="Arial" font-size="13px" font-style="normal" font-weight="bold" stroke="none" text-decoration="none" x="540.5" y="242">Manager Utente</text></g></g><g transform="translate(-62,-14) scale(1,1)"><rect fill="#C0C0C0" height="29" opacity="0.2" stroke="none" width="99" x="359" y="367"/></g><g transform="translate(-62,-14) scale(1,1)"><rect fill="#ffffff" height="29" stroke="none" width="99" x="352" y="360"/></g><g transform="translate(-62,-14) scale(1,1)"><path d="M 352 360 L 451 360 L 451 389 L 352 389 L 352 360 Z Z" fill="none" stroke="#000000" stroke-miterlimit="10"/></g><g transform="translate(-62,-14) scale(1,1)"><rect fill="#ffffff" height="29" stroke="none" width="99" x="352" y="360"/></g><g transform="translate(-62,-14) scale(1,1)"><path d="M 352 360 L 451 360 L 451 389 L 352 389 L 352 360 Z Z" fill="none" stroke="#000000" stroke-miterlimit="10"/></g><g transform="translate(-62,-14) scale(1,1)"><g><path fill="none" stroke="none"/><text fill="#000000" font-family="Arial" font-size="13px" font-style="normal" font-weight="bold" stroke="none" text-decoration="none" x="376.9345703125" y="378">Carrello</text></g></g><g transform="translate(-62,-14) scale(1,1)"><path d="M 240 231 L 375 142" fill="none" stroke="#000000" stroke-miterlimit="10"/></g><g transform="translate(-62,-14) scale(1,1)"><path d="M 426 142 L 564 223" fill="none" stroke="#000000" stroke-miterlimit="10"/></g><g transform="translate(-62,-14) scale(1,1)"><path d="M 567 254 L 422 359" fill="none" stroke="#000000" stroke-miterlimit="10"/></g><g transform="translate(-62,-14) scale(1,1)"><path d="M 379 359 L 240 262" fill="none" stroke="#000000" stroke-miterlimit="10"/></g><g transform="translate(-62,-14) scale(1,1)"><path d="M 240 231 L 375 142" fill="none" stroke="#000000" stroke-miterlimit="10"/></g><g transform="translate(-62,-14) scale(1,1)"><path d="M 426 142 L 564 223" fill="none" stroke="#000000" stroke-miterlimit="10"/></g><g transform="translate(-62,-14) scale(1,1)"><path d="M 564 223 L 426 142" fill="none" stroke="#000000" stroke-miterlimit="10"/></g><g transform="translate(-62,-14) scale(1,1)"><path d="M 240 231 L 375 142" fill="none" stroke="#000000" stroke-miterlimit="10"/></g><g transform="translate(-62,-14) scale(1,1)"><path d="M 318 167 L 285 188" fill="none" stroke="#000000" stroke-miterlimit="10"/></g><g transform="translate(-62,-14) scale(1,1)"><path d="M 311 176 L 318 167 L 306 169" fill="#000000" stroke="none"/></g><g transform="translate(-62,-14) scale(1,1)"><g><path fill="none" stroke="none"/><text fill="#000000" font-family="Arial" font-size="13px" font-style="normal" font-weight="normal" stroke="none" text-decoration="none" x="159.69189453125" y="169.5">1 : GUI Interact Apertura</text></g></g><g transform="translate(-62,-14) scale(1,1)"><path d="M 399 112 L 399 91 L 492 91 L 492 126 L 463 126" fill="none" stroke="#000000" stroke-miterlimit="10"/></g><g transform="translate(-62,-14) scale(1,1)"><path d="M 500 126 L 500 86" fill="none" stroke="#000000" stroke-miterlimit="10"/></g><g transform="translate(-62,-14) scale(1,1)"><path d="M 495 114 L 500 126 L 504 114" fill="#000000" stroke="none"/></g><g transform="translate(-62,-14) scale(1,1)"><g><path fill="none" stroke="none"/><text fill="#000000" font-family="Arial" font-size="13px" font-style="normal" font-weight="normal" stroke="none" text-decoration="none" x="402.964111328125" y="82">2 : Apri(Gui)</text></g></g><g transform="translate(-62,-14) scale(1,1)"><path d="M 426 142 L 564 223" fill="none" stroke="#000000" stroke-miterlimit="10"/></g><g transform="translate(-62,-14) scale(1,1)"><path d="M 517 183 L 483 163" fill="none" stroke="#000000" stroke-miterlimit="10"/></g><g transform="translate(-62,-14) scale(1,1)"><path d="M 505 181 L 517 183 L 509 173" fill="#000000" stroke="none"/></g><g transform="translate(-62,-14) scale(1,1)"><g><path fill="none" stroke="none"/><text fill="#000000" font-family="Arial" font-size="13px" font-style="normal" font-weight="normal" stroke="none" text-decoration="none" x="502.8955078125" y="163">3 : ShowForClient(Gui)</text></g></g><g transform="translate(-62,-14) scale(1,1)"><path d="M 564 223 L 426 142" fill="none" stroke="#000000" stroke-miterlimit="10"/></g><g transform="translate(-62,-14) scale(1,1)"><path d="M 564 223 L 426 142" fill="none" stroke="#000000" stroke-miterlimit="10"/></g><g transform="translate(-62,-14) scale(1,1)"><path d="M 564 223 L 426 142" fill="none" stroke="#000000" stroke-miterlimit="10"/></g><g transform="translate(-62,-14) scale(1,1)"><path d="M 240 231 L 375 142" fill="none" stroke="#000000" stroke-miterlimit="10"/></g><g transform="translate(-62,-14) scale(1,1)"><path d="M 318 167 L 285 188" fill="none" stroke="#000000" stroke-miterlimit="10"/></g><g transform="translate(-62,-14) scale(1,1)"><path d="M 311 176 L 318 167 L 306 169" fill="#000000" stroke="none"/></g><g transform="translate(-62,-14) scale(1,1)"><g><path fill="none" stroke="none"/><text fill="#000000" font-family="Arial" font-size="13px" font-style="normal" font-weight="normal" stroke="none" text-decoration="none" x="134.517822265625" y="186.5">4 : GUI Interact Aggiiunta</text></g></g><g transform="translate(-62,-14) scale(1,1)"><path d="M 426 142 L 564 223" fill="none" stroke="#000000" stroke-miterlimit="10"/></g><g transform="translate(-62,-14) scale(1,1)"><path d="M 517 183 L 483 163" fill="none" stroke="#000000" stroke-miterlimit="10"/></g><g transform="translate(-62,-14) scale(1,1)"><path d="M 505 181 L 517 183 L 509 173" fill="#000000" stroke="none"/></g><g transform="translate(-62,-14) scale(1,1)"><g><path fill="none" stroke="none"/><text fill="#000000" font-family="Arial" font-size="13px" font-style="normal" font-weight="normal" stroke="none" text-decoration="none" x="526.5244140625" y="178">5 : AddToCart("chiave")</text></g></g><g transform="translate(-62,-14) scale(1,1)"><path d="M 567 254 L 422 359" fill="none" stroke="#000000" stroke-miterlimit="10"/></g><g transform="translate(-62,-14) scale(1,1)"><path d="M 483 326 L 515 303" fill="none" stroke="#000000" stroke-miterlimit="10"/></g><g transform="translate(-62,-14) scale(1,1)"><path d="M 489 315 L 483 326 L 494 323" fill="#000000" stroke="none"/></g><g transform="translate(-62,-14) scale(1,1)"><g><path fill="none" stroke="none"/><text fill="#000000" font-family="Arial" font-size="13px" font-style="normal" font-weight="normal" stroke="none" text-decoration="none" x="494.92626953125" y="337.5">6 : AggiungiArticolo("chiave", User)</text></g></g><g transform="translate(-62,-14) scale(1,1)"><path d="M 401 389 L 401 416 L 480 416 L 480 374 L 451 374" fill="none" stroke="#000000" stroke-miterlimit="10"/></g><g transform="translate(-62,-14) scale(1,1)"><path d="M 495 375 L 495 415" fill="none" stroke="#000000" stroke-miterlimit="10"/></g><g transform="translate(-62,-14) scale(1,1)"><path d="M 499 386 L 495 375 L 490 386" fill="#000000" stroke="none"/></g><g transform="translate(-62,-14) scale(1,1)"><g><path fill="none" stroke="none"/><text fill="#000000" font-family="Arial" font-size="13px" font-style="normal" font-weight="normal" stroke="none" text-decoration="none" x="502.6689453125" y="402">7 : Add("chiave")</text></g></g><g transform="translate(-62,-14) scale(1,1)"><path d="M 379 359 L 240 262" fill="none" stroke="#000000" stroke-miterlimit="10"/></g><g transform="translate(-62,-14) scale(1,1)"><path d="M 279 306 L 311 328" fill="none" stroke="#000000" stroke-dasharray="3" stroke-miterlimit="10"/></g><g transform="translate(-62,-14) scale(1,1)"><path d="M 290 308 L 279 306 L 285 316" fill="none" stroke="#000000" stroke-miterlimit="10"/></g><g transform="translate(-62,-14) scale(1,1)"><g><path fill="none" stroke="none"/><text fill="#000000" font-family="Arial" font-size="13px" font-style="normal" font-weight="normal" stroke="none" text-decoration="none" x="169.00732421875" y="330">8 : UpdateGUI(Gui)</text></g></g></g></svg>