<?xml version="1.0" encoding="UTF-8" standalone="no"?><svg xmlns="http://www.w3.org/2000/svg" xmlns:xlink="http://www.w3.org/1999/xlink" height="708" version="1.1" width="1300"><defs/><g><g transform="translate(-14,-14) scale(1,1)"><rect fill="#ffffff" height="21" stroke="none" width="272" x="24" y="24"/></g><g transform="translate(-14,-14) scale(1,1)"><path d="M 24 24 L 296 24 L 296 45 L 24 45 L 24 24 Z Z" fill="none" stroke="#000000" stroke-miterlimit="10" stroke-width="2"/></g><g transform="translate(-14,-14) scale(1,1)"><path d="M 24 712 L 24 24 L 296 24 L 296 712" fill="none" stroke="#000000" stroke-miterlimit="10" stroke-width="2"/></g><g transform="translate(-14,-14) scale(1,1)"><g><path fill="none" stroke="none"/><text fill="#000000" font-family="Arial" font-size="13px" font-style="normal" font-weight="normal" stroke="none" text-decoration="none" x="139.766845703125" y="38">Cliente</text></g></g><g transform="translate(-14,-14) scale(1,1)"><rect fill="#ffffff" height="21" stroke="none" width="319" x="296" y="24"/></g><g transform="translate(-14,-14) scale(1,1)"><path d="M 296 24 L 615 24 L 615 45 L 296 45 L 296 24 Z Z" fill="none" stroke="#000000" stroke-miterlimit="10" stroke-width="2"/></g><g transform="translate(-14,-14) scale(1,1)"><path d="M 296 712 L 296 24 L 615 24 L 615 712" fill="none" stroke="#000000" stroke-miterlimit="10" stroke-width="2"/></g><g transform="translate(-14,-14) scale(1,1)"><g><path fill="none" stroke="none"/><text fill="#000000" font-family="Arial" font-size="13px" font-style="normal" font-weight="normal" stroke="none" text-decoration="none" x="413.595947265625" y="38">GUI Principale</text></g></g><g transform="translate(-14,-14) scale(1,1)"><rect fill="#ffffff" height="21" stroke="none" width="336" x="616" y="24"/></g><g transform="translate(-14,-14) scale(1,1)"><path d="M 616 24 L 952 24 L 952 45 L 616 45 L 616 24 Z Z" fill="none" stroke="#000000" stroke-miterlimit="10" stroke-width="2"/></g><g transform="translate(-14,-14) scale(1,1)"><path d="M 616 712 L 616 24 L 952 24 L 952 712" fill="none" stroke="#000000" stroke-miterlimit="10" stroke-width="2"/></g><g transform="translate(-14,-14) scale(1,1)"><g><path fill="none" stroke="none"/><text fill="#000000" font-family="Arial" font-size="13px" font-style="normal" font-weight="normal" stroke="none" text-decoration="none" x="737.38916015625" y="38">Manager Utente</text></g></g><g transform="translate(-14,-14) scale(1,1)"><rect fill="#ffffff" height="21" stroke="none" width="352" x="952" y="24"/></g><g transform="translate(-14,-14) scale(1,1)"><path d="M 952 24 L 1304 24 L 1304 45 L 952 45 L 952 24 Z Z" fill="none" stroke="#000000" stroke-miterlimit="10" stroke-width="2"/></g><g transform="translate(-14,-14) scale(1,1)"><path d="M 952 712 L 952 24 L 1304 24 L 1304 712" fill="none" stroke="#000000" stroke-miterlimit="10" stroke-width="2"/></g><g transform="translate(-14,-14) scale(1,1)"><g><path fill="none" stroke="none"/><text fill="#000000" font-family="Arial" font-size="13px" font-style="normal" font-weight="normal" stroke="none" text-decoration="none" x="1105.24365234375" y="38">Carrello</text></g></g><g transform="translate(-14,-14) scale(1,1)"><path d="M 154 80.5 C 154 75.2532944 158.2532944 71 163.5 71 C 168.7467056 71 173 75.2532944 173 80.5 C 173 85.7467056 168.7467056 90 163.5 90 C 158.2532944 90 154 85.7467056 154 80.5 Z" fill="#C0C0C0" opacity="0.2" stroke="none"/></g><g transform="translate(-14,-14) scale(1,1)"><path d="M 147 73.5 C 147 68.2532944 151.2532944 64 156.5 64 C 161.7467056 64 166 68.2532944 166 73.5 C 166 78.7467056 161.7467056 83 156.5 83 C 151.2532944 83 147 78.7467056 147 73.5 Z" fill="#000000" stroke="none"/></g><g transform="translate(-14,-14) scale(1,1)"><path d="M 113 119 L 214.734375 119 Q 224.734375 119 224.734375 129 L 224.734375 149 Q 224.734375 159 214.734375 159 L 113 159 Q 103 159 103 149 L 103 129 Q 103 119 113 119 Z" fill="#C0C0C0" opacity="0.2" stroke="none"/></g><g transform="translate(-14,-14) scale(1,1)"><path d="M 106 112 L 207.734375 112 Q 217.734375 112 217.734375 122 L 217.734375 142 Q 217.734375 152 207.734375 152 L 106 152 Q 96 152 96 142 L 96 122 Q 96 112 106 112 Z" fill="#ffffff" stroke="none"/></g><g transform="translate(-14,-14) scale(1,1)"><path d="M 106 112 L 207.734375 112 Q 217.734375 112 217.734375 122 L 217.734375 142 Q 217.734375 152 207.734375 152 L 106 152 Q 96 152 96 142 L 96 122 Q 96 112 106 112 Z" fill="none" stroke="#000000" stroke-miterlimit="10"/></g><g transform="translate(-14,-14) scale(1,1)"><g><path fill="none" stroke="none"/><text fill="#000000" font-family="Arial" font-size="13px" font-style="normal" font-weight="bold" stroke="none" text-decoration="none" x="100.5" y="130">Accede al sistema</text></g></g><g transform="translate(-14,-14) scale(1,1)"><path d="M 422 119 L 510.68359375 119 Q 520.68359375 119 520.68359375 129 L 520.68359375 149 Q 520.68359375 159 510.68359375 159 L 422 159 Q 412 159 412 149 L 412 129 Q 412 119 422 119 Z" fill="#C0C0C0" opacity="0.2" stroke="none"/></g><g transform="translate(-14,-14) scale(1,1)"><path d="M 415 112 L 503.68359375 112 Q 513.68359375 112 513.68359375 122 L 513.68359375 142 Q 513.68359375 152 503.68359375 152 L 415 152 Q 405 152 405 142 L 405 122 Q 405 112 415 112 Z" fill="#ffffff" stroke="none"/></g><g transform="translate(-14,-14) scale(1,1)"><path d="M 415 112 L 503.68359375 112 Q 513.68359375 112 513.68359375 122 L 513.68359375 142 Q 513.68359375 152 503.68359375 152 L 415 152 Q 405 152 405 142 L 405 122 Q 405 112 415 112 Z" fill="none" stroke="#000000" stroke-miterlimit="10"/></g><g transform="translate(-14,-14) scale(1,1)"><g><path fill="none" stroke="none"/><text fill="#000000" font-family="Arial" font-size="13px" font-style="normal" font-weight="bold" stroke="none" text-decoration="none" x="409.5" y="130">Mostra catalogo</text></g></g><g transform="translate(-14,-14) scale(1,1)"><path d="M 118 223 L 209.55908203125 223 Q 219.55908203125 223 219.55908203125 233 L 219.55908203125 253 Q 219.55908203125 263 209.55908203125 263 L 118 263 Q 108 263 108 253 L 108 233 Q 108 223 118 223 Z" fill="#C0C0C0" opacity="0.2" stroke="none"/></g><g transform="translate(-14,-14) scale(1,1)"><path d="M 111 216 L 202.55908203125 216 Q 212.55908203125 216 212.55908203125 226 L 212.55908203125 246 Q 212.55908203125 256 202.55908203125 256 L 111 256 Q 101 256 101 246 L 101 226 Q 101 216 111 216 Z" fill="#ffffff" stroke="none"/></g><g transform="translate(-14,-14) scale(1,1)"><path d="M 111 216 L 202.55908203125 216 Q 212.55908203125 216 212.55908203125 226 L 212.55908203125 246 Q 212.55908203125 256 202.55908203125 256 L 111 256 Q 101 256 101 246 L 101 226 Q 101 216 111 216 Z" fill="none" stroke="#000000" stroke-miterlimit="10"/></g><g transform="translate(-14,-14) scale(1,1)"><g><path fill="none" stroke="none"/><text fill="#000000" font-family="Arial" font-size="13px" font-style="normal" font-weight="bold" stroke="none" text-decoration="none" x="105.5" y="234">Sceglie prodotto</text></g></g><g transform="translate(-14,-14) scale(1,1)"><path d="M 745 215 L 871.92822265625 215 Q 881.92822265625 215 881.92822265625 225 L 881.92822265625 245 Q 881.92822265625 255 871.92822265625 255 L 745 255 Q 735 255 735 245 L 735 225 Q 735 215 745 215 Z" fill="#C0C0C0" opacity="0.2" stroke="none"/></g><g transform="translate(-14,-14) scale(1,1)"><path d="M 738 208 L 864.92822265625 208 Q 874.92822265625 208 874.92822265625 218 L 874.92822265625 238 Q 874.92822265625 248 864.92822265625 248 L 738 248 Q 728 248 728 238 L 728 218 Q 728 208 738 208 Z" fill="#ffffff" stroke="none"/></g><g transform="translate(-14,-14) scale(1,1)"><path d="M 738 208 L 864.92822265625 208 Q 874.92822265625 208 874.92822265625 218 L 874.92822265625 238 Q 874.92822265625 248 864.92822265625 248 L 738 248 Q 728 248 728 238 L 728 218 Q 728 208 738 208 Z" fill="none" stroke="#000000" stroke-miterlimit="10"/></g><g transform="translate(-14,-14) scale(1,1)"><g><path fill="none" stroke="none"/><text fill="#000000" font-family="Arial" font-size="13px" font-style="normal" font-weight="bold" stroke="none" text-decoration="none" x="732.5" y="226">Controllo disponibilità</text></g></g><g transform="translate(-14,-14) scale(1,1)"><path d="M 783 343.5 L 799.5 327 L 815 343.5 L 799.5 359 L 783 343.5" fill="#C0C0C0" opacity="0.2" stroke="none"/></g><g transform="translate(-14,-14) scale(1,1)"><path d="M 776 336 L 792 320 L 808 336 L 792 352 L 776 336" fill="#ffffff" stroke="none"/></g><g transform="translate(-14,-14) scale(1,1)"><path d="M 776 336 L 792 320 L 808 336 L 792 352 L 776 336 L 776 336" fill="none" stroke="#000000" stroke-miterlimit="10"/></g><g transform="translate(-14,-14) scale(1,1)"><path d="M 1081 322 L 1205.7509765625 322 Q 1215.7509765625 322 1215.7509765625 332 L 1215.7509765625 352 Q 1215.7509765625 362 1205.7509765625 362 L 1081 362 Q 1071 362 1071 352 L 1071 332 Q 1071 322 1081 322 Z" fill="#C0C0C0" opacity="0.2" stroke="none"/></g><g transform="translate(-14,-14) scale(1,1)"><path d="M 1074 315 L 1198.7509765625 315 Q 1208.7509765625 315 1208.7509765625 325 L 1208.7509765625 345 Q 1208.7509765625 355 1198.7509765625 355 L 1074 355 Q 1064 355 1064 345 L 1064 325 Q 1064 315 1074 315 Z" fill="#ffffff" stroke="none"/></g><g transform="translate(-14,-14) scale(1,1)"><path d="M 1074 315 L 1198.7509765625 315 Q 1208.7509765625 315 1208.7509765625 325 L 1208.7509765625 345 Q 1208.7509765625 355 1198.7509765625 355 L 1074 355 Q 1064 355 1064 345 L 1064 325 Q 1064 315 1074 315 Z" fill="none" stroke="#000000" stroke-miterlimit="10"/></g><g transform="translate(-14,-14) scale(1,1)"><g><path fill="none" stroke="none"/><text fill="#000000" font-family="Arial" font-size="13px" font-style="normal" font-weight="bold" stroke="none" text-decoration="none" x="1068.5" y="333">Aggiunta del prodotto</text></g></g><g transform="translate(-14,-14) scale(1,1)"><path d="M 386 322 L 546.21533203125 322 Q 556.21533203125 322 556.21533203125 332 L 556.21533203125 352 Q 556.21533203125 362 546.21533203125 362 L 386 362 Q 376 362 376 352 L 376 332 Q 376 322 386 322 Z" fill="#C0C0C0" opacity="0.2" stroke="none"/></g><g transform="translate(-14,-14) scale(1,1)"><path d="M 379 315 L 539.21533203125 315 Q 549.21533203125 315 549.21533203125 325 L 549.21533203125 345 Q 549.21533203125 355 539.21533203125 355 L 379 355 Q 369 355 369 345 L 369 325 Q 369 315 379 315 Z" fill="#ffffff" stroke="none"/></g><g transform="translate(-14,-14) scale(1,1)"><path d="M 379 315 L 539.21533203125 315 Q 549.21533203125 315 549.21533203125 325 L 549.21533203125 345 Q 549.21533203125 355 539.21533203125 355 L 379 355 Q 369 355 369 345 L 369 325 Q 369 315 379 315 Z" fill="none" stroke="#000000" stroke-miterlimit="10"/></g><g transform="translate(-14,-14) scale(1,1)"><g><path fill="none" stroke="none"/><text fill="#000000" font-family="Arial" font-size="13px" font-style="normal" font-weight="bold" stroke="none" text-decoration="none" x="373.5" y="333">Notifica "prodotto esaurito"</text></g></g><g transform="translate(-14,-14) scale(1,1)"><path d="M 377 439 L 556.7216796875 439 Q 566.7216796875 439 566.7216796875 449 L 566.7216796875 469 Q 566.7216796875 479 556.7216796875 479 L 377 479 Q 367 479 367 469 L 367 449 Q 367 439 377 439 Z" fill="#C0C0C0" opacity="0.2" stroke="none"/></g><g transform="translate(-14,-14) scale(1,1)"><path d="M 370 432 L 549.7216796875 432 Q 559.7216796875 432 559.7216796875 442 L 559.7216796875 462 Q 559.7216796875 472 549.7216796875 472 L 370 472 Q 360 472 360 462 L 360 442 Q 360 432 370 432 Z" fill="#ffffff" stroke="none"/></g><g transform="translate(-14,-14) scale(1,1)"><path d="M 370 432 L 549.7216796875 432 Q 559.7216796875 432 559.7216796875 442 L 559.7216796875 462 Q 559.7216796875 472 549.7216796875 472 L 370 472 Q 360 472 360 462 L 360 442 Q 360 432 370 432 Z" fill="none" stroke="#000000" stroke-miterlimit="10"/></g><g transform="translate(-14,-14) scale(1,1)"><g><path fill="none" stroke="none"/><text fill="#000000" font-family="Arial" font-size="13px" font-style="normal" font-weight="bold" stroke="none" text-decoration="none" x="400.995849609375" y="450">Ritorno al catalogo</text></g></g><g transform="translate(-14,-14) scale(1,1)"><path d="M 454 627.5 C 454 620.59644 459.59644 615 466.5 615 C 473.40356 615 479 620.59644 479 627.5 C 479 634.40356 473.40356 640 466.5 640 C 459.59644 640 454 634.40356 454 627.5 Z" fill="#C0C0C0" opacity="0.2" stroke="none"/></g><g transform="translate(-14,-14) scale(1,1)"><path d="M 447 620.5 C 447 613.59644 452.59644 608 459.5 608 C 466.40356 608 472 613.59644 472 620.5 C 472 627.40356 466.40356 633 459.5 633 C 452.59644 633 447 627.40356 447 620.5 Z" fill="none" stroke="#000000" stroke-miterlimit="10"/></g><g transform="translate(-14,-14) scale(1,1)"><path d="M 452 620.5 C 452 616.357864 455.357864 613 459.5 613 C 463.642136 613 467 616.357864 467 620.5 C 467 624.642136 463.642136 628 459.5 628 C 455.357864 628 452 624.642136 452 620.5 Z" fill="#000000" stroke="none"/></g><g transform="translate(-14,-14) scale(1,1)"><path d="M 154 83 L 154 112" fill="none" stroke="#000000" stroke-miterlimit="10"/></g><g transform="translate(-14,-14) scale(1,1)"><path d="M 149.790482243984 101.83732514237585 L 154 112 L 158.209517756016 101.83732514237585" fill="none" stroke="#000000" stroke-miterlimit="10"/></g><g transform="translate(-14,-14) scale(1,1)"><path d="M 218 132 L 405 132" fill="none" stroke="#000000" stroke-miterlimit="10"/></g><g transform="translate(-14,-14) scale(1,1)"><path d="M 394.83732514237585 136.209517756016 L 405 132 L 394.83732514237585 127.79048224398402" fill="none" stroke="#000000" stroke-miterlimit="10"/></g><g transform="translate(-14,-14) scale(1,1)"><path d="M 454 152 L 454 176 L 159 176 L 159 216" fill="none" stroke="#000000" stroke-miterlimit="10"/></g><g transform="translate(-14,-14) scale(1,1)"><path d="M 154.790482243984 205.83732514237585 L 159 216 L 163.209517756016 205.83732514237585" fill="none" stroke="#000000" stroke-miterlimit="10"/></g><g transform="translate(-14,-14) scale(1,1)"><path d="M 213 235 L 728 235" fill="none" stroke="#000000" stroke-miterlimit="10"/></g><g transform="translate(-14,-14) scale(1,1)"><path d="M 717.8373251423759 239.209517756016 L 728 235 L 717.8373251423758 230.790482243984" fill="none" stroke="#000000" stroke-miterlimit="10"/></g><g transform="translate(-14,-14) scale(1,1)"><path d="M 792 248 L 792 320" fill="none" stroke="#000000" stroke-miterlimit="10"/></g><g transform="translate(-14,-14) scale(1,1)"><path d="M 787.790482243984 309.83732514237585 L 792 320 L 796.209517756016 309.83732514237585" fill="none" stroke="#000000" stroke-miterlimit="10"/></g><g transform="translate(-14,-14) scale(1,1)"><path d="M 808 336 L 1064 336" fill="none" stroke="#000000" stroke-miterlimit="10"/></g><g transform="translate(-14,-14) scale(1,1)"><path d="M 1053.837325142376 340.209517756016 L 1064 336 L 1053.837325142376 331.790482243984" fill="none" stroke="#000000" stroke-miterlimit="10"/></g><g transform="translate(-14,-14) scale(1,1)"><g><path fill="none" stroke="none"/><text fill="#000000" font-family="Arial" font-size="13px" font-style="normal" font-weight="normal" stroke="none" text-decoration="none" x="830.5" y="325">Prodotto disponibile</text></g></g><g transform="translate(-14,-14) scale(1,1)"><path d="M 456 355 L 456 432" fill="none" stroke="#000000" stroke-miterlimit="10"/></g><g transform="translate(-14,-14) scale(1,1)"><path d="M 451.790482243984 421.83732514237585 L 456 432 L 460.209517756016 421.83732514237585" fill="none" stroke="#000000" stroke-miterlimit="10"/></g><g transform="translate(-14,-14) scale(1,1)"><path d="M 445 559.5 L 466.5 543 L 487 559.5 L 466.5 575 L 445 559.5" fill="#C0C0C0" opacity="0.2" stroke="none"/></g><g transform="translate(-14,-14) scale(1,1)"><path d="M 438 552 L 459 536 L 480 552 L 459 568 L 438 552" fill="#ffffff" stroke="none"/></g><g transform="translate(-14,-14) scale(1,1)"><path d="M 438 552 L 459 536 L 480 552 L 459 568 L 438 552 L 438 552" fill="none" stroke="#000000" stroke-miterlimit="10"/></g><g transform="translate(-14,-14) scale(1,1)"><path d="M 1136 355 L 1136 552 L 480 552" fill="none" stroke="#000000" stroke-miterlimit="10"/></g><g transform="translate(-14,-14) scale(1,1)"><path d="M 490.16267485762415 547.790482243984 L 480 552 L 490.16267485762415 556.209517756016" fill="none" stroke="#000000" stroke-miterlimit="10"/></g><g transform="translate(-14,-14) scale(1,1)"><path d="M 459 473 L 459 535" fill="none" stroke="#000000" stroke-miterlimit="10"/></g><g transform="translate(-14,-14) scale(1,1)"><path d="M 454.790482243984 524.8373251423759 L 459 535 L 463.209517756016 524.8373251423759" fill="none" stroke="#000000" stroke-miterlimit="10"/></g><g transform="translate(-14,-14) scale(1,1)"><path d="M 459 569 L 459 607" fill="none" stroke="#000000" stroke-miterlimit="10"/></g><g transform="translate(-14,-14) scale(1,1)"><path d="M 454.790482243984 596.8373251423759 L 459 607 L 463.209517756016 596.8373251423759" fill="none" stroke="#000000" stroke-miterlimit="10"/></g><g transform="translate(-14,-14) scale(1,1)"><path d="M 776 336 L 549 336" fill="none" stroke="#000000" stroke-miterlimit="10"/></g><g transform="translate(-14,-14) scale(1,1)"><path d="M 559.1626748576241 331.790482243984 L 549 336 L 559.1626748576241 340.209517756016" fill="none" stroke="#000000" stroke-miterlimit="10"/></g><g transform="translate(-14,-14) scale(1,1)"><g><path fill="none" stroke="none"/><text fill="#000000" font-family="Arial" font-size="13px" font-style="normal" font-weight="normal" stroke="none" text-decoration="none" x="623.5" y="323">Prodotto esaurito</text></g></g></g></svg>