<?xml version="1.0" encoding="UTF-8" standalone="no"?><svg xmlns="http://www.w3.org/2000/svg" xmlns:xlink="http://www.w3.org/1999/xlink" height="875" version="1.1" width="1003"><defs/><g><g transform="translate(-54,2) scale(1,1)"><rect fill="#C0C0C0" height="175" opacity="0.2" stroke="none" width="199" x="423" y="15"/></g><g transform="translate(-54,2) scale(1,1)"><rect fill="#ffffff" height="175" stroke="none" width="199" x="416" y="8"/></g><g transform="translate(-54,2) scale(1,1)"><path d="M 416 8 L 615 8 L 615 183 L 416 183 L 416 8 Z Z" fill="none" stroke="#000000" stroke-miterlimit="10"/></g><g transform="translate(-54,2) scale(1,1)"><path d="M 416 33 L 615 33" fill="none" stroke="#000000" stroke-miterlimit="10"/></g><g transform="translate(-54,2) scale(1,1)"><path d="M 416 101 L 615 101" fill="none" stroke="#000000" stroke-miterlimit="10"/></g><g transform="translate(-54,2) scale(1,1)"><g><path fill="none" stroke="none"/><text fill="#000000" font-family="Arial" font-size="13px" font-style="normal" font-weight="bold" stroke="none" text-decoration="none" x="490.944091796875" y="25.5">Articolo</text></g></g><g transform="translate(-54,2) scale(1,1)"><g><path fill="none" stroke="none"/><text fill="#000000" font-family="Arial" font-size="13px" font-style="normal" font-weight="normal" stroke="none" text-decoration="none" x="421" y="48.5">-ID articolo</text></g></g><g transform="translate(-54,2) scale(1,1)"><g><path fill="none" stroke="none"/><text fill="#000000" font-family="Arial" font-size="13px" font-style="normal" font-weight="normal" stroke="none" text-decoration="none" x="421" y="63.5">-Quantita articolo</text></g></g><g transform="translate(-54,2) scale(1,1)"><g><path fill="none" stroke="none"/><text fill="#000000" font-family="Arial" font-size="13px" font-style="normal" font-weight="normal" stroke="none" text-decoration="none" x="421" y="78.5">-Nome Articolo</text></g></g><g transform="translate(-54,2) scale(1,1)"><g><path fill="none" stroke="none"/><text fill="#000000" font-family="Arial" font-size="13px" font-style="normal" font-weight="normal" stroke="none" text-decoration="none" x="421" y="93.5">-Prezzo</text></g></g><g transform="translate(-54,2) scale(1,1)"><rect fill="#C0C0C0" height="176" opacity="0.2" stroke="none" width="239" x="815" y="111"/></g><g transform="translate(-54,2) scale(1,1)"><rect fill="#ffffff" height="176" stroke="none" width="239" x="808" y="104"/></g><g transform="translate(-54,2) scale(1,1)"><path d="M 808 104 L 1047 104 L 1047 280 L 808 280 L 808 104 Z Z" fill="none" stroke="#000000" stroke-miterlimit="10"/></g><g transform="translate(-54,2) scale(1,1)"><path d="M 808 129 L 1047 129" fill="none" stroke="#000000" stroke-miterlimit="10"/></g><g transform="translate(-54,2) scale(1,1)"><path d="M 808 182 L 1047 182" fill="none" stroke="#000000" stroke-miterlimit="10"/></g><g transform="translate(-54,2) scale(1,1)"><g><path fill="none" stroke="none"/><text fill="#000000" font-family="Arial" font-size="13px" font-style="normal" font-weight="bold" stroke="none" text-decoration="none" x="902.9345703125" y="121.5">Carrello</text></g></g><g transform="translate(-54,2) scale(1,1)"><g><path fill="none" stroke="none"/><text fill="#000000" font-family="Arial" font-size="13px" font-style="normal" font-weight="normal" stroke="none" text-decoration="none" x="813" y="144.5">-Articolo</text></g></g><g transform="translate(-54,2) scale(1,1)"><g><path fill="none" stroke="none"/><text fill="#000000" font-family="Arial" font-size="13px" font-style="normal" font-weight="normal" stroke="none" text-decoration="none" x="813" y="159.5">-Grandezza Tot carrello</text></g></g><g transform="translate(-54,2) scale(1,1)"><g><path fill="none" stroke="none"/><text fill="#000000" font-family="Arial" font-size="13px" font-style="normal" font-weight="normal" stroke="none" text-decoration="none" x="813" y="174.5">-Prezzo Tot carrello</text></g></g><g transform="translate(-54,2) scale(1,1)"><g><path fill="none" stroke="none"/><text fill="#000000" font-family="Arial" font-size="13px" font-style="normal" font-weight="normal" stroke="none" text-decoration="none" x="813" y="197.5">+Aggiungi()</text></g></g><g transform="translate(-54,2) scale(1,1)"><g><path fill="none" stroke="none"/><text fill="#000000" font-family="Arial" font-size="13px" font-style="normal" font-weight="normal" stroke="none" text-decoration="none" x="813" y="212.5">+Rimuovi()</text></g></g><g transform="translate(-54,2) scale(1,1)"><rect fill="#C0C0C0" height="191" opacity="0.2" stroke="none" width="183" x="855" y="679"/></g><g transform="translate(-54,2) scale(1,1)"><rect fill="#ffffff" height="191" stroke="none" width="183" x="848" y="672"/></g><g transform="translate(-54,2) scale(1,1)"><path d="M 848 672 L 1031 672 L 1031 863 L 848 863 L 848 672 Z Z" fill="none" stroke="#000000" stroke-miterlimit="10"/></g><g transform="translate(-54,2) scale(1,1)"><path d="M 848 697 L 1031 697" fill="none" stroke="#000000" stroke-miterlimit="10"/></g><g transform="translate(-54,2) scale(1,1)"><path d="M 848 765 L 1031 765" fill="none" stroke="#000000" stroke-miterlimit="10"/></g><g transform="translate(-54,2) scale(1,1)"><g><path fill="none" stroke="none"/><text fill="#000000" font-family="Arial" font-size="13px" font-style="normal" font-weight="bold" stroke="none" text-decoration="none" x="904.464111328125" y="689.5">Pagamento</text></g></g><g transform="translate(-54,2) scale(1,1)"><g><path fill="none" stroke="none"/><text fill="#000000" font-family="Arial" font-size="13px" font-style="normal" font-weight="normal" stroke="none" text-decoration="none" x="853" y="712.5">-ID pagamento</text></g></g><g transform="translate(-54,2) scale(1,1)"><g><path fill="none" stroke="none"/><text fill="#000000" font-family="Arial" font-size="13px" font-style="normal" font-weight="normal" stroke="none" text-decoration="none" x="853" y="727.5">-Totale pagamento</text></g></g><g transform="translate(-54,2) scale(1,1)"><g><path fill="none" stroke="none"/><text fill="#000000" font-family="Arial" font-size="13px" font-style="normal" font-weight="normal" stroke="none" text-decoration="none" x="853" y="742.5">-Numero di articoli</text></g></g><g transform="translate(-54,2) scale(1,1)"><g><path fill="none" stroke="none"/><text fill="#000000" font-family="Arial" font-size="13px" font-style="normal" font-weight="normal" stroke="none" text-decoration="none" x="853" y="757.5">-Articolo</text></g></g><g transform="translate(-54,2) scale(1,1)"><path d="M 929 281 L 937 671" fill="none" stroke="#000000" stroke-miterlimit="10"/></g><g transform="translate(-54,2) scale(1,1)"><g><path fill="none" stroke="none"/><text fill="#000000" font-family="Arial" font-size="13px" font-style="normal" font-weight="normal" stroke="none" text-decoration="none" x="936.5" y="310.5">+1</text></g></g><g transform="translate(-54,2) scale(1,1)"><path d="M 929 281 L 937 671" fill="none" stroke="#000000" stroke-miterlimit="10"/></g><g transform="translate(-54,2) scale(1,1)"><g><path fill="none" stroke="none"/><text fill="#000000" font-family="Arial" font-size="13px" font-style="normal" font-weight="normal" stroke="none" text-decoration="none" x="906.5" y="300.5">1</text></g></g><g transform="translate(-54,2) scale(1,1)"><g><path fill="none" stroke="none"/><text fill="#000000" font-family="Arial" font-size="13px" font-style="normal" font-weight="normal" stroke="none" text-decoration="none" x="914.5" y="659.5">1</text></g></g><g transform="translate(-54,2) scale(1,1)"><rect fill="#C0C0C0" height="199" opacity="0.2" stroke="none" width="207" x="71" y="207"/></g><g transform="translate(-54,2) scale(1,1)"><rect fill="#ffffff" height="199" stroke="none" width="207" x="64" y="200"/></g><g transform="translate(-54,2) scale(1,1)"><path d="M 64 200 L 271 200 L 271 399 L 64 399 L 64 200 Z Z" fill="none" stroke="#000000" stroke-miterlimit="10"/></g><g transform="translate(-54,2) scale(1,1)"><path d="M 64 225 L 271 225" fill="none" stroke="#000000" stroke-miterlimit="10"/></g><g transform="translate(-54,2) scale(1,1)"><path d="M 64 338 L 271 338" fill="none" stroke="#000000" stroke-miterlimit="10"/></g><g transform="translate(-54,2) scale(1,1)"><g><path fill="none" stroke="none"/><text fill="#000000" font-family="Arial" font-size="13px" font-style="normal" font-weight="bold" stroke="none" text-decoration="none" x="147.2763671875" y="217.5">Utente</text></g></g><g transform="translate(-54,2) scale(1,1)"><g><path fill="none" stroke="none"/><text fill="#000000" font-family="Arial" font-size="13px" font-style="normal" font-weight="normal" stroke="none" text-decoration="none" x="69" y="240.5">-Tipo utente: Guest registrato</text></g></g><g transform="translate(-54,2) scale(1,1)"><g><path fill="none" stroke="none"/><text fill="#000000" font-family="Arial" font-size="13px" font-style="normal" font-weight="normal" stroke="none" text-decoration="none" x="69" y="255.5">-Nome utente</text></g></g><g transform="translate(-54,2) scale(1,1)"><g><path fill="none" stroke="none"/><text fill="#000000" font-family="Arial" font-size="13px" font-style="normal" font-weight="normal" stroke="none" text-decoration="none" x="69" y="270.5">-Cognome utente</text></g></g><g transform="translate(-54,2) scale(1,1)"><g><path fill="none" stroke="none"/><text fill="#000000" font-family="Arial" font-size="13px" font-style="normal" font-weight="normal" stroke="none" text-decoration="none" x="69" y="285.5">-Username</text></g></g><g transform="translate(-54,2) scale(1,1)"><g><path fill="none" stroke="none"/><text fill="#000000" font-family="Arial" font-size="13px" font-style="normal" font-weight="normal" stroke="none" text-decoration="none" x="69" y="300.5">-Email</text></g></g><g transform="translate(-54,2) scale(1,1)"><g><path fill="none" stroke="none"/><text fill="#000000" font-family="Arial" font-size="13px" font-style="normal" font-weight="normal" stroke="none" text-decoration="none" x="69" y="315.5">-Storico acquisti: Database</text></g></g><g transform="translate(-54,2) scale(1,1)"><g><path fill="none" stroke="none"/><text fill="#000000" font-family="Arial" font-size="13px" font-style="normal" font-weight="normal" stroke="none" text-decoration="none" x="69" y="330.5">-Cart: Carrello</text></g></g><g transform="translate(-54,2) scale(1,1)"><path d="M 272 284 L 807 209" fill="none" stroke="#000000" stroke-miterlimit="10"/></g><g transform="translate(-54,2) scale(1,1)"><g><path fill="none" stroke="none"/><text fill="#000000" font-family="Arial" font-size="13px" font-style="normal" font-weight="normal" stroke="none" text-decoration="none" x="291.5" y="297.5">1</text></g></g><g transform="translate(-54,2) scale(1,1)"><g><path fill="none" stroke="none"/><text fill="#000000" font-family="Arial" font-size="13px" font-style="normal" font-weight="normal" stroke="none" text-decoration="none" x="783.5" y="228.5">1</text></g></g><g transform="translate(-54,2) scale(1,1)"><path d="M 272 374 L 520 552 L 847 720" fill="none" stroke="#000000" stroke-miterlimit="10"/></g><g transform="translate(-54,2) scale(1,1)"><g><path fill="none" stroke="none"/><text fill="#000000" font-family="Arial" font-size="13px" font-style="normal" font-weight="normal" stroke="none" text-decoration="none" x="278.5" y="400.5">1</text></g></g><g transform="translate(-54,2) scale(1,1)"><g><path fill="none" stroke="none"/><text fill="#000000" font-family="Arial" font-size="13px" font-style="normal" font-weight="normal" stroke="none" text-decoration="none" x="810.5" y="725.5">0...*</text></g></g><g transform="translate(-54,2) scale(1,1)"><rect fill="#C0C0C0" height="191" opacity="0.2" stroke="none" width="217.76171875" x="495" y="303"/></g><g transform="translate(-54,2) scale(1,1)"><rect fill="#ffffff" height="191" stroke="none" width="217.76171875" x="488" y="296"/></g><g transform="translate(-54,2) scale(1,1)"><path d="M 488 296 L 705.76171875 296 L 705.76171875 487 L 488 487 L 488 296 Z Z" fill="none" stroke="#000000" stroke-miterlimit="10"/></g><g transform="translate(-54,2) scale(1,1)"><path d="M 488 321 L 705.76171875 321" fill="none" stroke="#000000" stroke-miterlimit="10"/></g><g transform="translate(-54,2) scale(1,1)"><path d="M 488 344 L 705.76171875 344" fill="none" stroke="#000000" stroke-miterlimit="10"/></g><g transform="translate(-54,2) scale(1,1)"><g><path fill="none" stroke="none"/><text fill="#000000" font-family="Arial" font-size="13px" font-style="normal" font-weight="bold" stroke="none" text-decoration="none" x="492.5" y="313.5">Manager Gestione articoli e Login</text></g></g><g transform="translate(-54,2) scale(1,1)"><g><path fill="none" stroke="none"/><text fill="#000000" font-family="Arial" font-size="13px" font-style="normal" font-weight="normal" stroke="none" text-decoration="none" x="493" y="336.5">-User: Utente</text></g></g><g transform="translate(-54,2) scale(1,1)"><g><path fill="none" stroke="none"/><text fill="#000000" font-family="Arial" font-size="13px" font-style="normal" font-weight="normal" stroke="none" text-decoration="none" x="493" y="359.5">+AggiuntaArticolo(Articolo)</text></g></g><g transform="translate(-54,2) scale(1,1)"><g><path fill="none" stroke="none"/><text fill="#000000" font-family="Arial" font-size="13px" font-style="normal" font-weight="normal" stroke="none" text-decoration="none" x="493" y="374.5">+RimozioneArticolo(Articolo)</text></g></g><g transform="translate(-54,2) scale(1,1)"><g><path fill="none" stroke="none"/><text fill="#000000" font-family="Arial" font-size="13px" font-style="normal" font-weight="normal" stroke="none" text-decoration="none" x="493" y="389.5">+CheckOut()</text></g></g><g transform="translate(-54,2) scale(1,1)"><g><path fill="none" stroke="none"/><text fill="#000000" font-family="Arial" font-size="13px" font-style="normal" font-weight="normal" stroke="none" text-decoration="none" x="493" y="404.5">+Operation1()</text></g></g><g transform="translate(-54,2) scale(1,1)"><g><path fill="none" stroke="none"/><text fill="#000000" font-family="Arial" font-size="13px" font-style="normal" font-weight="normal" stroke="none" text-decoration="none" x="493" y="419.5">+Operation2()</text></g></g><g transform="translate(-54,2) scale(1,1)"><path d="M 720 520 L 905.0673828125 520 L 915.0673828125 530 L 915.0673828125 623 L 720 623 L 720 520" fill="#ffffff" stroke="none"/></g><g transform="translate(-54,2) scale(1,1)"><path d="M 720 520 L 905.0673828125 520 L 915.0673828125 530 L 915.0673828125 623 L 720 623 L 720 520 L 720 520" fill="none" stroke="#000000" stroke-miterlimit="10"/></g><g transform="translate(-54,2) scale(1,1)"><path d="M 905.0673828125 520 L 905.0673828125 530 L 915.0673828125 530 L 905.0673828125 520" fill="none" stroke="#000000" stroke-miterlimit="10"/></g><g transform="translate(-54,2) scale(1,1)"><g><path fill="none" stroke="none"/><text fill="#000000" font-family="Arial" font-size="13px" font-style="normal" font-weight="normal" stroke="none" text-decoration="none" x="725" y="534">Il manager per gli articoli dovrà</text><text fill="#000000" font-family="Arial" font-size="13px" font-style="normal" font-weight="normal" stroke="none" text-decoration="none" x="725" y="547">fare da garante tra</text><text fill="#000000" font-family="Arial" font-size="13px" font-style="normal" font-weight="normal" stroke="none" text-decoration="none" x="725" y="560">l'infrastruttura interna del</text><text fill="#000000" font-family="Arial" font-size="13px" font-style="normal" font-weight="normal" stroke="none" text-decoration="none" x="725" y="573">sistema e quella esterna dei</text><text fill="#000000" font-family="Arial" font-size="13px" font-style="normal" font-weight="normal" stroke="none" text-decoration="none" x="725" y="586">database con cui si comunica,</text><text fill="#000000" font-family="Arial" font-size="13px" font-style="normal" font-weight="normal" stroke="none" text-decoration="none" x="725" y="599">quindi dovrà verificare tutte le</text><text fill="#000000" font-family="Arial" font-size="13px" font-style="normal" font-weight="normal" stroke="none" text-decoration="none" x="725" y="612">funzioni che vengono scelte</text></g></g><g transform="translate(-54,2) scale(1,1)"><path d="M 707 481 L 753 519" fill="none" stroke="#000000" stroke-dasharray="3" stroke-miterlimit="10"/></g><g transform="translate(-54,2) scale(1,1)"><path d="M 272 322 L 487 368" fill="none" stroke="#000000" stroke-miterlimit="10"/></g><g transform="translate(-54,2) scale(1,1)"><g><path fill="none" stroke="none"/><text fill="#000000" font-family="Arial" font-size="13px" font-style="normal" font-weight="normal" stroke="none" text-decoration="none" x="286.5" y="342.5">1</text></g></g><g transform="translate(-54,2) scale(1,1)"><g><path fill="none" stroke="none"/><text fill="#000000" font-family="Arial" font-size="13px" font-style="normal" font-weight="normal" stroke="none" text-decoration="none" x="459.5" y="379.5">1</text></g></g><g transform="translate(-54,2) scale(1,1)"><path d="M 707 324 L 807 264" fill="none" stroke="#000000" stroke-miterlimit="10"/></g><g transform="translate(-54,2) scale(1,1)"><g><path fill="none" stroke="none"/><text fill="#000000" font-family="Arial" font-size="13px" font-style="normal" font-weight="normal" stroke="none" text-decoration="none" x="727.5" y="327.5">1</text></g></g><g transform="translate(-54,2) scale(1,1)"><g><path fill="none" stroke="none"/><text fill="#000000" font-family="Arial" font-size="13px" font-style="normal" font-weight="normal" stroke="none" text-decoration="none" x="790.5" y="289.5">1</text></g></g><g transform="translate(-54,2) scale(1,1)"><rect fill="#C0C0C0" height="231" opacity="0.2" stroke="none" width="239" x="295" y="591"/></g><g transform="translate(-54,2) scale(1,1)"><rect fill="#ffffff" height="231" stroke="none" width="239" x="288" y="584"/></g><g transform="translate(-54,2) scale(1,1)"><path d="M 288 584 L 527 584 L 527 815 L 288 815 L 288 584 Z Z" fill="none" stroke="#000000" stroke-miterlimit="10"/></g><g transform="translate(-54,2) scale(1,1)"><path d="M 288 609 L 527 609" fill="none" stroke="#000000" stroke-miterlimit="10"/></g><g transform="translate(-54,2) scale(1,1)"><path d="M 288 632 L 527 632" fill="none" stroke="#000000" stroke-miterlimit="10"/></g><g transform="translate(-54,2) scale(1,1)"><g><path fill="none" stroke="none"/><text fill="#000000" font-family="Arial" font-size="13px" font-style="normal" font-weight="bold" stroke="none" text-decoration="none" x="314.300537109375" y="601.5">Rappresentazione del sistema</text></g></g><g transform="translate(-54,2) scale(1,1)"><g><path fill="none" stroke="none"/><text fill="#000000" font-family="Arial" font-size="13px" font-style="normal" font-weight="normal" stroke="none" text-decoration="none" x="293" y="624.5">+GUI sistema</text></g></g><g transform="translate(-54,2) scale(1,1)"><g><path fill="none" stroke="none"/><text fill="#000000" font-family="Arial" font-size="13px" font-style="normal" font-weight="normal" stroke="none" text-decoration="none" x="293" y="647.5">+Aggiunta(Articolo)</text></g></g><g transform="translate(-54,2) scale(1,1)"><g><path fill="none" stroke="none"/><text fill="#000000" font-family="Arial" font-size="13px" font-style="normal" font-weight="normal" stroke="none" text-decoration="none" x="293" y="662.5">+Rimozione(Articolo)</text></g></g><g transform="translate(-54,2) scale(1,1)"><path d="M 228 400 L 337 583" fill="none" stroke="#000000" stroke-miterlimit="10"/></g><g transform="translate(-54,2) scale(1,1)"><g><path fill="none" stroke="none"/><text fill="#000000" font-family="Arial" font-size="13px" font-style="normal" font-weight="normal" stroke="none" text-decoration="none" x="224.5" y="428.5">1</text></g></g><g transform="translate(-54,2) scale(1,1)"><g><path fill="none" stroke="none"/><text fill="#000000" font-family="Arial" font-size="13px" font-style="normal" font-weight="normal" stroke="none" text-decoration="none" x="303.5" y="574.5">1...*</text></g></g><g transform="translate(-54,2) scale(1,1)"><path d="M 536 488 L 478 583" fill="none" stroke="#000000" stroke-miterlimit="10"/></g><g transform="translate(-54,2) scale(1,1)"><g><path fill="none" stroke="none"/><text fill="#000000" font-family="Arial" font-size="13px" font-style="normal" font-weight="normal" stroke="none" text-decoration="none" x="510.5" y="503.5">1</text></g></g><g transform="translate(-54,2) scale(1,1)"><g><path fill="none" stroke="none"/><text fill="#000000" font-family="Arial" font-size="13px" font-style="normal" font-weight="normal" stroke="none" text-decoration="none" x="466.5" y="562.5">1...*</text></g></g><g transform="translate(-54,2) scale(1,1)"><path d="M 616 119 L 807 164" fill="none" stroke="#000000" stroke-miterlimit="10"/></g><g transform="translate(-54,2) scale(1,1)"><g><path fill="none" stroke="none"/><text fill="#000000" font-family="Arial" font-size="13px" font-style="normal" font-weight="normal" stroke="none" text-decoration="none" x="622.5" y="140.5">0...*</text></g></g><g transform="translate(-54,2) scale(1,1)"><g><path fill="none" stroke="none"/><text fill="#000000" font-family="Arial" font-size="13px" font-style="normal" font-weight="normal" stroke="none" text-decoration="none" x="779.5" y="175.5">1</text></g></g></g></svg>