<?xml version="1.0" encoding="UTF-8" standalone="no"?><svg xmlns="http://www.w3.org/2000/svg" xmlns:xlink="http://www.w3.org/1999/xlink" height="727" version="1.1" width="1444"><defs/><g><g transform="translate(-144,-766) scale(1,1)"><rect fill="#C0C0C0" height="128" opacity="0.2" stroke="none" width="166" x="923" y="1186"/></g><g transform="translate(-144,-766) scale(1,1)"><rect fill="#ffffff" height="128" stroke="none" width="166" x="916" y="1179"/></g><g transform="translate(-144,-766) scale(1,1)"><path d="M 916 1179 L 1082 1179 L 1082 1307 L 916 1307 L 916 1179 Z Z" fill="none" stroke="#000000" stroke-miterlimit="10"/></g><g transform="translate(-144,-766) scale(1,1)"><rect fill="#ffffff" height="10" stroke="none" width="20" x="906" y="1186"/></g><g transform="translate(-144,-766) scale(1,1)"><path d="M 906 1186 L 926 1186 L 926 1196 L 906 1196 L 906 1186 Z Z" fill="none" stroke="#000000" stroke-miterlimit="10"/></g><g transform="translate(-144,-766) scale(1,1)"><rect fill="#ffffff" height="10" stroke="none" width="20" x="906" y="1206"/></g><g transform="translate(-144,-766) scale(1,1)"><path d="M 906 1206 L 926 1206 L 926 1216 L 906 1216 L 906 1206 Z Z" fill="none" stroke="#000000" stroke-miterlimit="10"/></g><g transform="translate(-144,-766) scale(1,1)"><g><path fill="none" stroke="none"/><text fill="#000000" font-family="Arial" font-size="13px" font-style="normal" font-weight="bold" stroke="none" text-decoration="none" x="978.34912109375" y="1197">Persona</text></g></g><g transform="translate(-144,-766) scale(1,1)"><rect fill="#C0C0C0" height="151" opacity="0.2" stroke="none" width="229" x="905" y="783"/></g><g transform="translate(-144,-766) scale(1,1)"><rect fill="#ffffff" height="151" stroke="none" width="229" x="898" y="776"/></g><g transform="translate(-144,-766) scale(1,1)"><path d="M 898 776 L 1127 776 L 1127 927 L 898 927 L 898 776 Z Z" fill="none" stroke="#000000" stroke-miterlimit="10"/></g><g transform="translate(-144,-766) scale(1,1)"><rect fill="#ffffff" height="10" stroke="none" width="20" x="888" y="783"/></g><g transform="translate(-144,-766) scale(1,1)"><path d="M 888 783 L 908 783 L 908 793 L 888 793 L 888 783 Z Z" fill="none" stroke="#000000" stroke-miterlimit="10"/></g><g transform="translate(-144,-766) scale(1,1)"><rect fill="#ffffff" height="10" stroke="none" width="20" x="888" y="803"/></g><g transform="translate(-144,-766) scale(1,1)"><path d="M 888 803 L 908 803 L 908 813 L 888 813 L 888 803 Z Z" fill="none" stroke="#000000" stroke-miterlimit="10"/></g><g transform="translate(-144,-766) scale(1,1)"><path d="M 908 801 L 1127 801" fill="none" stroke="#000000" stroke-miterlimit="10"/></g><g transform="translate(-144,-766) scale(1,1)"><g><path fill="none" stroke="none"/><text fill="#000000" font-family="Arial" font-size="13px" font-style="normal" font-weight="bold" stroke="none" text-decoration="none" x="957.88916015625" y="794">SIstemaDelCarrello</text></g></g><g transform="translate(-144,-766) scale(1,1)"><path d="M 992.7099609375 1061.5 C 992.7099609375 1055.1487248 997.8586857375 1050 1004.2099609375 1050 C 1010.5612361375 1050 1015.7099609375 1055.1487248 1015.7099609375 1061.5 C 1015.7099609375 1067.8512752 1010.5612361375 1073 1004.2099609375 1073 C 997.8586857375 1073 992.7099609375 1067.8512752 992.7099609375 1061.5 Z" fill="#C0C0C0" opacity="0.2" stroke="none"/></g><g transform="translate(-144,-766) scale(1,1)"><path d="M 1008.5 1054 A 11.5 11.5 0 0 1 985.5 1054" fill="none" stroke="#000000" stroke-miterlimit="10"/></g><g transform="translate(-144,-766) scale(1,1)"><path d="M 988.7099609375 1054.5 C 988.7099609375 1049.8055792 992.5155401375 1046 997.2099609375 1046 C 1001.9043817375 1046 1005.7099609375 1049.8055792 1005.7099609375 1054.5 C 1005.7099609375 1059.1944208 1001.9043817375 1063 997.2099609375 1063 C 992.5155401375 1063 988.7099609375 1059.1944208 988.7099609375 1054.5 Z" fill="#ffffff" stroke="none"/></g><g transform="translate(-144,-766) scale(1,1)"><path d="M 988.7099609375 1054.5 C 988.7099609375 1049.8055792 992.5155401375 1046 997.2099609375 1046 C 1001.9043817375 1046 1005.7099609375 1049.8055792 1005.7099609375 1054.5 C 1005.7099609375 1059.1944208 1001.9043817375 1063 997.2099609375 1063 C 992.5155401375 1063 988.7099609375 1059.1944208 988.7099609375 1054.5 Z" fill="none" stroke="#000000" stroke-miterlimit="10"/></g><g transform="translate(-144,-766) scale(1,1)"><g><path fill="none" stroke="none"/><text fill="#000000" font-family="Arial" font-size="13px" font-style="normal" font-weight="bold" stroke="none" text-decoration="none" x="982.0390625" y="1084">Lista</text></g></g><g transform="translate(-144,-766) scale(1,1)"><path d="M 1002 927 L 1002 1043" fill="none" stroke="#000000" stroke-miterlimit="10"/></g><g transform="translate(-144,-766) scale(1,1)"><path d="M 997 1179 L 997 1066" fill="none" stroke="#000000" stroke-miterlimit="10"/></g><g transform="translate(-144,-766) scale(1,1)"><rect fill="#C0C0C0" height="196" opacity="0.2" stroke="none" width="232.9521484375" x="379" y="1178"/></g><g transform="translate(-144,-766) scale(1,1)"><rect fill="#ffffff" height="196" stroke="none" width="232.9521484375" x="372" y="1171"/></g><g transform="translate(-144,-766) scale(1,1)"><path d="M 372 1171 L 604.9521484375 1171 L 604.9521484375 1367 L 372 1367 L 372 1171 Z Z" fill="none" stroke="#000000" stroke-miterlimit="10"/></g><g transform="translate(-144,-766) scale(1,1)"><rect fill="#ffffff" height="10" stroke="none" width="20" x="362" y="1178"/></g><g transform="translate(-144,-766) scale(1,1)"><path d="M 362 1178 L 382 1178 L 382 1188 L 362 1188 L 362 1178 Z Z" fill="none" stroke="#000000" stroke-miterlimit="10"/></g><g transform="translate(-144,-766) scale(1,1)"><rect fill="#ffffff" height="10" stroke="none" width="20" x="362" y="1198"/></g><g transform="translate(-144,-766) scale(1,1)"><path d="M 362 1198 L 382 1198 L 382 1208 L 362 1208 L 362 1198 Z Z" fill="none" stroke="#000000" stroke-miterlimit="10"/></g><g transform="translate(-144,-766) scale(1,1)"><g><path fill="none" stroke="none"/><text fill="#000000" font-family="Arial" font-size="13px" font-style="normal" font-weight="bold" stroke="none" text-decoration="none" x="434.5" y="1189">SistemaD'Acquisto</text></g></g><g transform="translate(-144,-766) scale(1,1)"><path d="M 765.035888671875 1245.5 C 765.035888671875 1239.1487248 770.184613471875 1234 776.535888671875 1234 C 782.887163871875 1234 788.035888671875 1239.1487248 788.035888671875 1245.5 C 788.035888671875 1251.8512752 782.887163871875 1257 776.535888671875 1257 C 770.184613471875 1257 765.035888671875 1251.8512752 765.035888671875 1245.5 Z" fill="#C0C0C0" opacity="0.2" stroke="none"/></g><g transform="translate(-144,-766) scale(1,1)"><path d="M 769 1226.5 A 11.5 11.5 0 0 1 769 1249.5" fill="none" stroke="#000000" stroke-miterlimit="10"/></g><g transform="translate(-144,-766) scale(1,1)"><path d="M 761.035888671875 1238.5 C 761.035888671875 1233.8055792 764.841467871875 1230 769.535888671875 1230 C 774.230309471875 1230 778.035888671875 1233.8055792 778.035888671875 1238.5 C 778.035888671875 1243.1944208 774.230309471875 1247 769.535888671875 1247 C 764.841467871875 1247 761.035888671875 1243.1944208 761.035888671875 1238.5 Z" fill="#ffffff" stroke="none"/></g><g transform="translate(-144,-766) scale(1,1)"><path d="M 761.035888671875 1238.5 C 761.035888671875 1233.8055792 764.841467871875 1230 769.535888671875 1230 C 774.230309471875 1230 778.035888671875 1233.8055792 778.035888671875 1238.5 C 778.035888671875 1243.1944208 774.230309471875 1247 769.535888671875 1247 C 764.841467871875 1247 761.035888671875 1243.1944208 761.035888671875 1238.5 Z" fill="none" stroke="#000000" stroke-miterlimit="10"/></g><g transform="translate(-144,-766) scale(1,1)"><g><path fill="none" stroke="none"/><text fill="#000000" font-family="Arial" font-size="13px" font-style="normal" font-weight="bold" stroke="none" text-decoration="none" x="734.5" y="1268">Pagamento</text></g></g><g transform="translate(-144,-766) scale(1,1)"><path d="M 605 1238 L 758.035888671875 1238" fill="none" stroke="#000000" stroke-miterlimit="10"/></g><g transform="translate(-144,-766) scale(1,1)"><path d="M 906 1238 L 781.035888671875 1238" fill="none" stroke="#000000" stroke-miterlimit="10"/></g><g transform="translate(-144,-766) scale(1,1)"><rect fill="#C0C0C0" height="128" opacity="0.2" stroke="none" width="278" x="1307" y="1186"/></g><g transform="translate(-144,-766) scale(1,1)"><rect fill="#ffffff" height="128" stroke="none" width="278" x="1300" y="1179"/></g><g transform="translate(-144,-766) scale(1,1)"><path d="M 1300 1179 L 1578 1179 L 1578 1307 L 1300 1307 L 1300 1179 Z Z" fill="none" stroke="#000000" stroke-miterlimit="10"/></g><g transform="translate(-144,-766) scale(1,1)"><rect fill="#ffffff" height="10" stroke="none" width="20" x="1290" y="1186"/></g><g transform="translate(-144,-766) scale(1,1)"><path d="M 1290 1186 L 1310 1186 L 1310 1196 L 1290 1196 L 1290 1186 Z Z" fill="none" stroke="#000000" stroke-miterlimit="10"/></g><g transform="translate(-144,-766) scale(1,1)"><rect fill="#ffffff" height="10" stroke="none" width="20" x="1290" y="1206"/></g><g transform="translate(-144,-766) scale(1,1)"><path d="M 1290 1206 L 1310 1206 L 1310 1216 L 1290 1216 L 1290 1206 Z Z" fill="none" stroke="#000000" stroke-miterlimit="10"/></g><g transform="translate(-144,-766) scale(1,1)"><g><path fill="none" stroke="none"/><text fill="#000000" font-family="Arial" font-size="13px" font-style="normal" font-weight="bold" stroke="none" text-decoration="none" x="1371.506591796875" y="1197">SistemaVisualizzazione</text></g></g><g transform="translate(-144,-766) scale(1,1)"><path d="M 1168.7099609375 1237.5 C 1168.7099609375 1231.1487248 1173.8586857375 1226 1180.2099609375 1226 C 1186.5612361375 1226 1191.7099609375 1231.1487248 1191.7099609375 1237.5 C 1191.7099609375 1243.8512752 1186.5612361375 1249 1180.2099609375 1249 C 1173.8586857375 1249 1168.7099609375 1243.8512752 1168.7099609375 1237.5 Z" fill="#C0C0C0" opacity="0.2" stroke="none"/></g><g transform="translate(-144,-766) scale(1,1)"><path d="M 1173 1241.5 A 11.5 11.5 0 0 1 1173 1218.5" fill="none" stroke="#000000" stroke-miterlimit="10"/></g><g transform="translate(-144,-766) scale(1,1)"><path d="M 1164.7099609375 1230.5 C 1164.7099609375 1225.8055792 1168.5155401375 1222 1173.2099609375 1222 C 1177.9043817375 1222 1181.7099609375 1225.8055792 1181.7099609375 1230.5 C 1181.7099609375 1235.1944208 1177.9043817375 1239 1173.2099609375 1239 C 1168.5155401375 1239 1164.7099609375 1235.1944208 1164.7099609375 1230.5 Z" fill="#ffffff" stroke="none"/></g><g transform="translate(-144,-766) scale(1,1)"><path d="M 1164.7099609375 1230.5 C 1164.7099609375 1225.8055792 1168.5155401375 1222 1173.2099609375 1222 C 1177.9043817375 1222 1181.7099609375 1225.8055792 1181.7099609375 1230.5 C 1181.7099609375 1235.1944208 1177.9043817375 1239 1173.2099609375 1239 C 1168.5155401375 1239 1164.7099609375 1235.1944208 1164.7099609375 1230.5 Z" fill="none" stroke="#000000" stroke-miterlimit="10"/></g><g transform="translate(-144,-766) scale(1,1)"><g><path fill="none" stroke="none"/><text fill="#000000" font-family="Arial" font-size="13px" font-style="normal" font-weight="bold" stroke="none" text-decoration="none" x="1161.654052734375" y="1260">GUI</text></g></g><g transform="translate(-144,-766) scale(1,1)"><path d="M 1290 1230 L 1184.7099609375 1230" fill="none" stroke="#000000" stroke-miterlimit="10"/></g><g transform="translate(-144,-766) scale(1,1)"><path d="M 1082 1230 L 1161.7099609375 1230" fill="none" stroke="#000000" stroke-miterlimit="10"/></g><g transform="translate(-144,-766) scale(1,1)"><path d="M 1285 849.5 A 11.5 11.5 0 0 1 1285 826.5" fill="none" stroke="#000000" stroke-miterlimit="10"/></g><g transform="translate(-144,-766) scale(1,1)"><g><path fill="none" stroke="none"/><text fill="#000000" font-family="Arial" font-size="13px" font-style="normal" font-weight="bold" stroke="none" text-decoration="none" x="1267.50634765625" y="868">Data1</text></g></g><g transform="translate(-144,-766) scale(1,1)"><path d="M 1127 838 L 1273.7099609375 838" fill="none" stroke="#000000" stroke-miterlimit="10"/></g><g transform="translate(-144,-766) scale(1,1)"><path d="M 393.90521605576606 1449.0258501666092 A 11.5 11.5 0 0 1 416.09478394423394 1442.9741498333908" fill="none" stroke="#000000" stroke-miterlimit="10"/></g><g transform="translate(-144,-766) scale(1,1)"><g><path fill="none" stroke="none"/><text fill="#000000" font-family="Arial" font-size="13px" font-style="normal" font-weight="bold" stroke="none" text-decoration="none" x="387.50634765625" y="1476">Data2</text></g></g><g transform="translate(-144,-766) scale(1,1)"><path d="M 402 1367 L 402 1435" fill="none" stroke="#000000" stroke-miterlimit="10"/></g><g transform="translate(-144,-766) scale(1,1)"><path d="M 189 1250.5 A 11.5 11.5 0 0 1 189 1273.5" fill="none" stroke="#000000" stroke-miterlimit="10"/></g><g transform="translate(-144,-766) scale(1,1)"><g><path fill="none" stroke="none"/><text fill="#000000" font-family="Arial" font-size="13px" font-style="normal" font-weight="bold" stroke="none" text-decoration="none" x="171.50634765625" y="1292">Data1</text></g></g><g transform="translate(-144,-766) scale(1,1)"><path d="M 362 1262 L 200.7099609375 1262" fill="none" stroke="#000000" stroke-miterlimit="10"/></g><g transform="translate(-144,-766) scale(1,1)"><path d="M 558.1923756298829 1439.069954774503 A 11.5 11.5 0 0 1 579.8076243701171 1446.930045225497" fill="none" stroke="#000000" stroke-miterlimit="10"/></g><g transform="translate(-144,-766) scale(1,1)"><g><path fill="none" stroke="none"/><text fill="#000000" font-family="Arial" font-size="13px" font-style="normal" font-weight="bold" stroke="none" text-decoration="none" x="500.5" y="1473">Circuito di pagamento</text></g></g><g transform="translate(-144,-766) scale(1,1)"><path d="M 573 1367 L 573 1432" fill="none" stroke="#000000" stroke-miterlimit="10"/></g></g></svg>