<?xml version="1.0" encoding="UTF-8" standalone="no"?><svg xmlns="http://www.w3.org/2000/svg" xmlns:xlink="http://www.w3.org/1999/xlink" height="988" version="1.1" width="1235"><defs/><g><g transform="translate(-134,-22) scale(1,1)"><path d="M 151 355 L 443 355 L 443 655 L 151 655" fill="#C0C0C0" opacity="0.2" stroke="none"/></g><g transform="translate(-134,-22) scale(1,1)"><path d="M 151 355 L 161 345 L 453 345 L 443 355" fill="#C0C0C0" opacity="0.2" stroke="none"/></g><g transform="translate(-134,-22) scale(1,1)"><path d="M 453 345 L 443 355 L 443 655 L 453 645" fill="#C0C0C0" opacity="0.2" stroke="none"/></g><g transform="translate(-134,-22) scale(1,1)"><path d="M 144 348 L 436 348 L 436 648 L 144 648" fill="#ffffff" stroke="none"/></g><g transform="translate(-134,-22) scale(1,1)"><path d="M 144 348 L 154 338 L 446 338 L 436 348" fill="#ffffff" stroke="none"/></g><g transform="translate(-134,-22) scale(1,1)"><path d="M 446 338 L 436 348 L 436 648 L 446 638" fill="#ffffff" stroke="none"/></g><g transform="translate(-134,-22) scale(1,1)"><path d="M 144 348 L 436 348 L 436 648 L 144 648 L 144 348" fill="none" stroke="#000000" stroke-miterlimit="10"/></g><g transform="translate(-134,-22) scale(1,1)"><path d="M 144 348 L 154 338 L 446 338 L 436 348 L 144 348" fill="none" stroke="#000000" stroke-miterlimit="10"/></g><g transform="translate(-134,-22) scale(1,1)"><path d="M 446 338 L 436 348 L 436 648 L 446 638 L 446 338" fill="none" stroke="#000000" stroke-miterlimit="10"/></g><g transform="translate(-134,-22) scale(1,1)"><g><path fill="none" stroke="none"/><text fill="#000000" font-family="Arial" font-size="13px" font-style="normal" font-weight="bold" stroke="none" text-decoration="none" x="261.608642578125" y="366">Client PC</text></g></g><g transform="translate(-134,-22) scale(1,1)"><rect fill="#C0C0C0" height="71" opacity="0.2" stroke="none" width="189" x="193" y="465"/></g><g transform="translate(-134,-22) scale(1,1)"><rect fill="#ffffff" height="71" stroke="none" width="189" x="186" y="458"/></g><g transform="translate(-134,-22) scale(1,1)"><path d="M 186 458 L 375 458 L 375 529 L 186 529 L 186 458 Z Z" fill="none" stroke="#000000" stroke-miterlimit="10"/></g><g transform="translate(-134,-22) scale(1,1)"><rect fill="#ffffff" height="10" stroke="none" width="20" x="176" y="465"/></g><g transform="translate(-134,-22) scale(1,1)"><path d="M 176 465 L 196 465 L 196 475 L 176 475 L 176 465 Z Z" fill="none" stroke="#000000" stroke-miterlimit="10"/></g><g transform="translate(-134,-22) scale(1,1)"><rect fill="#ffffff" height="10" stroke="none" width="20" x="176" y="485"/></g><g transform="translate(-134,-22) scale(1,1)"><path d="M 176 485 L 196 485 L 196 495 L 176 495 L 176 485 Z Z" fill="none" stroke="#000000" stroke-miterlimit="10"/></g><g transform="translate(-134,-22) scale(1,1)"><g><path fill="none" stroke="none"/><text fill="#000000" font-family="Arial" font-size="13px" font-style="normal" font-weight="bold" stroke="none" text-decoration="none" x="254.082275390625" y="476">Client GUI</text></g></g><g transform="translate(-134,-22) scale(1,1)"><path d="M 617 367 L 886 367 L 886 643 L 617 643" fill="#C0C0C0" opacity="0.2" stroke="none"/></g><g transform="translate(-134,-22) scale(1,1)"><path d="M 617 367 L 627 357 L 896 357 L 886 367" fill="#C0C0C0" opacity="0.2" stroke="none"/></g><g transform="translate(-134,-22) scale(1,1)"><path d="M 896 357 L 886 367 L 886 643 L 896 633" fill="#C0C0C0" opacity="0.2" stroke="none"/></g><g transform="translate(-134,-22) scale(1,1)"><path d="M 610 360 L 879 360 L 879 636 L 610 636" fill="#ffffff" stroke="none"/></g><g transform="translate(-134,-22) scale(1,1)"><path d="M 610 360 L 620 350 L 889 350 L 879 360" fill="#ffffff" stroke="none"/></g><g transform="translate(-134,-22) scale(1,1)"><path d="M 889 350 L 879 360 L 879 636 L 889 626" fill="#ffffff" stroke="none"/></g><g transform="translate(-134,-22) scale(1,1)"><path d="M 610 360 L 879 360 L 879 636 L 610 636 L 610 360" fill="none" stroke="#000000" stroke-miterlimit="10"/></g><g transform="translate(-134,-22) scale(1,1)"><path d="M 610 360 L 620 350 L 889 350 L 879 360 L 610 360" fill="none" stroke="#000000" stroke-miterlimit="10"/></g><g transform="translate(-134,-22) scale(1,1)"><path d="M 889 350 L 879 360 L 879 636 L 889 626 L 889 350" fill="none" stroke="#000000" stroke-miterlimit="10"/></g><g transform="translate(-134,-22) scale(1,1)"><g><path fill="none" stroke="none"/><text fill="#000000" font-family="Arial" font-size="13px" font-style="normal" font-weight="bold" stroke="none" text-decoration="none" x="699.830078125" y="378">System Server</text></g></g><g transform="translate(-134,-22) scale(1,1)"><rect fill="#C0C0C0" height="44" opacity="0.2" stroke="none" width="163.44091796875" x="681" y="478"/></g><g transform="translate(-134,-22) scale(1,1)"><rect fill="#ffffff" height="44" stroke="none" width="163.44091796875" x="674" y="471"/></g><g transform="translate(-134,-22) scale(1,1)"><path d="M 674 471 L 837.44091796875 471 L 837.44091796875 515 L 674 515 L 674 471 Z Z" fill="none" stroke="#000000" stroke-miterlimit="10"/></g><g transform="translate(-134,-22) scale(1,1)"><rect fill="#ffffff" height="10" stroke="none" width="20" x="664" y="478"/></g><g transform="translate(-134,-22) scale(1,1)"><path d="M 664 478 L 684 478 L 684 488 L 664 488 L 664 478 Z Z" fill="none" stroke="#000000" stroke-miterlimit="10"/></g><g transform="translate(-134,-22) scale(1,1)"><rect fill="#ffffff" height="10" stroke="none" width="20" x="664" y="498"/></g><g transform="translate(-134,-22) scale(1,1)"><path d="M 664 498 L 684 498 L 684 508 L 664 508 L 664 498 Z Z" fill="none" stroke="#000000" stroke-miterlimit="10"/></g><g transform="translate(-134,-22) scale(1,1)"><g><path fill="none" stroke="none"/><text fill="#000000" font-family="Arial" font-size="13px" font-style="normal" font-weight="bold" stroke="none" text-decoration="none" x="688.5" y="489">Component application</text></g></g><g transform="translate(-134,-22) scale(1,1)"><path d="M 625 761 L 881 761 L 881 1006 L 625 1006" fill="#C0C0C0" opacity="0.2" stroke="none"/></g><g transform="translate(-134,-22) scale(1,1)"><path d="M 625 761 L 635 751 L 891 751 L 881 761" fill="#C0C0C0" opacity="0.2" stroke="none"/></g><g transform="translate(-134,-22) scale(1,1)"><path d="M 891 751 L 881 761 L 881 1006 L 891 996" fill="#C0C0C0" opacity="0.2" stroke="none"/></g><g transform="translate(-134,-22) scale(1,1)"><path d="M 618 754 L 874 754 L 874 999 L 618 999" fill="#ffffff" stroke="none"/></g><g transform="translate(-134,-22) scale(1,1)"><path d="M 618 754 L 628 744 L 884 744 L 874 754" fill="#ffffff" stroke="none"/></g><g transform="translate(-134,-22) scale(1,1)"><path d="M 884 744 L 874 754 L 874 999 L 884 989" fill="#ffffff" stroke="none"/></g><g transform="translate(-134,-22) scale(1,1)"><path d="M 618 754 L 874 754 L 874 999 L 618 999 L 618 754" fill="none" stroke="#000000" stroke-miterlimit="10"/></g><g transform="translate(-134,-22) scale(1,1)"><path d="M 618 754 L 628 744 L 884 744 L 874 754 L 618 754" fill="none" stroke="#000000" stroke-miterlimit="10"/></g><g transform="translate(-134,-22) scale(1,1)"><path d="M 884 744 L 874 754 L 874 999 L 884 989 L 884 744" fill="none" stroke="#000000" stroke-miterlimit="10"/></g><g transform="translate(-134,-22) scale(1,1)"><g><path fill="none" stroke="none"/><text fill="#000000" font-family="Arial" font-size="13px" font-style="normal" font-weight="bold" stroke="none" text-decoration="none" x="690.859619140625" y="772">Database SIstema</text></g></g><g transform="translate(-134,-22) scale(1,1)"><path d="M 1095 357 L 1355 357 L 1355 653 L 1095 653" fill="#C0C0C0" opacity="0.2" stroke="none"/></g><g transform="translate(-134,-22) scale(1,1)"><path d="M 1095 357 L 1105 347 L 1365 347 L 1355 357" fill="#C0C0C0" opacity="0.2" stroke="none"/></g><g transform="translate(-134,-22) scale(1,1)"><path d="M 1365 347 L 1355 357 L 1355 653 L 1365 643" fill="#C0C0C0" opacity="0.2" stroke="none"/></g><g transform="translate(-134,-22) scale(1,1)"><path d="M 1088 350 L 1348 350 L 1348 646 L 1088 646" fill="#ffffff" stroke="none"/></g><g transform="translate(-134,-22) scale(1,1)"><path d="M 1088 350 L 1098 340 L 1358 340 L 1348 350" fill="#ffffff" stroke="none"/></g><g transform="translate(-134,-22) scale(1,1)"><path d="M 1358 340 L 1348 350 L 1348 646 L 1358 636" fill="#ffffff" stroke="none"/></g><g transform="translate(-134,-22) scale(1,1)"><path d="M 1088 350 L 1348 350 L 1348 646 L 1088 646 L 1088 350" fill="none" stroke="#000000" stroke-miterlimit="10"/></g><g transform="translate(-134,-22) scale(1,1)"><path d="M 1088 350 L 1098 340 L 1358 340 L 1348 350 L 1088 350" fill="none" stroke="#000000" stroke-miterlimit="10"/></g><g transform="translate(-134,-22) scale(1,1)"><path d="M 1358 340 L 1348 350 L 1348 646 L 1358 636 L 1358 340" fill="none" stroke="#000000" stroke-miterlimit="10"/></g><g transform="translate(-134,-22) scale(1,1)"><g><path fill="none" stroke="none"/><text fill="#000000" font-family="Arial" font-size="13px" font-style="normal" font-weight="bold" stroke="none" text-decoration="none" x="1149.885009765625" y="368">Circuito di pagamento</text></g></g><g transform="translate(-134,-22) scale(1,1)"><rect fill="#C0C0C0" height="79" opacity="0.2" stroke="none" width="145.419921875" x="1161" y="461"/></g><g transform="translate(-134,-22) scale(1,1)"><rect fill="#ffffff" height="79" stroke="none" width="145.419921875" x="1154" y="454"/></g><g transform="translate(-134,-22) scale(1,1)"><path d="M 1154 454 L 1299.419921875 454 L 1299.419921875 533 L 1154 533 L 1154 454 Z Z" fill="none" stroke="#000000" stroke-miterlimit="10"/></g><g transform="translate(-134,-22) scale(1,1)"><rect fill="#ffffff" height="10" stroke="none" width="20" x="1144" y="461"/></g><g transform="translate(-134,-22) scale(1,1)"><path d="M 1144 461 L 1164 461 L 1164 471 L 1144 471 L 1144 461 Z Z" fill="none" stroke="#000000" stroke-miterlimit="10"/></g><g transform="translate(-134,-22) scale(1,1)"><rect fill="#ffffff" height="10" stroke="none" width="20" x="1144" y="481"/></g><g transform="translate(-134,-22) scale(1,1)"><path d="M 1144 481 L 1164 481 L 1164 491 L 1144 491 L 1144 481 Z Z" fill="none" stroke="#000000" stroke-miterlimit="10"/></g><g transform="translate(-134,-22) scale(1,1)"><g><path fill="none" stroke="none"/><text fill="#000000" font-family="Arial" font-size="13px" font-style="normal" font-weight="bold" stroke="none" text-decoration="none" x="1168.5" y="472">Payment application</text></g></g><g transform="translate(-134,-22) scale(1,1)"><path d="M 448 493 L 609 493" fill="none" stroke="#000000" stroke-miterlimit="10"/></g><g transform="translate(-134,-22) scale(1,1)"><g><path fill="none" stroke="none"/><text fill="#000000" font-family="Arial" font-size="13px" font-style="normal" font-weight="normal" stroke="none" text-decoration="none" x="507.5" y="483">+HTTP</text></g></g><g transform="translate(-134,-22) scale(1,1)"><path d="M 891 493 L 1087 493" fill="none" stroke="#000000" stroke-miterlimit="10"/></g><g transform="translate(-134,-22) scale(1,1)"><path d="M 750 638 L 751 743" fill="none" stroke="#000000" stroke-miterlimit="10"/></g><g transform="translate(-134,-22) scale(1,1)"><rect fill="#C0C0C0" height="71" opacity="0.2" stroke="none" width="181" x="673" y="807"/></g><g transform="translate(-134,-22) scale(1,1)"><rect fill="#ffffff" height="71" stroke="none" width="181" x="666" y="800"/></g><g transform="translate(-134,-22) scale(1,1)"><path d="M 666 800 L 847 800 L 847 871 L 666 871 L 666 800 Z Z" fill="none" stroke="#000000" stroke-miterlimit="10"/></g><g transform="translate(-134,-22) scale(1,1)"><rect fill="#ffffff" height="10" stroke="none" width="20" x="656" y="807"/></g><g transform="translate(-134,-22) scale(1,1)"><path d="M 656 807 L 676 807 L 676 817 L 656 817 L 656 807 Z Z" fill="none" stroke="#000000" stroke-miterlimit="10"/></g><g transform="translate(-134,-22) scale(1,1)"><rect fill="#ffffff" height="10" stroke="none" width="20" x="656" y="827"/></g><g transform="translate(-134,-22) scale(1,1)"><path d="M 656 827 L 676 827 L 676 837 L 656 837 L 656 827 Z Z" fill="none" stroke="#000000" stroke-miterlimit="10"/></g><g transform="translate(-134,-22) scale(1,1)"><g><path fill="none" stroke="none"/><text fill="#000000" font-family="Arial" font-size="13px" font-style="normal" font-weight="bold" stroke="none" text-decoration="none" x="704.425048828125" y="818">Credenziali cliente</text></g></g><g transform="translate(-134,-22) scale(1,1)"><rect fill="#C0C0C0" height="71" opacity="0.2" stroke="none" width="173" x="677" y="911"/></g><g transform="translate(-134,-22) scale(1,1)"><rect fill="#ffffff" height="71" stroke="none" width="173" x="670" y="904"/></g><g transform="translate(-134,-22) scale(1,1)"><path d="M 670 904 L 843 904 L 843 975 L 670 975 L 670 904 Z Z" fill="none" stroke="#000000" stroke-miterlimit="10"/></g><g transform="translate(-134,-22) scale(1,1)"><rect fill="#ffffff" height="10" stroke="none" width="20" x="660" y="911"/></g><g transform="translate(-134,-22) scale(1,1)"><path d="M 660 911 L 680 911 L 680 921 L 660 921 L 660 911 Z Z" fill="none" stroke="#000000" stroke-miterlimit="10"/></g><g transform="translate(-134,-22) scale(1,1)"><rect fill="#ffffff" height="10" stroke="none" width="20" x="660" y="931"/></g><g transform="translate(-134,-22) scale(1,1)"><path d="M 660 931 L 680 931 L 680 941 L 660 941 L 660 931 Z Z" fill="none" stroke="#000000" stroke-miterlimit="10"/></g><g transform="translate(-134,-22) scale(1,1)"><g><path fill="none" stroke="none"/><text fill="#000000" font-family="Arial" font-size="13px" font-style="normal" font-weight="bold" stroke="none" text-decoration="none" x="708.4208984375" y="922">Artioli disponibili</text></g></g><g transform="translate(-134,-22) scale(1,1)"><path d="M 618 49 L 886 49 L 886 293 L 618 293" fill="#C0C0C0" opacity="0.2" stroke="none"/></g><g transform="translate(-134,-22) scale(1,1)"><path d="M 618 49 L 628 39 L 896 39 L 886 49" fill="#C0C0C0" opacity="0.2" stroke="none"/></g><g transform="translate(-134,-22) scale(1,1)"><path d="M 896 39 L 886 49 L 886 293 L 896 283" fill="#C0C0C0" opacity="0.2" stroke="none"/></g><g transform="translate(-134,-22) scale(1,1)"><path d="M 611 42 L 879 42 L 879 286 L 611 286" fill="#ffffff" stroke="none"/></g><g transform="translate(-134,-22) scale(1,1)"><path d="M 611 42 L 621 32 L 889 32 L 879 42" fill="#ffffff" stroke="none"/></g><g transform="translate(-134,-22) scale(1,1)"><path d="M 889 32 L 879 42 L 879 286 L 889 276" fill="#ffffff" stroke="none"/></g><g transform="translate(-134,-22) scale(1,1)"><path d="M 611 42 L 879 42 L 879 286 L 611 286 L 611 42" fill="none" stroke="#000000" stroke-miterlimit="10"/></g><g transform="translate(-134,-22) scale(1,1)"><path d="M 611 42 L 621 32 L 889 32 L 879 42 L 611 42" fill="none" stroke="#000000" stroke-miterlimit="10"/></g><g transform="translate(-134,-22) scale(1,1)"><path d="M 889 32 L 879 42 L 879 286 L 889 276 L 889 32" fill="none" stroke="#000000" stroke-miterlimit="10"/></g><g transform="translate(-134,-22) scale(1,1)"><g><path fill="none" stroke="none"/><text fill="#000000" font-family="Arial" font-size="13px" font-style="normal" font-weight="bold" stroke="none" text-decoration="none" x="686.263671875" y="60">Database Fornitore</text></g></g><g transform="translate(-134,-22) scale(1,1)"><rect fill="#C0C0C0" height="87" opacity="0.2" stroke="none" width="125" x="700" y="127"/></g><g transform="translate(-134,-22) scale(1,1)"><rect fill="#ffffff" height="87" stroke="none" width="125" x="693" y="120"/></g><g transform="translate(-134,-22) scale(1,1)"><path d="M 693 120 L 818 120 L 818 207 L 693 207 L 693 120 Z Z" fill="none" stroke="#000000" stroke-miterlimit="10"/></g><g transform="translate(-134,-22) scale(1,1)"><rect fill="#ffffff" height="10" stroke="none" width="20" x="683" y="127"/></g><g transform="translate(-134,-22) scale(1,1)"><path d="M 683 127 L 703 127 L 703 137 L 683 137 L 683 127 Z Z" fill="none" stroke="#000000" stroke-miterlimit="10"/></g><g transform="translate(-134,-22) scale(1,1)"><rect fill="#ffffff" height="10" stroke="none" width="20" x="683" y="147"/></g><g transform="translate(-134,-22) scale(1,1)"><path d="M 683 147 L 703 147 L 703 157 L 683 157 L 683 147 Z Z" fill="none" stroke="#000000" stroke-miterlimit="10"/></g><g transform="translate(-134,-22) scale(1,1)"><g><path fill="none" stroke="none"/><text fill="#000000" font-family="Arial" font-size="13px" font-style="normal" font-weight="bold" stroke="none" text-decoration="none" x="736.302734375" y="138">Articolli</text></g></g><g transform="translate(-134,-22) scale(1,1)"><path d="M 750 288 L 750 349" fill="none" stroke="#000000" stroke-miterlimit="10"/></g></g></svg>