<?xml version="1.0" encoding="UTF-8" standalone="no"?><svg xmlns="http://www.w3.org/2000/svg" xmlns:xlink="http://www.w3.org/1999/xlink" height="731" version="1.1" width="963"><defs/><g><g transform="translate(10,-246) scale(1,1)"><rect fill="#C0C0C0" height="711" opacity="0.2" stroke="none" width="743" x="207" y="263"/></g><g transform="translate(10,-246) scale(1,1)"><rect fill="#ffffff" height="711" stroke="none" width="743" x="200" y="256"/></g><g transform="translate(10,-246) scale(1,1)"><path d="M 200 256 L 943 256 L 943 967 L 200 967 L 200 256 Z Z" fill="none" stroke="#000000" stroke-miterlimit="10"/></g><g transform="translate(10,-246) scale(1,1)"><g><path fill="none" stroke="none"/><text fill="#000000" font-family="Arial" font-size="13px" font-style="normal" font-weight="bold" stroke="none" text-decoration="none" x="506.496826171875" y="274">Acquisto Dipendente</text></g></g><g transform="translate(10,-246) scale(1,1)"><path d="M 60.27434055397727 329.68 C 60.27434055397727 324.886167936 64.16018287892273 321 68.95361328125 321 C 73.74704368357727 321 77.63288600852273 324.886167936 77.63288600852273 329.68 C 77.63288600852273 334.473832064 73.74704368357727 338.36 68.95361328125 338.36 C 64.16018287892273 338.36 60.27434055397727 334.473832064 60.27434055397727 329.68 Z" fill="#ffffff" stroke="none"/></g><g transform="translate(10,-246) scale(1,1)"><path d="M 60.27434055397727 329.68 C 60.27434055397727 324.886167936 64.16018287892273 321 68.95361328125 321 C 73.74704368357727 321 77.63288600852273 324.886167936 77.63288600852273 329.68 C 77.63288600852273 334.473832064 73.74704368357727 338.36 68.95361328125 338.36 C 64.16018287892273 338.36 60.27434055397727 334.473832064 60.27434055397727 329.68 Z" fill="none" stroke="#000000" stroke-miterlimit="10"/></g><g transform="translate(10,-246) scale(1,1)"><path d="M 68.95361328125 338.36 L 68.95361328125 355.64" fill="none" stroke="#000000" stroke-miterlimit="10"/></g><g transform="translate(10,-246) scale(1,1)"><path d="M 59.76379509943182 344.84 L 78.14343146306818 344.84" fill="none" stroke="#000000" stroke-miterlimit="10"/></g><g transform="translate(10,-246) scale(1,1)"><path d="M 68.95361328125 355.64 L 56.189976917613635 373" fill="none" stroke="#000000" stroke-miterlimit="10"/></g><g transform="translate(10,-246) scale(1,1)"><path d="M 68.95361328125 355.64 L 81.71724964488637 373" fill="none" stroke="#000000" stroke-miterlimit="10"/></g><g transform="translate(10,-246) scale(1,1)"><g><path fill="none" stroke="none"/><text fill="#000000" font-family="Arial" font-size="13px" font-style="normal" font-weight="bold" stroke="none" text-decoration="none" x="48.72998046875" y="392">Utente</text></g></g><g transform="translate(10,-246) scale(1,1)"><g><path fill="none" stroke="none"/><text fill="#000000" font-family="Arial" font-size="13px" font-style="normal" font-weight="normal" stroke="none" text-decoration="none" x="28.5" y="407">(from Model1)</text></g></g><g transform="translate(10,-246) scale(1,1)"><path d="M 31.21208469460227 529.6800000000001 C 31.21208469460227 524.8861679360001 35.097927019547726 521 39.891357421875 521 C 44.684787824202274 521 48.57063014914773 524.8861679360001 48.57063014914773 529.6800000000001 C 48.57063014914773 534.473832064 44.684787824202274 538.36 39.891357421875 538.36 C 35.097927019547726 538.36 31.21208469460227 534.473832064 31.21208469460227 529.6800000000001 Z" fill="#ffffff" stroke="none"/></g><g transform="translate(10,-246) scale(1,1)"><path d="M 31.21208469460227 529.6800000000001 C 31.21208469460227 524.8861679360001 35.097927019547726 521 39.891357421875 521 C 44.684787824202274 521 48.57063014914773 524.8861679360001 48.57063014914773 529.6800000000001 C 48.57063014914773 534.473832064 44.684787824202274 538.36 39.891357421875 538.36 C 35.097927019547726 538.36 31.21208469460227 534.473832064 31.21208469460227 529.6800000000001 Z" fill="none" stroke="#000000" stroke-miterlimit="10"/></g><g transform="translate(10,-246) scale(1,1)"><path d="M 39.891357421875 538.36 L 39.891357421875 555.64" fill="none" stroke="#000000" stroke-miterlimit="10"/></g><g transform="translate(10,-246) scale(1,1)"><path d="M 30.701539240056817 544.84 L 49.08117560369318 544.84" fill="none" stroke="#000000" stroke-miterlimit="10"/></g><g transform="translate(10,-246) scale(1,1)"><path d="M 39.891357421875 555.64 L 27.127721058238635 573" fill="none" stroke="#000000" stroke-miterlimit="10"/></g><g transform="translate(10,-246) scale(1,1)"><path d="M 39.891357421875 555.64 L 52.654993785511365 573" fill="none" stroke="#000000" stroke-miterlimit="10"/></g><g transform="translate(10,-246) scale(1,1)"><g><path fill="none" stroke="none"/><text fill="#000000" font-family="Arial" font-size="13px" font-style="normal" font-weight="bold" stroke="none" text-decoration="none" x="4.5" y="592">Dipendente</text></g></g><g transform="translate(10,-246) scale(1,1)"><path d="M 45 519 L 61 415" fill="none" stroke="#000000" stroke-miterlimit="10"/></g><g transform="translate(10,-246) scale(1,1)"><path d="M 66.23052097493058 436.369175237496 L 61 415 L 49.58824813171483 433.80882556930896" fill="#FFFFFF" stroke="none"/></g><g transform="translate(10,-246) scale(1,1)"><path d="M 66.23052097493058 436.369175237496 L 61 415 L 49.58824813171483 433.80882556930896 L 66.23052097493058 436.369175237496" fill="none" stroke="#000000" stroke-miterlimit="10"/></g><g transform="translate(10,-246) scale(1,1)"><path d="M 96.40935031960227 633.6800000000001 C 96.40935031960227 628.8861679360001 100.29519264454773 625 105.088623046875 625 C 109.88205344920227 625 113.76789577414773 628.8861679360001 113.76789577414773 633.6800000000001 C 113.76789577414773 638.473832064 109.88205344920227 642.36 105.088623046875 642.36 C 100.29519264454773 642.36 96.40935031960227 638.473832064 96.40935031960227 633.6800000000001 Z" fill="#ffffff" stroke="none"/></g><g transform="translate(10,-246) scale(1,1)"><path d="M 96.40935031960227 633.6800000000001 C 96.40935031960227 628.8861679360001 100.29519264454773 625 105.088623046875 625 C 109.88205344920227 625 113.76789577414773 628.8861679360001 113.76789577414773 633.6800000000001 C 113.76789577414773 638.473832064 109.88205344920227 642.36 105.088623046875 642.36 C 100.29519264454773 642.36 96.40935031960227 638.473832064 96.40935031960227 633.6800000000001 Z" fill="none" stroke="#000000" stroke-miterlimit="10"/></g><g transform="translate(10,-246) scale(1,1)"><path d="M 105.088623046875 642.36 L 105.088623046875 659.64" fill="none" stroke="#000000" stroke-miterlimit="10"/></g><g transform="translate(10,-246) scale(1,1)"><path d="M 95.89880486505682 648.84 L 114.27844122869318 648.84" fill="none" stroke="#000000" stroke-miterlimit="10"/></g><g transform="translate(10,-246) scale(1,1)"><path d="M 105.088623046875 659.64 L 92.32498668323863 677" fill="none" stroke="#000000" stroke-miterlimit="10"/></g><g transform="translate(10,-246) scale(1,1)"><path d="M 105.088623046875 659.64 L 117.85225941051137 677" fill="none" stroke="#000000" stroke-miterlimit="10"/></g><g transform="translate(10,-246) scale(1,1)"><g><path fill="none" stroke="none"/><text fill="#000000" font-family="Arial" font-size="13px" font-style="normal" font-weight="bold" stroke="none" text-decoration="none" x="84.8681640625" y="696">Admin</text></g></g><g transform="translate(10,-246) scale(1,1)"><path d="M 100 623 L 74 415" fill="none" stroke="#000000" stroke-miterlimit="10"/></g><g transform="translate(10,-246) scale(1,1)"><path d="M 84.87507203921972 434.12414202367734 L 74 415 L 68.16702667550761 436.21264769414137" fill="#FFFFFF" stroke="none"/></g><g transform="translate(10,-246) scale(1,1)"><path d="M 84.87507203921972 434.12414202367734 L 74 415 L 68.16702667550761 436.21264769414137 L 84.87507203921972 434.12414202367734" fill="none" stroke="#000000" stroke-miterlimit="10"/></g><g transform="translate(10,-246) scale(1,1)"><path d="M 271 611 C 271 591.1177472 315.5476624 575 370.5 575 C 425.4523376 575 470 591.1177472 470 611 C 470 630.8822528 425.4523376 647 370.5 647 C 315.5476624 647 271 630.8822528 271 611 Z" fill="#C0C0C0" opacity="0.2" stroke="none"/></g><g transform="translate(10,-246) scale(1,1)"><path d="M 264 604 C 264 584.1177472 308.5476624 568 363.5 568 C 418.4523376 568 463 584.1177472 463 604 C 463 623.8822528 418.4523376 640 363.5 640 C 308.5476624 640 264 623.8822528 264 604 Z" fill="#ffffff" stroke="none"/></g><g transform="translate(10,-246) scale(1,1)"><path d="M 264 604 C 264 584.1177472 308.5476624 568 363.5 568 C 418.4523376 568 463 584.1177472 463 604 C 463 623.8822528 418.4523376 640 363.5 640 C 308.5476624 640 264 623.8822528 264 604 Z" fill="none" stroke="#000000" stroke-miterlimit="10"/></g><g transform="translate(10,-246) scale(1,1)"><g><path fill="none" stroke="none"/><text fill="#000000" font-family="Arial" font-size="13px" font-style="normal" font-weight="bold" stroke="none" text-decoration="none" x="297.7763671875" y="609.5">Acquisto da fornitore</text></g></g><g transform="translate(10,-246) scale(1,1)"><path d="M 81 565 L 263 590" fill="none" stroke="#000000" stroke-miterlimit="10"/></g><g transform="translate(10,-246) scale(1,1)"><path d="M 131 657 L 263 627" fill="none" stroke="#000000" stroke-miterlimit="10"/></g><g transform="translate(10,-246) scale(1,1)"><path d="M 351 855 C 351 837.3268864 373.6096176 823 401.5 823 C 429.3903824 823 452 837.3268864 452 855 C 452 872.6731136 429.3903824 887 401.5 887 C 373.6096176 887 351 872.6731136 351 855 Z" fill="#C0C0C0" opacity="0.2" stroke="none"/></g><g transform="translate(10,-246) scale(1,1)"><path d="M 344 848 C 344 830.3268864 366.6096176 816 394.5 816 C 422.3903824 816 445 830.3268864 445 848 C 445 865.6731136 422.3903824 880 394.5 880 C 366.6096176 880 344 865.6731136 344 848 Z" fill="#ffffff" stroke="none"/></g><g transform="translate(10,-246) scale(1,1)"><path d="M 344 848 C 344 830.3268864 366.6096176 816 394.5 816 C 422.3903824 816 445 830.3268864 445 848 C 445 865.6731136 422.3903824 880 394.5 880 C 366.6096176 880 344 865.6731136 344 848 Z" fill="none" stroke="#000000" stroke-miterlimit="10"/></g><g transform="translate(10,-246) scale(1,1)"><g><path fill="none" stroke="none"/><text fill="#000000" font-family="Arial" font-size="13px" font-style="normal" font-weight="bold" stroke="none" text-decoration="none" x="366.091064453125" y="853.5">Time-Out</text></g></g><g transform="translate(10,-246) scale(1,1)"><path d="M 390 815 L 368 641" fill="none" stroke="#000000" stroke-dasharray="3" stroke-miterlimit="10"/></g><g transform="translate(10,-246) scale(1,1)"><path d="M 373.4510554198268 650.5543704559734 L 368 641 L 365.098518112596 651.6104383913704" fill="none" stroke="#000000" stroke-miterlimit="10"/></g><g transform="translate(10,-246) scale(1,1)"><g><path fill="none" stroke="none"/><text fill="#000000" font-family="Arial" font-size="13px" font-style="normal" font-weight="normal" stroke="none" text-decoration="none" x="322.5" y="736">«extend»</text></g></g><g transform="translate(10,-246) scale(1,1)"><path d="M 511 823 C 511 809.7451648 562.9349632 799 627 799 C 691.0650368 799 743 809.7451648 743 823 C 743 836.2548352 691.0650368 847 627 847 C 562.9349632 847 511 836.2548352 511 823 Z" fill="#C0C0C0" opacity="0.2" stroke="none"/></g><g transform="translate(10,-246) scale(1,1)"><path d="M 504 816 C 504 802.7451648 555.9349632 792 620 792 C 684.0650368 792 736 802.7451648 736 816 C 736 829.2548352 684.0650368 840 620 840 C 555.9349632 840 504 829.2548352 504 816 Z" fill="#ffffff" stroke="none"/></g><g transform="translate(10,-246) scale(1,1)"><path d="M 504 816 C 504 802.7451648 555.9349632 792 620 792 C 684.0650368 792 736 802.7451648 736 816 C 736 829.2548352 684.0650368 840 620 840 C 555.9349632 840 504 829.2548352 504 816 Z" fill="none" stroke="#000000" stroke-miterlimit="10"/></g><g transform="translate(10,-246) scale(1,1)"><g><path fill="none" stroke="none"/><text fill="#000000" font-family="Arial" font-size="13px" font-style="normal" font-weight="bold" stroke="none" text-decoration="none" x="552.825927734375" y="821.5">Articolo non presente</text></g></g><g transform="translate(10,-246) scale(1,1)"><path d="M 590 791 L 408 641" fill="none" stroke="#000000" stroke-dasharray="3" stroke-miterlimit="10"/></g><g transform="translate(10,-246) scale(1,1)"><path d="M 418.5196597470125 644.2150830171372 L 408 641 L 413.16511573939226 650.7119297463831" fill="none" stroke="#000000" stroke-miterlimit="10"/></g><g transform="translate(10,-246) scale(1,1)"><g><path fill="none" stroke="none"/><text fill="#000000" font-family="Arial" font-size="13px" font-style="normal" font-weight="normal" stroke="none" text-decoration="none" x="452.5" y="744">«extend»</text></g></g><g transform="translate(10,-246) scale(1,1)"><path d="M 383 383 C 383 365.3268864 436.2781088 351 502 351 C 567.7218912 351 621 365.3268864 621 383 C 621 400.6731136 567.7218912 415 502 415 C 436.2781088 415 383 400.6731136 383 383 Z" fill="#C0C0C0" opacity="0.2" stroke="none"/></g><g transform="translate(10,-246) scale(1,1)"><path d="M 376 376 C 376 358.3268864 429.2781088 344 495 344 C 560.7218912 344 614 358.3268864 614 376 C 614 393.6731136 560.7218912 408 495 408 C 429.2781088 408 376 393.6731136 376 376 Z" fill="#ffffff" stroke="none"/></g><g transform="translate(10,-246) scale(1,1)"><path d="M 376 376 C 376 358.3268864 429.2781088 344 495 344 C 560.7218912 344 614 358.3268864 614 376 C 614 393.6731136 560.7218912 408 495 408 C 429.2781088 408 376 393.6731136 376 376 Z" fill="none" stroke="#000000" stroke-miterlimit="10"/></g><g transform="translate(10,-246) scale(1,1)"><g><path fill="none" stroke="none"/><text fill="#000000" font-family="Arial" font-size="13px" font-style="normal" font-weight="bold" stroke="none" text-decoration="none" x="415.175048828125" y="381.5">Cancellazione pagamento</text></g></g><g transform="translate(10,-246) scale(1,1)"><path d="M 476 409 L 384 567" fill="none" stroke="#000000" stroke-dasharray="3" stroke-miterlimit="10"/></g><g transform="translate(10,-246) scale(1,1)"><path d="M 385.4760021526439 556.099476267381 L 384 567 L 392.75152538100025 560.3358568813607" fill="none" stroke="#000000" stroke-miterlimit="10"/></g><g transform="translate(10,-246) scale(1,1)"><g><path fill="none" stroke="none"/><text fill="#000000" font-family="Arial" font-size="13px" font-style="normal" font-weight="normal" stroke="none" text-decoration="none" x="428.5" y="508">«extend»</text></g></g><g transform="translate(10,-246) scale(1,1)"><path d="M 615 619 C 615 603.5360256 653.9512224 591 702 591 C 750.0487776 591 789 603.5360256 789 619 C 789 634.4639744 750.0487776 647 702 647 C 653.9512224 647 615 634.4639744 615 619 Z" fill="#C0C0C0" opacity="0.2" stroke="none"/></g><g transform="translate(10,-246) scale(1,1)"><path d="M 608 612 C 608 596.5360256 646.9512224 584 695 584 C 743.0487776 584 782 596.5360256 782 612 C 782 627.4639744 743.0487776 640 695 640 C 646.9512224 640 608 627.4639744 608 612 Z" fill="#ffffff" stroke="none"/></g><g transform="translate(10,-246) scale(1,1)"><path d="M 608 612 C 608 596.5360256 646.9512224 584 695 584 C 743.0487776 584 782 596.5360256 782 612 C 782 627.4639744 743.0487776 640 695 640 C 646.9512224 640 608 627.4639744 608 612 Z" fill="none" stroke="#000000" stroke-miterlimit="10"/></g><g transform="translate(10,-246) scale(1,1)"><g><path fill="none" stroke="none"/><text fill="#000000" font-family="Arial" font-size="13px" font-style="normal" font-weight="bold" stroke="none" text-decoration="none" x="637.9345703125" y="617.5">Pagamento Utente</text></g></g><g transform="translate(10,-246) scale(1,1)"><path d="M 464 606 L 607 610" fill="none" stroke="#000000" stroke-dasharray="3" stroke-miterlimit="10"/></g><g transform="translate(10,-246) scale(1,1)"><path d="M 596.723595913627 613.9237124070931 L 607 610 L 596.9590013338312 605.5079686347939" fill="none" stroke="#000000" stroke-miterlimit="10"/></g><g transform="translate(10,-246) scale(1,1)"><g><path fill="none" stroke="none"/><text fill="#000000" font-family="Arial" font-size="13px" font-style="normal" font-weight="normal" stroke="none" text-decoration="none" x="507.5" y="583">«include»</text></g></g><g transform="translate(10,-246) scale(1,1)"><path d="M 719 760 C 719 750.6111584 757.2796496 743 804.5 743 C 851.7203504 743 890 750.6111584 890 760 C 890 769.3888416 851.7203504 777 804.5 777 C 757.2796496 777 719 769.3888416 719 760 Z" fill="#C0C0C0" opacity="0.2" stroke="none"/></g><g transform="translate(10,-246) scale(1,1)"><path d="M 712 753 C 712 743.6111584 750.2796496 736 797.5 736 C 844.7203504 736 883 743.6111584 883 753 C 883 762.3888416 844.7203504 770 797.5 770 C 750.2796496 770 712 762.3888416 712 753 Z" fill="#ffffff" stroke="none"/></g><g transform="translate(10,-246) scale(1,1)"><path d="M 712 753 C 712 743.6111584 750.2796496 736 797.5 736 C 844.7203504 736 883 743.6111584 883 753 C 883 762.3888416 844.7203504 770 797.5 770 C 750.2796496 770 712 762.3888416 712 753 Z" fill="none" stroke="#000000" stroke-miterlimit="10"/></g><g transform="translate(10,-246) scale(1,1)"><g><path fill="none" stroke="none"/><text fill="#000000" font-family="Arial" font-size="13px" font-style="normal" font-weight="bold" stroke="none" text-decoration="none" x="741.513671875" y="758.5">Errore pagamento</text></g></g><g transform="translate(10,-246) scale(1,1)"><path d="M 784 735 L 716 641" fill="none" stroke="#000000" stroke-dasharray="3" stroke-miterlimit="10"/></g><g transform="translate(10,-246) scale(1,1)"><path d="M 725.3671988616884 646.7667656000209 L 716 641 L 718.5458907745347 651.7013288971108" fill="none" stroke="#000000" stroke-miterlimit="10"/></g><g transform="translate(10,-246) scale(1,1)"><g><path fill="none" stroke="none"/><text fill="#000000" font-family="Arial" font-size="13px" font-style="normal" font-weight="normal" stroke="none" text-decoration="none" x="698.5" y="710">«extend»</text></g></g></g></svg>