<?xml version="1.0" encoding="UTF-8" standalone="no"?><svg xmlns="http://www.w3.org/2000/svg" xmlns:xlink="http://www.w3.org/1999/xlink" height="813" version="1.1" width="1491"><defs/><g><g transform="translate(-22,10) scale(1,1)"><rect fill="#ffffff" height="21" stroke="none" width="247" x="32" y="0"/></g><g transform="translate(-22,10) scale(1,1)"><path d="M 32 0 L 279 0 L 279 21 L 32 21 L 32 0 Z Z" fill="none" stroke="#000000" stroke-miterlimit="10" stroke-width="2"/></g><g transform="translate(-22,10) scale(1,1)"><path d="M 32 704 L 32 0 L 279 0 L 279 704" fill="none" stroke="#000000" stroke-miterlimit="10" stroke-width="2"/></g><g transform="translate(-22,10) scale(1,1)"><g><path fill="none" stroke="none"/><text fill="#000000" font-family="Arial" font-size="13px" font-style="normal" font-weight="normal" stroke="none" text-decoration="none" x="136.34912109375" y="14">Utente</text></g></g><g transform="translate(-22,10) scale(1,1)"><rect fill="#ffffff" height="21" stroke="none" width="360" x="280" y="0"/></g><g transform="translate(-22,10) scale(1,1)"><path d="M 280 0 L 640 0 L 640 21 L 280 21 L 280 0 Z Z" fill="none" stroke="#000000" stroke-miterlimit="10" stroke-width="2"/></g><g transform="translate(-22,10) scale(1,1)"><path d="M 280 704 L 280 0 L 640 0 L 640 704" fill="none" stroke="#000000" stroke-miterlimit="10" stroke-width="2"/></g><g transform="translate(-22,10) scale(1,1)"><g><path fill="none" stroke="none"/><text fill="#000000" font-family="Arial" font-size="13px" font-style="normal" font-weight="normal" stroke="none" text-decoration="none" x="430.734130859375" y="14">GUI Login</text></g></g><g transform="translate(-22,10) scale(1,1)"><rect fill="#ffffff" height="21" stroke="none" width="488" x="640" y="0"/></g><g transform="translate(-22,10) scale(1,1)"><path d="M 640 0 L 1128 0 L 1128 21 L 640 21 L 640 0 Z Z" fill="none" stroke="#000000" stroke-miterlimit="10" stroke-width="2"/></g><g transform="translate(-22,10) scale(1,1)"><path d="M 640 712 L 640 0 L 1128 0 L 1128 712" fill="none" stroke="#000000" stroke-miterlimit="10" stroke-width="2"/></g><g transform="translate(-22,10) scale(1,1)"><g><path fill="none" stroke="none"/><text fill="#000000" font-family="Arial" font-size="13px" font-style="normal" font-weight="normal" stroke="none" text-decoration="none" x="839.195068359375" y="14">ManagerUtente</text></g></g><g transform="translate(-22,10) scale(1,1)"><path d="M 151 56.5 C 151 51.2532944 155.2532944 47 160.5 47 C 165.7467056 47 170 51.2532944 170 56.5 C 170 61.7467056 165.7467056 66 160.5 66 C 155.2532944 66 151 61.7467056 151 56.5 Z" fill="#C0C0C0" opacity="0.2" stroke="none"/></g><g transform="translate(-22,10) scale(1,1)"><path d="M 144 49.5 C 144 44.2532944 148.2532944 40 153.5 40 C 158.7467056 40 163 44.2532944 163 49.5 C 163 54.7467056 158.7467056 59 153.5 59 C 148.2532944 59 144 54.7467056 144 49.5 Z" fill="#000000" stroke="none"/></g><g transform="translate(-22,10) scale(1,1)"><path d="M 97 103 L 220.33544921875 103 Q 230.33544921875 103 230.33544921875 113 L 230.33544921875 133 Q 230.33544921875 143 220.33544921875 143 L 97 143 Q 87 143 87 133 L 87 113 Q 87 103 97 103 Z" fill="#C0C0C0" opacity="0.2" stroke="none"/></g><g transform="translate(-22,10) scale(1,1)"><path d="M 90 96 L 213.33544921875 96 Q 223.33544921875 96 223.33544921875 106 L 223.33544921875 126 Q 223.33544921875 136 213.33544921875 136 L 90 136 Q 80 136 80 126 L 80 106 Q 80 96 90 96 Z" fill="#ffffff" stroke="none"/></g><g transform="translate(-22,10) scale(1,1)"><path d="M 90 96 L 213.33544921875 96 Q 223.33544921875 96 223.33544921875 106 L 223.33544921875 126 Q 223.33544921875 136 213.33544921875 136 L 90 136 Q 80 136 80 126 L 80 106 Q 80 96 90 96 Z" fill="none" stroke="#000000" stroke-miterlimit="10"/></g><g transform="translate(-22,10) scale(1,1)"><g><path fill="none" stroke="none"/><text fill="#000000" font-family="Arial" font-size="13px" font-style="normal" font-weight="bold" stroke="none" text-decoration="none" x="84.5" y="114">Interazione con Login</text></g></g><g transform="translate(-22,10) scale(1,1)"><path d="M 223 116 L 320 116" fill="none" stroke="#000000" stroke-miterlimit="10"/></g><g transform="translate(-22,10) scale(1,1)"><path d="M 309.83732514237585 120.20951775601598 L 320 116 L 309.83732514237585 111.79048224398402" fill="none" stroke="#000000" stroke-miterlimit="10"/></g><g transform="translate(-22,10) scale(1,1)"><path d="M 337 103 L 513.84619140625 103 Q 523.84619140625 103 523.84619140625 113 L 523.84619140625 133 Q 523.84619140625 143 513.84619140625 143 L 337 143 Q 327 143 327 133 L 327 113 Q 327 103 337 103 Z" fill="#C0C0C0" opacity="0.2" stroke="none"/></g><g transform="translate(-22,10) scale(1,1)"><path d="M 330 96 L 506.84619140625 96 Q 516.84619140625 96 516.84619140625 106 L 516.84619140625 126 Q 516.84619140625 136 506.84619140625 136 L 330 136 Q 320 136 320 126 L 320 106 Q 320 96 330 96 Z" fill="#ffffff" stroke="none"/></g><g transform="translate(-22,10) scale(1,1)"><path d="M 330 96 L 506.84619140625 96 Q 516.84619140625 96 516.84619140625 106 L 516.84619140625 126 Q 516.84619140625 136 506.84619140625 136 L 330 136 Q 320 136 320 126 L 320 106 Q 320 96 330 96 Z" fill="none" stroke="#000000" stroke-miterlimit="10"/></g><g transform="translate(-22,10) scale(1,1)"><g><path fill="none" stroke="none"/><text fill="#000000" font-family="Arial" font-size="13px" font-style="normal" font-weight="bold" stroke="none" text-decoration="none" x="343.298583984375" y="114">Mostra Interfaccia Login</text></g></g><g transform="translate(-22,10) scale(1,1)"><path d="M 417 136 L 417 200" fill="none" stroke="#000000" stroke-miterlimit="10"/></g><g transform="translate(-22,10) scale(1,1)"><path d="M 412.790482243984 189.83732514237585 L 417 200 L 421.209517756016 189.83732514237585" fill="none" stroke="#000000" stroke-miterlimit="10"/></g><g transform="translate(-22,10) scale(1,1)"><path d="M 353 207 L 489.36083984375 207 Q 499.36083984375 207 499.36083984375 217 L 499.36083984375 237 Q 499.36083984375 247 489.36083984375 247 L 353 247 Q 343 247 343 237 L 343 217 Q 343 207 353 207 Z" fill="#C0C0C0" opacity="0.2" stroke="none"/></g><g transform="translate(-22,10) scale(1,1)"><path d="M 346 200 L 482.36083984375 200 Q 492.36083984375 200 492.36083984375 210 L 492.36083984375 230 Q 492.36083984375 240 482.36083984375 240 L 346 240 Q 336 240 336 230 L 336 210 Q 336 200 346 200 Z" fill="#ffffff" stroke="none"/></g><g transform="translate(-22,10) scale(1,1)"><path d="M 346 200 L 482.36083984375 200 Q 492.36083984375 200 492.36083984375 210 L 492.36083984375 230 Q 492.36083984375 240 482.36083984375 240 L 346 240 Q 336 240 336 230 L 336 210 Q 336 200 346 200 Z" fill="none" stroke="#000000" stroke-miterlimit="10"/></g><g transform="translate(-22,10) scale(1,1)"><g><path fill="none" stroke="none"/><text fill="#000000" font-family="Arial" font-size="13px" font-style="normal" font-weight="bold" stroke="none" text-decoration="none" x="340.5" y="218">Chiede inserimento dati</text></g></g><g transform="translate(-22,10) scale(1,1)"><path d="M 336 220 L 245 220" fill="none" stroke="#000000" stroke-miterlimit="10"/></g><g transform="translate(-22,10) scale(1,1)"><path d="M 255.16267485762415 215.790482243984 L 245 220 L 255.16267485762415 224.209517756016" fill="none" stroke="#000000" stroke-miterlimit="10"/></g><g transform="translate(-22,10) scale(1,1)"><path d="M 65 207 L 241.84619140625 207 Q 251.84619140625 207 251.84619140625 217 L 251.84619140625 237 Q 251.84619140625 247 241.84619140625 247 L 65 247 Q 55 247 55 237 L 55 217 Q 55 207 65 207 Z" fill="#C0C0C0" opacity="0.2" stroke="none"/></g><g transform="translate(-22,10) scale(1,1)"><path d="M 58 200 L 234.84619140625 200 Q 244.84619140625 200 244.84619140625 210 L 244.84619140625 230 Q 244.84619140625 240 234.84619140625 240 L 58 240 Q 48 240 48 230 L 48 210 Q 48 200 58 200 Z" fill="#ffffff" stroke="none"/></g><g transform="translate(-22,10) scale(1,1)"><path d="M 58 200 L 234.84619140625 200 Q 244.84619140625 200 244.84619140625 210 L 244.84619140625 230 Q 244.84619140625 240 234.84619140625 240 L 58 240 Q 48 240 48 230 L 48 210 Q 48 200 58 200 Z" fill="none" stroke="#000000" stroke-miterlimit="10"/></g><g transform="translate(-22,10) scale(1,1)"><g><path fill="none" stroke="none"/><text fill="#000000" font-family="Arial" font-size="13px" font-style="normal" font-weight="bold" stroke="none" text-decoration="none" x="52.5" y="218">Inserimento Email e Password</text></g></g><g transform="translate(-22,10) scale(1,1)"><path d="M 73 311 L 238.99169921875 311 Q 248.99169921875 311 248.99169921875 321 L 248.99169921875 341 Q 248.99169921875 351 238.99169921875 351 L 73 351 Q 63 351 63 341 L 63 321 Q 63 311 73 311 Z" fill="#C0C0C0" opacity="0.2" stroke="none"/></g><g transform="translate(-22,10) scale(1,1)"><path d="M 66 304 L 231.99169921875 304 Q 241.99169921875 304 241.99169921875 314 L 241.99169921875 334 Q 241.99169921875 344 231.99169921875 344 L 66 344 Q 56 344 56 334 L 56 314 Q 56 304 66 304 Z" fill="#ffffff" stroke="none"/></g><g transform="translate(-22,10) scale(1,1)"><path d="M 66 304 L 231.99169921875 304 Q 241.99169921875 304 241.99169921875 314 L 241.99169921875 334 Q 241.99169921875 344 231.99169921875 344 L 66 344 Q 56 344 56 334 L 56 314 Q 56 304 66 304 Z" fill="none" stroke="#000000" stroke-miterlimit="10"/></g><g transform="translate(-22,10) scale(1,1)"><g><path fill="none" stroke="none"/><text fill="#000000" font-family="Arial" font-size="13px" font-style="normal" font-weight="bold" stroke="none" text-decoration="none" x="60.5" y="322">Conferma a schermo ENTER</text></g></g><g transform="translate(-22,10) scale(1,1)"><path d="M 146 240 L 146 304" fill="none" stroke="#000000" stroke-miterlimit="10"/></g><g transform="translate(-22,10) scale(1,1)"><path d="M 141.790482243984 293.83732514237585 L 146 304 L 150.209517756016 293.83732514237585" fill="none" stroke="#000000" stroke-miterlimit="10"/></g><g transform="translate(-22,10) scale(1,1)"><path d="M 242 324 L 840 324" fill="none" stroke="#000000" stroke-miterlimit="10"/></g><g transform="translate(-22,10) scale(1,1)"><path d="M 829.8373251423759 328.209517756016 L 840 324 L 829.8373251423758 319.790482243984" fill="none" stroke="#000000" stroke-miterlimit="10"/></g><g transform="translate(-22,10) scale(1,1)"><path d="M 857 311 L 978.1708984375 311 Q 988.1708984375 311 988.1708984375 321 L 988.1708984375 341 Q 988.1708984375 351 978.1708984375 351 L 857 351 Q 847 351 847 341 L 847 321 Q 847 311 857 311 Z" fill="#C0C0C0" opacity="0.2" stroke="none"/></g><g transform="translate(-22,10) scale(1,1)"><path d="M 850 304 L 971.1708984375 304 Q 981.1708984375 304 981.1708984375 314 L 981.1708984375 334 Q 981.1708984375 344 971.1708984375 344 L 850 344 Q 840 344 840 334 L 840 314 Q 840 304 850 304 Z" fill="#ffffff" stroke="none"/></g><g transform="translate(-22,10) scale(1,1)"><path d="M 850 304 L 971.1708984375 304 Q 981.1708984375 304 981.1708984375 314 L 981.1708984375 334 Q 981.1708984375 344 971.1708984375 344 L 850 344 Q 840 344 840 334 L 840 314 Q 840 304 850 304 Z" fill="none" stroke="#000000" stroke-miterlimit="10"/></g><g transform="translate(-22,10) scale(1,1)"><g><path fill="none" stroke="none"/><text fill="#000000" font-family="Arial" font-size="13px" font-style="normal" font-weight="bold" stroke="none" text-decoration="none" x="844.5" y="322">Controllo Dati inseriti</text></g></g><g transform="translate(-22,10) scale(1,1)"><path d="M 906 344 L 906 376" fill="none" stroke="#000000" stroke-miterlimit="10"/></g><g transform="translate(-22,10) scale(1,1)"><path d="M 901.790482243984 365.83732514237585 L 906 376 L 910.209517756016 365.83732514237585" fill="none" stroke="#000000" stroke-miterlimit="10"/></g><g transform="translate(-22,10) scale(1,1)"><path d="M 904 394 L 904 452 L 883 452" fill="none" stroke="#000000" stroke-miterlimit="10"/></g><g transform="translate(-22,10) scale(1,1)"><path d="M 893.1626748576241 447.790482243984 L 883 452 L 893.1626748576241 456.209517756016" fill="none" stroke="#000000" stroke-miterlimit="10"/></g><g transform="translate(-22,10) scale(1,1)"><g><path fill="none" stroke="none"/><text fill="#000000" font-family="Arial" font-size="13px" font-style="normal" font-weight="normal" stroke="none" text-decoration="none" x="910.23291015625" y="479">DATI VALIDI</text></g></g><g transform="translate(-22,10) scale(1,1)"><path d="M 896 385 L 517 385" fill="none" stroke="#000000" stroke-miterlimit="10"/></g><g transform="translate(-22,10) scale(1,1)"><path d="M 527.1626748576241 380.790482243984 L 517 385 L 527.1626748576241 389.209517756016" fill="none" stroke="#000000" stroke-miterlimit="10"/></g><g transform="translate(-22,10) scale(1,1)"><g><path fill="none" stroke="none"/><text fill="#000000" font-family="Arial" font-size="13px" font-style="normal" font-weight="normal" stroke="none" text-decoration="none" x="650.14111328125" y="372">ALMENO UN DATO INVALIDO</text></g></g><g transform="translate(-22,10) scale(1,1)"><path d="M 903 392.5 L 914.5 383 L 925 392.5 L 914.5 401 L 903 392.5" fill="#C0C0C0" opacity="0.2" stroke="none"/></g><g transform="translate(-22,10) scale(1,1)"><path d="M 896 385 L 907 376 L 918 385 L 907 394 L 896 385" fill="#ffffff" stroke="none"/></g><g transform="translate(-22,10) scale(1,1)"><path d="M 896 385 L 907 376 L 918 385 L 907 394 L 896 385 L 896 385" fill="none" stroke="#000000" stroke-miterlimit="10"/></g><g transform="translate(-22,10) scale(1,1)"><path d="M 656 452 L 573 452" fill="none" stroke="#000000" stroke-miterlimit="10"/></g><g transform="translate(-22,10) scale(1,1)"><path d="M 583.1626748576241 447.790482243984 L 573 452 L 583.1626748576241 456.209517756016" fill="none" stroke="#000000" stroke-miterlimit="10"/></g><g transform="translate(-22,10) scale(1,1)"><path d="M 337 439 L 570.14990234375 439 Q 580.14990234375 439 580.14990234375 449 L 580.14990234375 469 Q 580.14990234375 479 570.14990234375 479 L 337 479 Q 327 479 327 469 L 327 449 Q 327 439 337 439 Z" fill="#C0C0C0" opacity="0.2" stroke="none"/></g><g transform="translate(-22,10) scale(1,1)"><path d="M 330 432 L 563.14990234375 432 Q 573.14990234375 432 573.14990234375 442 L 573.14990234375 462 Q 573.14990234375 472 563.14990234375 472 L 330 472 Q 320 472 320 462 L 320 442 Q 320 432 330 432 Z" fill="#ffffff" stroke="none"/></g><g transform="translate(-22,10) scale(1,1)"><path d="M 330 432 L 563.14990234375 432 Q 573.14990234375 432 573.14990234375 442 L 573.14990234375 462 Q 573.14990234375 472 563.14990234375 472 L 330 472 Q 320 472 320 462 L 320 442 Q 320 432 330 432 Z" fill="none" stroke="#000000" stroke-miterlimit="10"/></g><g transform="translate(-22,10) scale(1,1)"><g><path fill="none" stroke="none"/><text fill="#000000" font-family="Arial" font-size="13px" font-style="normal" font-weight="bold" stroke="none" text-decoration="none" x="324.5" y="450">Messaggio di conferma avvenuto Login</text></g></g><g transform="translate(-22,10) scale(1,1)"><path d="M 673 439 L 880.12451171875 439 Q 890.12451171875 439 890.12451171875 449 L 890.12451171875 469 Q 890.12451171875 479 880.12451171875 479 L 673 479 Q 663 479 663 469 L 663 449 Q 663 439 673 439 Z" fill="#C0C0C0" opacity="0.2" stroke="none"/></g><g transform="translate(-22,10) scale(1,1)"><path d="M 666 432 L 873.12451171875 432 Q 883.12451171875 432 883.12451171875 442 L 883.12451171875 462 Q 883.12451171875 472 873.12451171875 472 L 666 472 Q 656 472 656 462 L 656 442 Q 656 432 666 432 Z" fill="#ffffff" stroke="none"/></g><g transform="translate(-22,10) scale(1,1)"><path d="M 666 432 L 873.12451171875 432 Q 883.12451171875 432 883.12451171875 442 L 883.12451171875 462 Q 883.12451171875 472 873.12451171875 472 L 666 472 Q 656 472 656 462 L 656 442 Q 656 432 666 432 Z" fill="none" stroke="#000000" stroke-miterlimit="10"/></g><g transform="translate(-22,10) scale(1,1)"><g><path fill="none" stroke="none"/><text fill="#000000" font-family="Arial" font-size="13px" font-style="normal" font-weight="bold" stroke="none" text-decoration="none" x="660.5" y="450">Aggiornamento utente e lista utenti</text></g></g><g transform="translate(-22,10) scale(1,1)"><path d="M 401 367 L 513.5380859375 367 Q 523.5380859375 367 523.5380859375 377 L 523.5380859375 397 Q 523.5380859375 407 513.5380859375 407 L 401 407 Q 391 407 391 397 L 391 377 Q 391 367 401 367 Z" fill="#C0C0C0" opacity="0.2" stroke="none"/></g><g transform="translate(-22,10) scale(1,1)"><path d="M 394 360 L 506.5380859375 360 Q 516.5380859375 360 516.5380859375 370 L 516.5380859375 390 Q 516.5380859375 400 506.5380859375 400 L 394 400 Q 384 400 384 390 L 384 370 Q 384 360 394 360 Z" fill="#ffffff" stroke="none"/></g><g transform="translate(-22,10) scale(1,1)"><path d="M 394 360 L 506.5380859375 360 Q 516.5380859375 360 516.5380859375 370 L 516.5380859375 390 Q 516.5380859375 400 506.5380859375 400 L 394 400 Q 384 400 384 390 L 384 370 Q 384 360 394 360 Z" fill="none" stroke="#000000" stroke-miterlimit="10"/></g><g transform="translate(-22,10) scale(1,1)"><g><path fill="none" stroke="none"/><text fill="#000000" font-family="Arial" font-size="13px" font-style="normal" font-weight="bold" stroke="none" text-decoration="none" x="388.5" y="378">Messaggio di errore</text></g></g><g transform="translate(-22,10) scale(1,1)"><rect fill="#ffffff" height="21" stroke="none" width="375" x="1128" y="0"/></g><g transform="translate(-22,10) scale(1,1)"><path d="M 1128 0 L 1503 0 L 1503 21 L 1128 21 L 1128 0 Z Z" fill="none" stroke="#000000" stroke-miterlimit="10" stroke-width="2"/></g><g transform="translate(-22,10) scale(1,1)"><path d="M 1128 704 L 1128 0 L 1503 0 L 1503 704" fill="none" stroke="#000000" stroke-miterlimit="10" stroke-width="2"/></g><g transform="translate(-22,10) scale(1,1)"><g><path fill="none" stroke="none"/><text fill="#000000" font-family="Arial" font-size="13px" font-style="normal" font-weight="normal" stroke="none" text-decoration="none" x="1273.595947265625" y="14">GUI Principale</text></g></g><g transform="translate(-22,10) scale(1,1)"><path d="M 1257 663 L 1380 663 Q 1390 663 1390 673 L 1390 700 Q 1390 710 1380 710 L 1257 710 Q 1247 710 1247 700 L 1247 673 Q 1247 663 1257 663 Z" fill="#C0C0C0" opacity="0.2" stroke="none"/></g><g transform="translate(-22,10) scale(1,1)"><path d="M 1250 656 L 1373 656 Q 1383 656 1383 666 L 1383 693 Q 1383 703 1373 703 L 1250 703 Q 1240 703 1240 693 L 1240 666 Q 1240 656 1250 656 Z" fill="#ffffff" stroke="none"/></g><g transform="translate(-22,10) scale(1,1)"><path d="M 1250 656 L 1373 656 Q 1383 656 1383 666 L 1383 693 Q 1383 703 1373 703 L 1250 703 Q 1240 703 1240 693 L 1240 666 Q 1240 656 1250 656 Z" fill="none" stroke="#000000" stroke-miterlimit="10"/></g><g transform="translate(-22,10) scale(1,1)"><g><path fill="none" stroke="none"/><text fill="#000000" font-family="Arial" font-size="13px" font-style="normal" font-weight="bold" stroke="none" text-decoration="none" x="1255.1455078125" y="674">Mostra Schermata</text></g></g><g transform="translate(-22,10) scale(1,1)"><path d="M 1303 787.5 C 1303 780.59644 1308.59644 775 1315.5 775 C 1322.40356 775 1328 780.59644 1328 787.5 C 1328 794.40356 1322.40356 800 1315.5 800 C 1308.59644 800 1303 794.40356 1303 787.5 Z" fill="#C0C0C0" opacity="0.2" stroke="none"/></g><g transform="translate(-22,10) scale(1,1)"><path d="M 1296 780.5 C 1296 773.59644 1301.59644 768 1308.5 768 C 1315.40356 768 1321 773.59644 1321 780.5 C 1321 787.40356 1315.40356 793 1308.5 793 C 1301.59644 793 1296 787.40356 1296 780.5 Z" fill="none" stroke="#000000" stroke-miterlimit="10"/></g><g transform="translate(-22,10) scale(1,1)"><path d="M 1301 780.5 C 1301 776.357864 1304.357864 773 1308.5 773 C 1312.642136 773 1316 776.357864 1316 780.5 C 1316 784.642136 1312.642136 788 1308.5 788 C 1304.357864 788 1301 784.642136 1301 780.5 Z" fill="#000000" stroke="none"/></g><g transform="translate(-22,10) scale(1,1)"><path d="M 153 59 L 153 96" fill="none" stroke="#000000" stroke-miterlimit="10"/></g><g transform="translate(-22,10) scale(1,1)"><path d="M 148.790482243984 85.83732514237585 L 153 96 L 157.209517756016 85.83732514237585" fill="none" stroke="#000000" stroke-miterlimit="10"/></g><g transform="translate(-22,10) scale(1,1)"><path d="M 1312 703 L 1312 768" fill="none" stroke="#000000" stroke-miterlimit="10"/></g><g transform="translate(-22,10) scale(1,1)"><path d="M 1307.7904822439841 757.8373251423759 L 1312 768 L 1316.2095177560159 757.8373251423759" fill="none" stroke="#000000" stroke-miterlimit="10"/></g><g transform="translate(-22,10) scale(1,1)"><path d="M 450 360 L 450 336 L 560 336 L 560 64 L 418 64 L 418 96" fill="none" stroke="#000000" stroke-miterlimit="10"/></g><g transform="translate(-22,10) scale(1,1)"><path d="M 413.790482243984 85.83732514237585 L 418 96 L 422.209517756016 85.83732514237585" fill="none" stroke="#000000" stroke-miterlimit="10"/></g><g transform="translate(-22,10) scale(1,1)"><path d="M 526 472 L 526 584 L 1312 584 L 1312 656" fill="none" stroke="#000000" stroke-miterlimit="10"/></g><g transform="translate(-22,10) scale(1,1)"><path d="M 1307.7904822439841 645.8373251423759 L 1312 656 L 1316.2095177560159 645.8373251423759" fill="none" stroke="#000000" stroke-miterlimit="10"/></g></g></svg>