<?xml version="1.0" encoding="UTF-8" standalone="no"?><svg xmlns="http://www.w3.org/2000/svg" xmlns:xlink="http://www.w3.org/1999/xlink" height="791" version="1.1" width="1524"><defs/><g><g transform="translate(-1118,-229) scale(1,1)"><rect fill="#C0C0C0" height="15" opacity="0.2" stroke="none" width="163.20000000000005" x="1695" y="359"/></g><g transform="translate(-1118,-229) scale(1,1)"><rect fill="#C0C0C0" height="242" opacity="0.2" stroke="none" width="408" x="1695" y="373"/></g><g transform="translate(-1118,-229) scale(1,1)"><rect fill="#ffffff" height="241" stroke="none" width="408" x="1688" y="367"/></g><g transform="translate(-1118,-229) scale(1,1)"><path d="M 1688 367 L 2096 367 L 2096 608 L 1688 608 L 1688 367 Z Z" fill="none" stroke="#000000" stroke-miterlimit="10"/></g><g transform="translate(-1118,-229) scale(1,1)"><rect fill="#ffffff" height="15" stroke="none" width="163.20000000000005" x="1688" y="352"/></g><g transform="translate(-1118,-229) scale(1,1)"><path d="M 1688 352 L 1851.2 352 L 1851.2 367 L 1688 367 L 1688 352 Z Z" fill="none" stroke="#000000" stroke-miterlimit="10"/></g><g transform="translate(-1118,-229) scale(1,1)"><rect fill="#ffffff" height="242" stroke="none" width="408" x="1688" y="366"/></g><g transform="translate(-1118,-229) scale(1,1)"><path d="M 1688 366 L 2096 366 L 2096 608 L 1688 608 L 1688 366 Z Z" fill="none" stroke="#000000" stroke-miterlimit="10"/></g><g transform="translate(-1118,-229) scale(1,1)"><g><path fill="none" stroke="none"/><text fill="#000000" font-family="Arial" font-size="13px" font-style="normal" font-weight="bold" stroke="none" text-decoration="none" x="1865.27001953125" y="385">Manager</text></g></g><g transform="translate(-1118,-229) scale(1,1)"><rect fill="#C0C0C0" height="15" opacity="0.2" stroke="none" width="153.5999999999999" x="2247" y="359"/></g><g transform="translate(-1118,-229) scale(1,1)"><rect fill="#C0C0C0" height="241" opacity="0.2" stroke="none" width="384" x="2247" y="373"/></g><g transform="translate(-1118,-229) scale(1,1)"><rect fill="#ffffff" height="240" stroke="none" width="384" x="2240" y="367"/></g><g transform="translate(-1118,-229) scale(1,1)"><path d="M 2240 367 L 2624 367 L 2624 607 L 2240 607 L 2240 367 Z Z" fill="none" stroke="#000000" stroke-miterlimit="10"/></g><g transform="translate(-1118,-229) scale(1,1)"><rect fill="#ffffff" height="15" stroke="none" width="153.5999999999999" x="2240" y="352"/></g><g transform="translate(-1118,-229) scale(1,1)"><path d="M 2240 352 L 2393.6 352 L 2393.6 367 L 2240 367 L 2240 352 Z Z" fill="none" stroke="#000000" stroke-miterlimit="10"/></g><g transform="translate(-1118,-229) scale(1,1)"><rect fill="#ffffff" height="241" stroke="none" width="384" x="2240" y="366"/></g><g transform="translate(-1118,-229) scale(1,1)"><path d="M 2240 366 L 2624 366 L 2624 607 L 2240 607 L 2240 366 Z Z" fill="none" stroke="#000000" stroke-miterlimit="10"/></g><g transform="translate(-1118,-229) scale(1,1)"><g><path fill="none" stroke="none"/><text fill="#000000" font-family="Arial" font-size="13px" font-style="normal" font-weight="bold" stroke="none" text-decoration="none" x="2411.7763671875" y="385">Utente</text></g></g><g transform="translate(-1118,-229) scale(1,1)"><rect fill="#C0C0C0" height="15" opacity="0.2" stroke="none" width="153.5999999999999" x="2255" y="791"/></g><g transform="translate(-1118,-229) scale(1,1)"><rect fill="#C0C0C0" height="210" opacity="0.2" stroke="none" width="384" x="2255" y="805"/></g><g transform="translate(-1118,-229) scale(1,1)"><rect fill="#ffffff" height="209" stroke="none" width="384" x="2248" y="799"/></g><g transform="translate(-1118,-229) scale(1,1)"><path d="M 2248 799 L 2632 799 L 2632 1008 L 2248 1008 L 2248 799 Z Z" fill="none" stroke="#000000" stroke-miterlimit="10"/></g><g transform="translate(-1118,-229) scale(1,1)"><rect fill="#ffffff" height="15" stroke="none" width="153.5999999999999" x="2248" y="784"/></g><g transform="translate(-1118,-229) scale(1,1)"><path d="M 2248 784 L 2401.6 784 L 2401.6 799 L 2248 799 L 2248 784 Z Z" fill="none" stroke="#000000" stroke-miterlimit="10"/></g><g transform="translate(-1118,-229) scale(1,1)"><rect fill="#ffffff" height="210" stroke="none" width="384" x="2248" y="798"/></g><g transform="translate(-1118,-229) scale(1,1)"><path d="M 2248 798 L 2632 798 L 2632 1008 L 2248 1008 L 2248 798 Z Z" fill="none" stroke="#000000" stroke-miterlimit="10"/></g><g transform="translate(-1118,-229) scale(1,1)"><g><path fill="none" stroke="none"/><text fill="#000000" font-family="Arial" font-size="13px" font-style="normal" font-weight="bold" stroke="none" text-decoration="none" x="2354.763671875" y="817">Dati_Utenti_Articoli_Notizie</text></g></g><g transform="translate(-1118,-229) scale(1,1)"><rect fill="#C0C0C0" height="15" opacity="0.2" stroke="none" width="162.79999999999995" x="1143" y="791"/></g><g transform="translate(-1118,-229) scale(1,1)"><rect fill="#C0C0C0" height="202" opacity="0.2" stroke="none" width="407" x="1143" y="805"/></g><g transform="translate(-1118,-229) scale(1,1)"><rect fill="#ffffff" height="201" stroke="none" width="407" x="1136" y="799"/></g><g transform="translate(-1118,-229) scale(1,1)"><path d="M 1136 799 L 1543 799 L 1543 1000 L 1136 1000 L 1136 799 Z Z" fill="none" stroke="#000000" stroke-miterlimit="10"/></g><g transform="translate(-1118,-229) scale(1,1)"><rect fill="#ffffff" height="15" stroke="none" width="162.79999999999995" x="1136" y="784"/></g><g transform="translate(-1118,-229) scale(1,1)"><path d="M 1136 784 L 1298.8 784 L 1298.8 799 L 1136 799 L 1136 784 Z Z" fill="none" stroke="#000000" stroke-miterlimit="10"/></g><g transform="translate(-1118,-229) scale(1,1)"><rect fill="#ffffff" height="202" stroke="none" width="407" x="1136" y="798"/></g><g transform="translate(-1118,-229) scale(1,1)"><path d="M 1136 798 L 1543 798 L 1543 1000 L 1136 1000 L 1136 798 Z Z" fill="none" stroke="#000000" stroke-miterlimit="10"/></g><g transform="translate(-1118,-229) scale(1,1)"><g><path fill="none" stroke="none"/><text fill="#000000" font-family="Arial" font-size="13px" font-style="normal" font-weight="bold" stroke="none" text-decoration="none" x="1261.471435546875" y="817">Gestione_Dei_Pagamenti</text></g></g><g transform="translate(-1118,-229) scale(1,1)"><rect fill="#C0C0C0" height="15" opacity="0.2" stroke="none" width="159.5999999999999" x="1135" y="351"/></g><g transform="translate(-1118,-229) scale(1,1)"><rect fill="#C0C0C0" height="225" opacity="0.2" stroke="none" width="399" x="1135" y="365"/></g><g transform="translate(-1118,-229) scale(1,1)"><rect fill="#ffffff" height="224" stroke="none" width="399" x="1128" y="359"/></g><g transform="translate(-1118,-229) scale(1,1)"><path d="M 1128 359 L 1527 359 L 1527 583 L 1128 583 L 1128 359 Z Z" fill="none" stroke="#000000" stroke-miterlimit="10"/></g><g transform="translate(-1118,-229) scale(1,1)"><rect fill="#ffffff" height="15" stroke="none" width="159.5999999999999" x="1128" y="344"/></g><g transform="translate(-1118,-229) scale(1,1)"><path d="M 1128 344 L 1287.6 344 L 1287.6 359 L 1128 359 L 1128 344 Z Z" fill="none" stroke="#000000" stroke-miterlimit="10"/></g><g transform="translate(-1118,-229) scale(1,1)"><rect fill="#ffffff" height="225" stroke="none" width="399" x="1128" y="358"/></g><g transform="translate(-1118,-229) scale(1,1)"><path d="M 1128 358 L 1527 358 L 1527 583 L 1128 583 L 1128 358 Z Z" fill="none" stroke="#000000" stroke-miterlimit="10"/></g><g transform="translate(-1118,-229) scale(1,1)"><g><path fill="none" stroke="none"/><text fill="#000000" font-family="Arial" font-size="13px" font-style="normal" font-weight="bold" stroke="none" text-decoration="none" x="1285.234130859375" y="377">InterfacceGUI</text></g></g><g transform="translate(-1118,-229) scale(1,1)"><path d="M 1448 583 L 1448 712 L 1888 712 L 1888 845 L 2248 845" fill="none" stroke="#000000" stroke-dasharray="3" stroke-miterlimit="10"/></g><g transform="translate(-1118,-229) scale(1,1)"><path d="M 2237.837325142376 849.209517756016 L 2248 845 L 2237.837325142376 840.790482243984" fill="none" stroke="#000000" stroke-miterlimit="10"/></g><g transform="translate(-1118,-229) scale(1,1)"><g><path fill="none" stroke="none"/><text fill="#000000" font-family="Arial" font-size="13px" font-style="normal" font-weight="normal" stroke="none" text-decoration="none" x="1822.5" y="731">«import»</text></g></g><g transform="translate(-1118,-229) scale(1,1)"><path d="M 1448 344 L 1448 264 L 2416 264 L 2416 352" fill="none" stroke="#000000" stroke-dasharray="3" stroke-miterlimit="10"/></g><g transform="translate(-1118,-229) scale(1,1)"><path d="M 2411.790482243984 341.83732514237585 L 2416 352 L 2420.209517756016 341.83732514237585" fill="none" stroke="#000000" stroke-miterlimit="10"/></g><g transform="translate(-1118,-229) scale(1,1)"><g><path fill="none" stroke="none"/><text fill="#000000" font-family="Arial" font-size="13px" font-style="normal" font-weight="normal" stroke="none" text-decoration="none" x="1905.5" y="250">«import»</text></g></g><g transform="translate(-1118,-229) scale(1,1)"><path d="M 2032 608 L 2032 704 L 2288 704 L 2288 784" fill="none" stroke="#000000" stroke-dasharray="3" stroke-miterlimit="10"/></g><g transform="translate(-1118,-229) scale(1,1)"><path d="M 2283.790482243984 773.8373251423759 L 2288 784 L 2292.209517756016 773.8373251423759" fill="none" stroke="#000000" stroke-miterlimit="10"/></g><g transform="translate(-1118,-229) scale(1,1)"><g><path fill="none" stroke="none"/><text fill="#000000" font-family="Arial" font-size="13px" font-style="normal" font-weight="normal" stroke="none" text-decoration="none" x="2133.5" y="690">«import»</text></g></g><g transform="translate(-1118,-229) scale(1,1)"><path d="M 2216 648 L 2304 648 L 2314 658 L 2314 696 L 2216 696 L 2216 648" fill="#ffffff" stroke="none"/></g><g transform="translate(-1118,-229) scale(1,1)"><path d="M 2216 648 L 2304 648 L 2314 658 L 2314 696 L 2216 696 L 2216 648 L 2216 648" fill="none" stroke="#000000" stroke-miterlimit="10"/></g><g transform="translate(-1118,-229) scale(1,1)"><path d="M 2304 648 L 2304 658 L 2314 658 L 2304 648" fill="none" stroke="#000000" stroke-miterlimit="10"/></g><g transform="translate(-1118,-229) scale(1,1)"><g><path fill="none" stroke="none"/><text fill="#000000" font-family="Arial" font-size="13px" font-style="normal" font-weight="normal" stroke="none" text-decoration="none" x="2221" y="663">Importa solo la</text><text fill="#000000" font-family="Arial" font-size="13px" font-style="normal" font-weight="normal" stroke="none" text-decoration="none" x="2221" y="676">listautenti</text></g></g><g transform="translate(-1118,-229) scale(1,1)"><path d="M 2160 704 L 2215 687" fill="none" stroke="#000000" stroke-dasharray="3" stroke-miterlimit="10"/></g><g transform="translate(-1118,-229) scale(1,1)"><path d="M 1544 893 L 2247 895" fill="none" stroke="#000000" stroke-dasharray="3" stroke-miterlimit="10"/></g><g transform="translate(-1118,-229) scale(1,1)"><path d="M 2236.8253904491853 899.1805885337437 L 2247 895 L 2236.8493420891327 890.7615870922543" fill="none" stroke="#000000" stroke-miterlimit="10"/></g><g transform="translate(-1118,-229) scale(1,1)"><g><path fill="none" stroke="none"/><text fill="#000000" font-family="Arial" font-size="13px" font-style="normal" font-weight="normal" stroke="none" text-decoration="none" x="1868.5" y="885">«import»</text></g></g><g transform="translate(-1118,-229) scale(1,1)"><path d="M 2248 944 L 1543 944" fill="none" stroke="#000000" stroke-dasharray="3" stroke-miterlimit="10"/></g><g transform="translate(-1118,-229) scale(1,1)"><path d="M 1553.162674857624 939.790482243984 L 1543 944 L 1553.162674857624 948.209517756016" fill="none" stroke="#000000" stroke-miterlimit="10"/></g><g transform="translate(-1118,-229) scale(1,1)"><g><path fill="none" stroke="none"/><text fill="#000000" font-family="Arial" font-size="13px" font-style="normal" font-weight="normal" stroke="none" text-decoration="none" x="1865.5" y="961.5">«access»</text></g></g><g transform="translate(-1118,-229) scale(1,1)"><path d="M 2435 607 L 2435 784" fill="none" stroke="#000000" stroke-dasharray="3" stroke-miterlimit="10"/></g><g transform="translate(-1118,-229) scale(1,1)"><path d="M 2430.790482243984 773.8373251423759 L 2435 784 L 2439.209517756016 773.8373251423759" fill="none" stroke="#000000" stroke-miterlimit="10"/></g><g transform="translate(-1118,-229) scale(1,1)"><g><path fill="none" stroke="none"/><text fill="#000000" font-family="Arial" font-size="13px" font-style="normal" font-weight="normal" stroke="none" text-decoration="none" x="2438.5" y="699">«import»</text></g></g><g transform="translate(-1118,-229) scale(1,1)"><path d="M 1608 960 L 1696 960 L 1706 970 L 1706 1009 L 1608 1009 L 1608 960" fill="#ffffff" stroke="none"/></g><g transform="translate(-1118,-229) scale(1,1)"><path d="M 1608 960 L 1696 960 L 1706 970 L 1706 1009 L 1608 1009 L 1608 960 L 1608 960" fill="none" stroke="#000000" stroke-miterlimit="10"/></g><g transform="translate(-1118,-229) scale(1,1)"><path d="M 1696 960 L 1696 970 L 1706 970 L 1696 960" fill="none" stroke="#000000" stroke-miterlimit="10"/></g><g transform="translate(-1118,-229) scale(1,1)"><g><path fill="none" stroke="none"/><text fill="#000000" font-family="Arial" font-size="13px" font-style="normal" font-weight="normal" stroke="none" text-decoration="none" x="1613" y="975">Servono i</text><text fill="#000000" font-family="Arial" font-size="13px" font-style="normal" font-weight="normal" stroke="none" text-decoration="none" x="1613" y="988">metodi del</text><text fill="#000000" font-family="Arial" font-size="13px" font-style="normal" font-weight="normal" stroke="none" text-decoration="none" x="1613" y="1000">pagamento</text></g></g><g transform="translate(-1118,-229) scale(1,1)"><path d="M 1895 944 L 1708 976" fill="none" stroke="#000000" stroke-dasharray="3" stroke-miterlimit="10"/></g><g transform="translate(-1118,-229) scale(1,1)"><rect fill="#ffffff" height="153" stroke="none" width="144" x="2384" y="408"/></g><g transform="translate(-1118,-229) scale(1,1)"><path d="M 2384 408 L 2528 408 L 2528 561 L 2384 561 L 2384 408 Z Z" fill="none" stroke="#000000" stroke-miterlimit="10"/></g><g transform="translate(-1118,-229) scale(1,1)"><g><path fill="none" stroke="none"/><text fill="#000000" font-family="Arial" font-size="16px" font-style="normal" font-weight="normal" stroke="none" text-decoration="none" x="2389" y="425">Classi comprese:</text></g></g><g transform="translate(-1118,-229) scale(1,1)"><g><path fill="none" stroke="none"/><text fill="#000000" font-family="Arial" font-size="16px" font-style="normal" font-weight="normal" stroke="none" text-decoration="none" x="2389" y="443">Utente</text></g></g><g transform="translate(-1118,-229) scale(1,1)"><g><path fill="none" stroke="none"/><text fill="#000000" font-family="Arial" font-size="16px" font-style="normal" font-weight="normal" stroke="none" text-decoration="none" x="2389" y="461">Cliente</text></g></g><g transform="translate(-1118,-229) scale(1,1)"><g><path fill="none" stroke="none"/><text fill="#000000" font-family="Arial" font-size="16px" font-style="normal" font-weight="normal" stroke="none" text-decoration="none" x="2389" y="479">Admin</text></g></g><g transform="translate(-1118,-229) scale(1,1)"><g><path fill="none" stroke="none"/><text fill="#000000" font-family="Arial" font-size="16px" font-style="normal" font-weight="normal" stroke="none" text-decoration="none" x="2389" y="497">Dipendente</text></g></g><g transform="translate(-1118,-229) scale(1,1)"><g><path fill="none" stroke="none"/><text fill="#000000" font-family="Arial" font-size="16px" font-style="normal" font-weight="normal" stroke="none" text-decoration="none" x="2389" y="515">Guest</text></g></g><g transform="translate(-1118,-229) scale(1,1)"><g><path fill="none" stroke="none"/><text fill="#000000" font-family="Arial" font-size="16px" font-style="normal" font-weight="normal" stroke="none" text-decoration="none" x="2389" y="533">AcquistoFornitore</text></g></g><g transform="translate(-1118,-229) scale(1,1)"><g><path fill="none" stroke="none"/><text fill="#000000" font-family="Arial" font-size="16px" font-style="normal" font-weight="normal" stroke="none" text-decoration="none" x="2389" y="551">Registrazione</text></g></g><g transform="translate(-1118,-229) scale(1,1)"><rect fill="#ffffff" height="143" stroke="none" width="143" x="1240" y="400"/></g><g transform="translate(-1118,-229) scale(1,1)"><path d="M 1240 400 L 1383 400 L 1383 543 L 1240 543 L 1240 400 Z Z" fill="none" stroke="#000000" stroke-miterlimit="10"/></g><g transform="translate(-1118,-229) scale(1,1)"><g><path fill="none" stroke="none"/><text fill="#000000" font-family="Arial" font-size="15px" font-style="normal" font-weight="normal" stroke="none" text-decoration="none" x="1245" y="416">Classi comprese:</text></g></g><g transform="translate(-1118,-229) scale(1,1)"><g><path fill="none" stroke="none"/><text fill="#000000" font-family="Arial" font-size="15px" font-style="normal" font-weight="normal" stroke="none" text-decoration="none" x="1245" y="433">GUI</text></g></g><g transform="translate(-1118,-229) scale(1,1)"><g><path fill="none" stroke="none"/><text fill="#000000" font-family="Arial" font-size="15px" font-style="normal" font-weight="normal" stroke="none" text-decoration="none" x="1245" y="450">GUI Principale</text></g></g><g transform="translate(-1118,-229) scale(1,1)"><g><path fill="none" stroke="none"/><text fill="#000000" font-family="Arial" font-size="15px" font-style="normal" font-weight="normal" stroke="none" text-decoration="none" x="1245" y="467">GUI Modifica</text></g></g><g transform="translate(-1118,-229) scale(1,1)"><g><path fill="none" stroke="none"/><text fill="#000000" font-family="Arial" font-size="15px" font-style="normal" font-weight="normal" stroke="none" text-decoration="none" x="1245" y="484">GUI Profilo</text></g></g><g transform="translate(-1118,-229) scale(1,1)"><g><path fill="none" stroke="none"/><text fill="#000000" font-family="Arial" font-size="15px" font-style="normal" font-weight="normal" stroke="none" text-decoration="none" x="1245" y="501">GUI Login</text></g></g><g transform="translate(-1118,-229) scale(1,1)"><g><path fill="none" stroke="none"/><text fill="#000000" font-family="Arial" font-size="15px" font-style="normal" font-weight="normal" stroke="none" text-decoration="none" x="1245" y="518">ProdottiFIltrati</text></g></g><g transform="translate(-1118,-229) scale(1,1)"><rect fill="#ffffff" height="162" stroke="none" width="151" x="1264" y="824"/></g><g transform="translate(-1118,-229) scale(1,1)"><path d="M 1264 824 L 1415 824 L 1415 986 L 1264 986 L 1264 824 Z Z" fill="none" stroke="#000000" stroke-miterlimit="10"/></g><g transform="translate(-1118,-229) scale(1,1)"><g><path fill="none" stroke="none"/><text fill="#000000" font-family="Arial" font-size="15px" font-style="normal" font-weight="normal" stroke="none" text-decoration="none" x="1269" y="840">Classi comprese:</text></g></g><g transform="translate(-1118,-229) scale(1,1)"><g><path fill="none" stroke="none"/><text fill="#000000" font-family="Arial" font-size="15px" font-style="normal" font-weight="normal" stroke="none" text-decoration="none" x="1269" y="857">Pagamento</text></g></g><g transform="translate(-1118,-229) scale(1,1)"><g><path fill="none" stroke="none"/><text fill="#000000" font-family="Arial" font-size="15px" font-style="normal" font-weight="normal" stroke="none" text-decoration="none" x="1269" y="874">Ordine</text></g></g><g transform="translate(-1118,-229) scale(1,1)"><g><path fill="none" stroke="none"/><text fill="#000000" font-family="Arial" font-size="15px" font-style="normal" font-weight="normal" stroke="none" text-decoration="none" x="1269" y="891">Paypal</text></g></g><g transform="translate(-1118,-229) scale(1,1)"><g><path fill="none" stroke="none"/><text fill="#000000" font-family="Arial" font-size="15px" font-style="normal" font-weight="normal" stroke="none" text-decoration="none" x="1269" y="908">Mastercard</text></g></g><g transform="translate(-1118,-229) scale(1,1)"><g><path fill="none" stroke="none"/><text fill="#000000" font-family="Arial" font-size="15px" font-style="normal" font-weight="normal" stroke="none" text-decoration="none" x="1269" y="925">Bonifico bancario</text></g></g><g transform="translate(-1118,-229) scale(1,1)"><g><path fill="none" stroke="none"/><text fill="#000000" font-family="Arial" font-size="15px" font-style="normal" font-weight="normal" stroke="none" text-decoration="none" x="1269" y="942">ProxyPagamento</text></g></g><g transform="translate(-1118,-229) scale(1,1)"><g><path fill="none" stroke="none"/><text fill="#000000" font-family="Arial" font-size="15px" font-style="normal" font-weight="normal" stroke="none" text-decoration="none" x="1269" y="959">Memento</text></g></g><g transform="translate(-1118,-229) scale(1,1)"><g><path fill="none" stroke="none"/><text fill="#000000" font-family="Arial" font-size="15px" font-style="normal" font-weight="normal" stroke="none" text-decoration="none" x="1269" y="976">Storico acquisti</text></g></g><g transform="translate(-1118,-229) scale(1,1)"><rect fill="#ffffff" height="162" stroke="none" width="127" x="2392" y="832"/></g><g transform="translate(-1118,-229) scale(1,1)"><path d="M 2392 832 L 2519 832 L 2519 994 L 2392 994 L 2392 832 Z Z" fill="none" stroke="#000000" stroke-miterlimit="10"/></g><g transform="translate(-1118,-229) scale(1,1)"><g><path fill="none" stroke="none"/><text fill="#000000" font-family="Arial" font-size="15px" font-style="normal" font-weight="normal" stroke="none" text-decoration="none" x="2397" y="848">Classi comprese:</text></g></g><g transform="translate(-1118,-229) scale(1,1)"><g><path fill="none" stroke="none"/><text fill="#000000" font-family="Arial" font-size="15px" font-style="normal" font-weight="normal" stroke="none" text-decoration="none" x="2397" y="865">Lista</text></g></g><g transform="translate(-1118,-229) scale(1,1)"><g><path fill="none" stroke="none"/><text fill="#000000" font-family="Arial" font-size="15px" font-style="normal" font-weight="normal" stroke="none" text-decoration="none" x="2397" y="882">ListaUtenti</text></g></g><g transform="translate(-1118,-229) scale(1,1)"><g><path fill="none" stroke="none"/><text fill="#000000" font-family="Arial" font-size="15px" font-style="normal" font-weight="normal" stroke="none" text-decoration="none" x="2397" y="899">ListaOfferta</text></g></g><g transform="translate(-1118,-229) scale(1,1)"><g><path fill="none" stroke="none"/><text fill="#000000" font-family="Arial" font-size="15px" font-style="normal" font-weight="normal" stroke="none" text-decoration="none" x="2397" y="916">ListaNotizie</text></g></g><g transform="translate(-1118,-229) scale(1,1)"><g><path fill="none" stroke="none"/><text fill="#000000" font-family="Arial" font-size="15px" font-style="normal" font-weight="normal" stroke="none" text-decoration="none" x="2397" y="933">Articolo</text></g></g><g transform="translate(-1118,-229) scale(1,1)"><g><path fill="none" stroke="none"/><text fill="#000000" font-family="Arial" font-size="15px" font-style="normal" font-weight="normal" stroke="none" text-decoration="none" x="2397" y="950">Catalogo</text></g></g><g transform="translate(-1118,-229) scale(1,1)"><g><path fill="none" stroke="none"/><text fill="#000000" font-family="Arial" font-size="15px" font-style="normal" font-weight="normal" stroke="none" text-decoration="none" x="2397" y="967">Observer</text></g></g><g transform="translate(-1118,-229) scale(1,1)"><g><path fill="none" stroke="none"/><text fill="#000000" font-family="Arial" font-size="15px" font-style="normal" font-weight="normal" stroke="none" text-decoration="none" x="2397" y="984">Carrello</text></g></g><g transform="translate(-1118,-229) scale(1,1)"><rect fill="#ffffff" height="143" stroke="none" width="127" x="1848" y="416"/></g><g transform="translate(-1118,-229) scale(1,1)"><path d="M 1848 416 L 1975 416 L 1975 559 L 1848 559 L 1848 416 Z Z" fill="none" stroke="#000000" stroke-miterlimit="10"/></g><g transform="translate(-1118,-229) scale(1,1)"><g><path fill="none" stroke="none"/><text fill="#000000" font-family="Arial" font-size="15px" font-style="normal" font-weight="normal" stroke="none" text-decoration="none" x="1853" y="432">Classi comprese:</text></g></g><g transform="translate(-1118,-229) scale(1,1)"><g><path fill="none" stroke="none"/><text fill="#000000" font-family="Arial" font-size="15px" font-style="normal" font-weight="normal" stroke="none" text-decoration="none" x="1853" y="449">Manager utente</text></g></g></g></svg>