<?xml version="1.0" encoding="UTF-8" standalone="no"?><svg xmlns="http://www.w3.org/2000/svg" xmlns:xlink="http://www.w3.org/1999/xlink" height="996" version="1.1" width="2428"><defs/><g><g transform="translate(2,10) scale(1,1)"><path d="M 8 0 L 2416 0 L 2416 976 L 8 976 L 8 0" fill="none" stroke="#000000" stroke-miterlimit="10"/></g><g transform="translate(2,10) scale(1,1)"><path d="M 8 0 L 8 22 L 104.2216796875 22 L 115.2216796875 11 L 115.2216796875 0 L 8 0" fill="#ffffff" stroke="none"/></g><g transform="translate(2,10) scale(1,1)"><path d="M 8 0 L 8 22 L 104.2216796875 22 L 115.2216796875 11 L 115.2216796875 0 L 8 0 L 8 0" fill="none" stroke="#000000" stroke-miterlimit="10"/></g><g transform="translate(2,10) scale(1,1)"><g><path fill="none" stroke="none"/><text fill="#000000" font-family="Arial" font-size="13px" font-style="normal" font-weight="normal" stroke="none" text-decoration="none" x="32.72998046875" y="16">Pagamento</text></g></g><g transform="translate(2,10) scale(1,1)"><g><path fill="none" stroke="none"/><text fill="#000000" font-family="Arial" font-size="13px" font-style="normal" font-weight="bold" stroke="none" text-decoration="none" x="12.279541015625" y="16">sd</text></g></g><g transform="translate(2,10) scale(1,1)"><rect fill="#C0C0C0" height="39" opacity="0.2" stroke="none" width="232" x="15" y="47"/></g><g transform="translate(2,10) scale(1,1)"><rect fill="#ffffff" height="39" stroke="none" width="232" x="8" y="40"/></g><g transform="translate(2,10) scale(1,1)"><path d="M 8 40 L 240 40 L 240 79 L 8 79 L 8 40 Z Z" fill="none" stroke="#000000" stroke-miterlimit="10"/></g><g transform="translate(2,10) scale(1,1)"><g><path fill="none" stroke="none"/><text fill="#000000" font-family="Arial" font-size="13px" font-style="normal" font-weight="bold" stroke="none" text-decoration="none" x="83.905029296875" y="58">User: Cliente</text></g></g><g transform="translate(2,10) scale(1,1)"><path d="M 125.5 80 L 125.5 878" fill="none" stroke="#000000" stroke-dasharray="3" stroke-miterlimit="10"/></g><g transform="translate(2,10) scale(1,1)"><rect fill="#C0C0C0" height="39" opacity="0.2" stroke="none" width="272" x="447" y="47"/></g><g transform="translate(2,10) scale(1,1)"><rect fill="#ffffff" height="39" stroke="none" width="272" x="440" y="40"/></g><g transform="translate(2,10) scale(1,1)"><path d="M 440 40 L 712 40 L 712 79 L 440 79 L 440 40 Z Z" fill="none" stroke="#000000" stroke-miterlimit="10"/></g><g transform="translate(2,10) scale(1,1)"><g><path fill="none" stroke="none"/><text fill="#000000" font-family="Arial" font-size="13px" font-style="normal" font-weight="bold" stroke="none" text-decoration="none" x="527.240478515625" y="58">Manager Utente</text></g></g><g transform="translate(2,10) scale(1,1)"><path d="M 577.5 80 L 577.5 886" fill="none" stroke="#000000" stroke-dasharray="3" stroke-miterlimit="10"/></g><g transform="translate(2,10) scale(1,1)"><rect fill="#C0C0C0" height="39" opacity="0.2" stroke="none" width="232" x="215" y="47"/></g><g transform="translate(2,10) scale(1,1)"><rect fill="#ffffff" height="39" stroke="none" width="232" x="208" y="40"/></g><g transform="translate(2,10) scale(1,1)"><path d="M 208 40 L 440 40 L 440 79 L 208 79 L 208 40 Z Z" fill="none" stroke="#000000" stroke-miterlimit="10"/></g><g transform="translate(2,10) scale(1,1)"><g><path fill="none" stroke="none"/><text fill="#000000" font-family="Arial" font-size="13px" font-style="normal" font-weight="bold" stroke="none" text-decoration="none" x="265.852294921875" y="58">CGUI: GUI Carrello</text></g></g><g transform="translate(2,10) scale(1,1)"><path d="M 325.5 80 L 325.5 886" fill="none" stroke="#000000" stroke-dasharray="3" stroke-miterlimit="10"/></g><g transform="translate(2,10) scale(1,1)"><rect fill="#C0C0C0" height="39" opacity="0.2" stroke="none" width="239" x="719" y="47"/></g><g transform="translate(2,10) scale(1,1)"><rect fill="#ffffff" height="39" stroke="none" width="239" x="712" y="40"/></g><g transform="translate(2,10) scale(1,1)"><path d="M 712 40 L 951 40 L 951 79 L 712 79 L 712 40 Z Z" fill="none" stroke="#000000" stroke-miterlimit="10"/></g><g transform="translate(2,10) scale(1,1)"><g><path fill="none" stroke="none"/><text fill="#000000" font-family="Arial" font-size="13px" font-style="normal" font-weight="bold" stroke="none" text-decoration="none" x="775.50732421875" y="58">CartUser: Carrello</text></g></g><g transform="translate(2,10) scale(1,1)"><path d="M 832.5 80 L 832.5 908" fill="none" stroke="#000000" stroke-dasharray="3" stroke-miterlimit="10"/></g><g transform="translate(2,10) scale(1,1)"><rect fill="#C0C0C0" height="39" opacity="0.2" stroke="none" width="296" x="959" y="47"/></g><g transform="translate(2,10) scale(1,1)"><rect fill="#ffffff" height="39" stroke="none" width="296" x="952" y="40"/></g><g transform="translate(2,10) scale(1,1)"><path d="M 952 40 L 1248 40 L 1248 79 L 952 79 L 952 40 Z Z" fill="none" stroke="#000000" stroke-miterlimit="10"/></g><g transform="translate(2,10) scale(1,1)"><g><path fill="none" stroke="none"/><text fill="#000000" font-family="Arial" font-size="13px" font-style="normal" font-weight="bold" stroke="none" text-decoration="none" x="1059.911376953125" y="58">Ord1: Ordine</text></g></g><g transform="translate(2,10) scale(1,1)"><path d="M 1101.5 80 L 1101.5 908" fill="none" stroke="#000000" stroke-dasharray="3" stroke-miterlimit="10"/></g><g transform="translate(2,10) scale(1,1)"><rect fill="#C0C0C0" height="39" opacity="0.2" stroke="none" width="247" x="1487" y="47"/></g><g transform="translate(2,10) scale(1,1)"><rect fill="#ffffff" height="39" stroke="none" width="247" x="1480" y="40"/></g><g transform="translate(2,10) scale(1,1)"><path d="M 1480 40 L 1727 40 L 1727 79 L 1480 79 L 1480 40 Z Z" fill="none" stroke="#000000" stroke-miterlimit="10"/></g><g transform="translate(2,10) scale(1,1)"><g><path fill="none" stroke="none"/><text fill="#000000" font-family="Arial" font-size="13px" font-style="normal" font-weight="bold" stroke="none" text-decoration="none" x="1565.220458984375" y="58">m: Memento</text></g></g><g transform="translate(2,10) scale(1,1)"><path d="M 1604.5 80 L 1604.5 776" fill="none" stroke="#000000" stroke-dasharray="3" stroke-miterlimit="10"/></g><g transform="translate(2,10) scale(1,1)"><rect fill="#C0C0C0" height="39" opacity="0.2" stroke="none" width="191" x="1735" y="47"/></g><g transform="translate(2,10) scale(1,1)"><rect fill="#ffffff" height="39" stroke="none" width="191" x="1728" y="40"/></g><g transform="translate(2,10) scale(1,1)"><path d="M 1728 40 L 1919 40 L 1919 79 L 1728 79 L 1728 40 Z Z" fill="none" stroke="#000000" stroke-miterlimit="10"/></g><g transform="translate(2,10) scale(1,1)"><g><path fill="none" stroke="none"/><text fill="#000000" font-family="Arial" font-size="13px" font-style="normal" font-weight="bold" stroke="none" text-decoration="none" x="1748.378662109375" y="58">Storico: Storico acquisti</text></g></g><g transform="translate(2,10) scale(1,1)"><path d="M 1824.5 80 L 1824.5 768" fill="none" stroke="#000000" stroke-dasharray="3" stroke-miterlimit="10"/></g><g transform="translate(2,10) scale(1,1)"><rect fill="#C0C0C0" height="39" opacity="0.2" stroke="none" width="207" x="1927" y="47"/></g><g transform="translate(2,10) scale(1,1)"><rect fill="#ffffff" height="39" stroke="none" width="207" x="1920" y="40"/></g><g transform="translate(2,10) scale(1,1)"><path d="M 1920 40 L 2127 40 L 2127 79 L 1920 79 L 1920 40 Z Z" fill="none" stroke="#000000" stroke-miterlimit="10"/></g><g transform="translate(2,10) scale(1,1)"><g><path fill="none" stroke="none"/><text fill="#000000" font-family="Arial" font-size="13px" font-style="normal" font-weight="bold" stroke="none" text-decoration="none" x="1985.58544921875" y="58">Art: Articolo</text></g></g><g transform="translate(2,10) scale(1,1)"><path d="M 2024.5 80 L 2024.5 860" fill="none" stroke="#000000" stroke-dasharray="3" stroke-miterlimit="10"/></g><g transform="translate(2,10) scale(1,1)"><rect fill="#C0C0C0" height="39" opacity="0.2" stroke="none" width="143" x="2127" y="47"/></g><g transform="translate(2,10) scale(1,1)"><rect fill="#ffffff" height="39" stroke="none" width="143" x="2120" y="40"/></g><g transform="translate(2,10) scale(1,1)"><path d="M 2120 40 L 2263 40 L 2263 79 L 2120 79 L 2120 40 Z Z" fill="none" stroke="#000000" stroke-miterlimit="10"/></g><g transform="translate(2,10) scale(1,1)"><g><path fill="none" stroke="none"/><text fill="#000000" font-family="Arial" font-size="13px" font-style="normal" font-weight="bold" stroke="none" text-decoration="none" x="2147.42822265625" y="58">obs: Observer</text></g></g><g transform="translate(2,10) scale(1,1)"><path d="M 2192.5 80 L 2192.5 809" fill="none" stroke="#000000" stroke-dasharray="3" stroke-miterlimit="10"/></g><g transform="translate(2,10) scale(1,1)"><rect fill="#C0C0C0" height="39" opacity="0.2" stroke="none" width="231" x="1255" y="47"/></g><g transform="translate(2,10) scale(1,1)"><rect fill="#ffffff" height="39" stroke="none" width="231" x="1248" y="40"/></g><g transform="translate(2,10) scale(1,1)"><path d="M 1248 40 L 1479 40 L 1479 79 L 1248 79 L 1248 40 Z Z" fill="none" stroke="#000000" stroke-miterlimit="10"/></g><g transform="translate(2,10) scale(1,1)"><g><path fill="none" stroke="none"/><text fill="#000000" font-family="Arial" font-size="13px" font-style="normal" font-weight="bold" stroke="none" text-decoration="none" x="1334.59912109375" y="58">Pr: Proxy</text></g></g><g transform="translate(2,10) scale(1,1)"><path d="M 1364.5 80 L 1364.5 832" fill="none" stroke="#000000" stroke-dasharray="3" stroke-miterlimit="10"/></g><g transform="translate(2,10) scale(1,1)"><path d="M 125 114 L 318 114" fill="none" stroke="#000000" stroke-miterlimit="10"/></g><g transform="translate(2,10) scale(1,1)"><path d="M 307.83732514237585 118.20951775601598 L 318 114 L 307.83732514237585 109.79048224398402" fill="#000000" stroke="none"/></g><g transform="translate(2,10) scale(1,1)"><path d="M 307.83732514237585 118.20951775601598 L 318 114 L 307.83732514237585 109.79048224398402 L 307.83732514237585 118.20951775601598" fill="none" stroke="#000000" stroke-miterlimit="10"/></g><g transform="translate(2,10) scale(1,1)"><g><path fill="none" stroke="none"/><text fill="#000000" font-family="Arial" font-size="13px" font-style="normal" font-weight="normal" stroke="none" text-decoration="none" x="149.5" y="109">1 : GUI interact checkout</text></g></g><g transform="translate(2,10) scale(1,1)"><rect fill="#ffffff" height="750" stroke="none" width="13" x="318" y="114"/></g><g transform="translate(2,10) scale(1,1)"><path d="M 318 114 L 331 114 L 331 864 L 318 864 L 318 114 Z Z" fill="none" stroke="#000000" stroke-miterlimit="10"/></g><g transform="translate(2,10) scale(1,1)"><path d="M 331 136 L 570 136" fill="none" stroke="#000000" stroke-miterlimit="10"/></g><g transform="translate(2,10) scale(1,1)"><path d="M 559.8373251423759 140.209517756016 L 570 136 L 559.8373251423758 131.790482243984" fill="#000000" stroke="none"/></g><g transform="translate(2,10) scale(1,1)"><path d="M 559.8373251423759 140.209517756016 L 570 136 L 559.8373251423758 131.790482243984 L 559.8373251423759 140.209517756016" fill="none" stroke="#000000" stroke-miterlimit="10"/></g><g transform="translate(2,10) scale(1,1)"><g><path fill="none" stroke="none"/><text fill="#000000" font-family="Arial" font-size="13px" font-style="normal" font-weight="normal" stroke="none" text-decoration="none" x="395.5654296875" y="131">2 : Checkout(User)</text></g></g><g transform="translate(2,10) scale(1,1)"><rect fill="#ffffff" height="704" stroke="none" width="13" x="570" y="136"/></g><g transform="translate(2,10) scale(1,1)"><path d="M 570 136 L 583 136 L 583 840 L 570 840 L 570 136 Z Z" fill="none" stroke="#000000" stroke-miterlimit="10"/></g><g transform="translate(2,10) scale(1,1)"><path d="M 570 202 L 125 202" fill="none" stroke="#000000" stroke-dasharray="3" stroke-miterlimit="10"/></g><g transform="translate(2,10) scale(1,1)"><path d="M 135.16267485762415 197.790482243984 L 125 202 L 135.16267485762415 206.209517756016" fill="none" stroke="#000000" stroke-miterlimit="10"/></g><g transform="translate(2,10) scale(1,1)"><g><path fill="none" stroke="none"/><text fill="#000000" font-family="Arial" font-size="13px" font-style="normal" font-weight="normal" stroke="none" text-decoration="none" x="243.5" y="217">3 : Richiesta tipologia di pagamento</text></g></g><g transform="translate(2,10) scale(1,1)"><path d="M 125 238 L 577 238" fill="none" stroke="#000000" stroke-miterlimit="10"/></g><g transform="translate(2,10) scale(1,1)"><path d="M 566.8373251423759 242.209517756016 L 577 238 L 566.8373251423758 233.790482243984" fill="#000000" stroke="none"/></g><g transform="translate(2,10) scale(1,1)"><path d="M 566.8373251423759 242.209517756016 L 577 238 L 566.8373251423758 233.790482243984 L 566.8373251423759 242.209517756016" fill="none" stroke="#000000" stroke-miterlimit="10"/></g><g transform="translate(2,10) scale(1,1)"><g><path fill="none" stroke="none"/><text fill="#000000" font-family="Arial" font-size="13px" font-style="normal" font-weight="normal" stroke="none" text-decoration="none" x="216.5" y="233">4 : GUI Interaction inserimento tipo pagamento</text></g></g><g transform="translate(2,10) scale(1,1)"><rect fill="#ffffff" height="28" stroke="none" width="13" x="577" y="238"/></g><g transform="translate(2,10) scale(1,1)"><path d="M 577 238 L 590 238 L 590 266 L 577 266 L 577 238 Z Z" fill="none" stroke="#000000" stroke-miterlimit="10"/></g><g transform="translate(2,10) scale(1,1)"><path d="M 570 272 L 125 272" fill="none" stroke="#000000" stroke-dasharray="3" stroke-miterlimit="10"/></g><g transform="translate(2,10) scale(1,1)"><path d="M 135.16267485762415 267.790482243984 L 125 272 L 135.16267485762415 276.209517756016" fill="none" stroke="#000000" stroke-miterlimit="10"/></g><g transform="translate(2,10) scale(1,1)"><g><path fill="none" stroke="none"/><text fill="#000000" font-family="Arial" font-size="13px" font-style="normal" font-weight="normal" stroke="none" text-decoration="none" x="227.5" y="287">5 : Richiesta Informazioni per pagamento</text></g></g><g transform="translate(2,10) scale(1,1)"><path d="M 125 312 L 577 312" fill="none" stroke="#000000" stroke-miterlimit="10"/></g><g transform="translate(2,10) scale(1,1)"><path d="M 566.8373251423759 316.209517756016 L 577 312 L 566.8373251423758 307.790482243984" fill="#000000" stroke="none"/></g><g transform="translate(2,10) scale(1,1)"><path d="M 566.8373251423759 316.209517756016 L 577 312 L 566.8373251423758 307.790482243984 L 566.8373251423759 316.209517756016" fill="none" stroke="#000000" stroke-miterlimit="10"/></g><g transform="translate(2,10) scale(1,1)"><g><path fill="none" stroke="none"/><text fill="#000000" font-family="Arial" font-size="13px" font-style="normal" font-weight="normal" stroke="none" text-decoration="none" x="215.5" y="307">6 : GUI Interaction Inserimento info pagamento</text></g></g><g transform="translate(2,10) scale(1,1)"><rect fill="#ffffff" height="28" stroke="none" width="13" x="577" y="312"/></g><g transform="translate(2,10) scale(1,1)"><path d="M 577 312 L 590 312 L 590 340 L 577 340 L 577 312 Z Z" fill="none" stroke="#000000" stroke-miterlimit="10"/></g><g transform="translate(2,10) scale(1,1)"><path d="M 590 328 L 825 328" fill="none" stroke="#000000" stroke-miterlimit="10"/></g><g transform="translate(2,10) scale(1,1)"><path d="M 814.8373251423759 332.209517756016 L 825 328 L 814.8373251423758 323.790482243984" fill="#000000" stroke="none"/></g><g transform="translate(2,10) scale(1,1)"><path d="M 814.8373251423759 332.209517756016 L 825 328 L 814.8373251423758 323.790482243984 L 814.8373251423759 332.209517756016" fill="none" stroke="#000000" stroke-miterlimit="10"/></g><g transform="translate(2,10) scale(1,1)"><g><path fill="none" stroke="none"/><text fill="#000000" font-family="Arial" font-size="13px" font-style="normal" font-weight="normal" stroke="none" text-decoration="none" x="624.5" y="323">7 : pagamento(User, Ordine)</text></g></g><g transform="translate(2,10) scale(1,1)"><rect fill="#ffffff" height="544" stroke="none" width="13" x="825" y="328"/></g><g transform="translate(2,10) scale(1,1)"><path d="M 825 328 L 838 328 L 838 872 L 825 872 L 825 328 Z Z" fill="none" stroke="#000000" stroke-miterlimit="10"/></g><g transform="translate(2,10) scale(1,1)"><path d="M 838 344 L 1094 344" fill="none" stroke="#000000" stroke-miterlimit="10"/></g><g transform="translate(2,10) scale(1,1)"><path d="M 1083.837325142376 348.209517756016 L 1094 344 L 1083.837325142376 339.790482243984" fill="#000000" stroke="none"/></g><g transform="translate(2,10) scale(1,1)"><path d="M 1083.837325142376 348.209517756016 L 1094 344 L 1083.837325142376 339.790482243984 L 1083.837325142376 348.209517756016" fill="none" stroke="#000000" stroke-miterlimit="10"/></g><g transform="translate(2,10) scale(1,1)"><g><path fill="none" stroke="none"/><text fill="#000000" font-family="Arial" font-size="13px" font-style="normal" font-weight="normal" stroke="none" text-decoration="none" x="894.5" y="339">8 : SetCarrello(CartUser)</text></g></g><g transform="translate(2,10) scale(1,1)"><rect fill="#ffffff" height="550" stroke="none" width="13" x="1094" y="344"/></g><g transform="translate(2,10) scale(1,1)"><path d="M 1094 344 L 1107 344 L 1107 894 L 1094 894 L 1094 344 Z Z" fill="none" stroke="#000000" stroke-miterlimit="10"/></g><g transform="translate(2,10) scale(1,1)"><path d="M 1107 352 L 1137 352 L 1137 372 L 1114 372" fill="none" stroke="#000000" stroke-miterlimit="10"/></g><g transform="translate(2,10) scale(1,1)"><path d="M 1124.162674857624 367.790482243984 L 1114 372 L 1124.162674857624 376.209517756016" fill="#000000" stroke="none"/></g><g transform="translate(2,10) scale(1,1)"><path d="M 1124.162674857624 367.790482243984 L 1114 372 L 1124.162674857624 376.209517756016 L 1124.162674857624 367.790482243984" fill="none" stroke="#000000" stroke-miterlimit="10"/></g><g transform="translate(2,10) scale(1,1)"><g><path fill="none" stroke="none"/><text fill="#000000" font-family="Arial" font-size="13px" font-style="normal" font-weight="normal" stroke="none" text-decoration="none" x="1108.114990234375" y="347">9 : SetTotale(cart)</text></g></g><g transform="translate(2,10) scale(1,1)"><rect fill="#ffffff" height="28" stroke="none" width="13" x="1101" y="372"/></g><g transform="translate(2,10) scale(1,1)"><path d="M 1101 372 L 1114 372 L 1114 400 L 1101 400 L 1101 372 Z Z" fill="none" stroke="#000000" stroke-miterlimit="10"/></g><g transform="translate(2,10) scale(1,1)"><path d="M 1107 400 L 1137 400 L 1137 420 L 1114 420" fill="none" stroke="#000000" stroke-miterlimit="10"/></g><g transform="translate(2,10) scale(1,1)"><path d="M 1124.162674857624 415.790482243984 L 1114 420 L 1124.162674857624 424.209517756016" fill="#000000" stroke="none"/></g><g transform="translate(2,10) scale(1,1)"><path d="M 1124.162674857624 415.790482243984 L 1114 420 L 1124.162674857624 424.209517756016 L 1124.162674857624 415.790482243984" fill="none" stroke="#000000" stroke-miterlimit="10"/></g><g transform="translate(2,10) scale(1,1)"><g><path fill="none" stroke="none"/><text fill="#000000" font-family="Arial" font-size="13px" font-style="normal" font-weight="normal" stroke="none" text-decoration="none" x="1123.5" y="435">10 : SetID(ID pagamentoGlobale)</text></g></g><g transform="translate(2,10) scale(1,1)"><rect fill="#ffffff" height="28" stroke="none" width="13" x="1101" y="420"/></g><g transform="translate(2,10) scale(1,1)"><path d="M 1101 420 L 1114 420 L 1114 448 L 1101 448 L 1101 420 Z Z" fill="none" stroke="#000000" stroke-miterlimit="10"/></g><g transform="translate(2,10) scale(1,1)"><path d="M 1101 425 L 838 425" fill="none" stroke="#000000" stroke-dasharray="3" stroke-miterlimit="10"/></g><g transform="translate(2,10) scale(1,1)"><path d="M 848.1626748576241 420.790482243984 L 838 425 L 848.1626748576241 429.209517756016" fill="none" stroke="#000000" stroke-miterlimit="10"/></g><g transform="translate(2,10) scale(1,1)"><g><path fill="none" stroke="none"/><text fill="#000000" font-family="Arial" font-size="13px" font-style="normal" font-weight="normal" stroke="none" text-decoration="none" x="926.982421875" y="440">11 : Conferma</text></g></g><g transform="translate(2,10) scale(1,1)"><path d="M 838 464 L 1357 464" fill="none" stroke="#000000" stroke-miterlimit="10"/></g><g transform="translate(2,10) scale(1,1)"><path d="M 1346.837325142376 468.209517756016 L 1357 464 L 1346.837325142376 459.790482243984" fill="#000000" stroke="none"/></g><g transform="translate(2,10) scale(1,1)"><path d="M 1346.837325142376 468.209517756016 L 1357 464 L 1346.837325142376 459.790482243984 L 1346.837325142376 468.209517756016" fill="none" stroke="#000000" stroke-miterlimit="10"/></g><g transform="translate(2,10) scale(1,1)"><g><path fill="none" stroke="none"/><text fill="#000000" font-family="Arial" font-size="13px" font-style="normal" font-weight="normal" stroke="none" text-decoration="none" x="1027.5" y="459">12 : pagamento(Ordine)</text></g></g><g transform="translate(2,10) scale(1,1)"><rect fill="#ffffff" height="96" stroke="none" width="13" x="1357" y="464"/></g><g transform="translate(2,10) scale(1,1)"><path d="M 1357 464 L 1370 464 L 1370 560 L 1357 560 L 1357 464 Z Z" fill="none" stroke="#000000" stroke-miterlimit="10"/></g><g transform="translate(2,10) scale(1,1)"><path d="M 1370 464 L 1400 464 L 1400 484 L 1377 484" fill="none" stroke="#000000" stroke-miterlimit="10"/></g><g transform="translate(2,10) scale(1,1)"><path d="M 1387.162674857624 479.790482243984 L 1377 484 L 1387.162674857624 488.209517756016" fill="#000000" stroke="none"/></g><g transform="translate(2,10) scale(1,1)"><path d="M 1387.162674857624 479.790482243984 L 1377 484 L 1387.162674857624 488.209517756016 L 1387.162674857624 479.790482243984" fill="none" stroke="#000000" stroke-miterlimit="10"/></g><g transform="translate(2,10) scale(1,1)"><g><path fill="none" stroke="none"/><text fill="#000000" font-family="Arial" font-size="13px" font-style="normal" font-weight="normal" stroke="none" text-decoration="none" x="1407.5" y="478">13 : CheckCredenziali</text></g></g><g transform="translate(2,10) scale(1,1)"><rect fill="#ffffff" height="55" stroke="none" width="13" x="1364" y="484"/></g><g transform="translate(2,10) scale(1,1)"><path d="M 1364 484 L 1377 484 L 1377 539 L 1364 539 L 1364 484 Z Z" fill="none" stroke="#000000" stroke-miterlimit="10"/></g><g transform="translate(2,10) scale(1,1)"><path d="M 1377 488 L 1407 488 L 1407 508 L 1384 508" fill="none" stroke="#000000" stroke-miterlimit="10"/></g><g transform="translate(2,10) scale(1,1)"><path d="M 1394.162674857624 503.790482243984 L 1384 508 L 1394.162674857624 512.209517756016" fill="#000000" stroke="none"/></g><g transform="translate(2,10) scale(1,1)"><path d="M 1394.162674857624 503.790482243984 L 1384 508 L 1394.162674857624 512.209517756016 L 1394.162674857624 503.790482243984" fill="none" stroke="#000000" stroke-miterlimit="10"/></g><g transform="translate(2,10) scale(1,1)"><g><path fill="none" stroke="none"/><text fill="#000000" font-family="Arial" font-size="13px" font-style="normal" font-weight="normal" stroke="none" text-decoration="none" x="1443.259521484375" y="502">14 : Paga</text></g></g><g transform="translate(2,10) scale(1,1)"><rect fill="#ffffff" height="28" stroke="none" width="13" x="1371" y="508"/></g><g transform="translate(2,10) scale(1,1)"><path d="M 1371 508 L 1384 508 L 1384 536 L 1371 536 L 1371 508 Z Z" fill="none" stroke="#000000" stroke-miterlimit="10"/></g><g transform="translate(2,10) scale(1,1)"><path d="M 1364 536 L 1107 536" fill="none" stroke="#000000" stroke-dasharray="3" stroke-miterlimit="10"/></g><g transform="translate(2,10) scale(1,1)"><path d="M 1117.162674857624 531.790482243984 L 1107 536 L 1117.162674857624 540.209517756016" fill="none" stroke="#000000" stroke-miterlimit="10"/></g><g transform="translate(2,10) scale(1,1)"><g><path fill="none" stroke="none"/><text fill="#000000" font-family="Arial" font-size="13px" font-style="normal" font-weight="normal" stroke="none" text-decoration="none" x="1192.5" y="551">15 : Conferma</text></g></g><g transform="translate(2,10) scale(1,1)"><path d="M 1107 576 L 1137 576 L 1137 596 L 1114 596" fill="none" stroke="#000000" stroke-miterlimit="10"/></g><g transform="translate(2,10) scale(1,1)"><path d="M 1124.162674857624 591.790482243984 L 1114 596 L 1124.162674857624 600.209517756016" fill="#000000" stroke="none"/></g><g transform="translate(2,10) scale(1,1)"><path d="M 1124.162674857624 591.790482243984 L 1114 596 L 1124.162674857624 600.209517756016 L 1124.162674857624 591.790482243984" fill="none" stroke="#000000" stroke-miterlimit="10"/></g><g transform="translate(2,10) scale(1,1)"><g><path fill="none" stroke="none"/><text fill="#000000" font-family="Arial" font-size="13px" font-style="normal" font-weight="normal" stroke="none" text-decoration="none" x="1091.5" y="590">16 : SaveMemento</text></g></g><g transform="translate(2,10) scale(1,1)"><rect fill="#ffffff" height="28" stroke="none" width="13" x="1101" y="596"/></g><g transform="translate(2,10) scale(1,1)"><path d="M 1101 596 L 1114 596 L 1114 624 L 1101 624 L 1101 596 Z Z" fill="none" stroke="#000000" stroke-miterlimit="10"/></g><g transform="translate(2,10) scale(1,1)"><path d="M 1114 600 L 1597 600" fill="none" stroke="#000000" stroke-miterlimit="10"/></g><g transform="translate(2,10) scale(1,1)"><path d="M 1586.837325142376 604.209517756016 L 1597 600 L 1586.837325142376 595.790482243984" fill="#000000" stroke="none"/></g><g transform="translate(2,10) scale(1,1)"><path d="M 1586.837325142376 604.209517756016 L 1597 600 L 1586.837325142376 595.790482243984 L 1586.837325142376 604.209517756016" fill="none" stroke="#000000" stroke-miterlimit="10"/></g><g transform="translate(2,10) scale(1,1)"><g><path fill="none" stroke="none"/><text fill="#000000" font-family="Arial" font-size="13px" font-style="normal" font-weight="normal" stroke="none" text-decoration="none" x="1294.5" y="594">17 : SetState(Ord1)</text></g></g><g transform="translate(2,10) scale(1,1)"><rect fill="#ffffff" height="72" stroke="none" width="13" x="1597" y="600"/></g><g transform="translate(2,10) scale(1,1)"><path d="M 1597 600 L 1610 600 L 1610 672 L 1597 672 L 1597 600 Z Z" fill="none" stroke="#000000" stroke-miterlimit="10"/></g><g transform="translate(2,10) scale(1,1)"><path d="M 1610 600 L 1817 600" fill="none" stroke="#000000" stroke-miterlimit="10"/></g><g transform="translate(2,10) scale(1,1)"><path d="M 1806.837325142376 604.209517756016 L 1817 600 L 1806.837325142376 595.790482243984" fill="#000000" stroke="none"/></g><g transform="translate(2,10) scale(1,1)"><path d="M 1806.837325142376 604.209517756016 L 1817 600 L 1806.837325142376 595.790482243984 L 1806.837325142376 604.209517756016" fill="none" stroke="#000000" stroke-miterlimit="10"/></g><g transform="translate(2,10) scale(1,1)"><g><path fill="none" stroke="none"/><text fill="#000000" font-family="Arial" font-size="13px" font-style="normal" font-weight="normal" stroke="none" text-decoration="none" x="1659.5" y="595">18 : AddOrdine(m)</text></g></g><g transform="translate(2,10) scale(1,1)"><rect fill="#ffffff" height="28" stroke="none" width="13" x="1817" y="600"/></g><g transform="translate(2,10) scale(1,1)"><path d="M 1817 600 L 1830 600 L 1830 628 L 1817 628 L 1817 600 Z Z" fill="none" stroke="#000000" stroke-miterlimit="10"/></g><g transform="translate(2,10) scale(1,1)"><path d="M 1817 624 L 1610 624" fill="none" stroke="#000000" stroke-dasharray="3" stroke-miterlimit="10"/></g><g transform="translate(2,10) scale(1,1)"><path d="M 1620.162674857624 619.790482243984 L 1610 624 L 1620.162674857624 628.209517756016" fill="none" stroke="#000000" stroke-miterlimit="10"/></g><g transform="translate(2,10) scale(1,1)"><g><path fill="none" stroke="none"/><text fill="#000000" font-family="Arial" font-size="13px" font-style="normal" font-weight="normal" stroke="none" text-decoration="none" x="1670.5" y="639">19 : Conferma</text></g></g><g transform="translate(2,10) scale(1,1)"><path d="M 1597 634 L 1107 634" fill="none" stroke="#000000" stroke-dasharray="3" stroke-miterlimit="10"/></g><g transform="translate(2,10) scale(1,1)"><path d="M 1117.162674857624 629.790482243984 L 1107 634 L 1117.162674857624 638.209517756016" fill="none" stroke="#000000" stroke-miterlimit="10"/></g><g transform="translate(2,10) scale(1,1)"><g><path fill="none" stroke="none"/><text fill="#000000" font-family="Arial" font-size="13px" font-style="normal" font-weight="normal" stroke="none" text-decoration="none" x="1309.5" y="649">20 : Conferma</text></g></g><g transform="translate(2,10) scale(1,1)"><path d="M 1107 680 L 2017 680" fill="none" stroke="#000000" stroke-miterlimit="10"/></g><g transform="translate(2,10) scale(1,1)"><path d="M 2006.837325142376 684.209517756016 L 2017 680 L 2006.837325142376 675.790482243984" fill="#000000" stroke="none"/></g><g transform="translate(2,10) scale(1,1)"><path d="M 2006.837325142376 684.209517756016 L 2017 680 L 2006.837325142376 675.790482243984 L 2006.837325142376 684.209517756016" fill="none" stroke="#000000" stroke-miterlimit="10"/></g><g transform="translate(2,10) scale(1,1)"><g><path fill="none" stroke="none"/><text fill="#000000" font-family="Arial" font-size="13px" font-style="normal" font-weight="normal" stroke="none" text-decoration="none" x="1513.5" y="675">21 : NotifyAllObs</text></g></g><g transform="translate(2,10) scale(1,1)"><rect fill="#ffffff" height="104" stroke="none" width="13" x="2017" y="680"/></g><g transform="translate(2,10) scale(1,1)"><path d="M 2017 680 L 2030 680 L 2030 784 L 2017 784 L 2017 680 Z Z" fill="none" stroke="#000000" stroke-miterlimit="10"/></g><g transform="translate(2,10) scale(1,1)"><path d="M 2030 696 L 2185 696" fill="none" stroke="#000000" stroke-miterlimit="10"/></g><g transform="translate(2,10) scale(1,1)"><path d="M 2174.837325142376 700.209517756016 L 2185 696 L 2174.837325142376 691.790482243984" fill="#000000" stroke="none"/></g><g transform="translate(2,10) scale(1,1)"><path d="M 2174.837325142376 700.209517756016 L 2185 696 L 2174.837325142376 691.790482243984 L 2174.837325142376 700.209517756016" fill="none" stroke="#000000" stroke-miterlimit="10"/></g><g transform="translate(2,10) scale(1,1)"><g><path fill="none" stroke="none"/><text fill="#000000" font-family="Arial" font-size="13px" font-style="normal" font-weight="normal" stroke="none" text-decoration="none" x="2077.87451171875" y="691">22 : Notify</text></g></g><g transform="translate(2,10) scale(1,1)"><rect fill="#ffffff" height="28" stroke="none" width="13" x="2185" y="696"/></g><g transform="translate(2,10) scale(1,1)"><path d="M 2185 696 L 2198 696 L 2198 724 L 2185 724 L 2185 696 Z Z" fill="none" stroke="#000000" stroke-miterlimit="10"/></g><g transform="translate(2,10) scale(1,1)"><path d="M 2185 719 L 2037 719" fill="none" stroke="#000000" stroke-miterlimit="10"/></g><g transform="translate(2,10) scale(1,1)"><path d="M 2047.162674857624 714.790482243984 L 2037 719 L 2047.162674857624 723.209517756016" fill="#000000" stroke="none"/></g><g transform="translate(2,10) scale(1,1)"><path d="M 2047.162674857624 714.790482243984 L 2037 719 L 2047.162674857624 723.209517756016 L 2047.162674857624 714.790482243984" fill="none" stroke="#000000" stroke-miterlimit="10"/></g><g transform="translate(2,10) scale(1,1)"><g><path fill="none" stroke="none"/><text fill="#000000" font-family="Arial" font-size="13px" font-style="normal" font-weight="normal" stroke="none" text-decoration="none" x="2076.529541015625" y="734">23 : Update</text></g></g><g transform="translate(2,10) scale(1,1)"><rect fill="#ffffff" height="28" stroke="none" width="13" x="2024" y="719"/></g><g transform="translate(2,10) scale(1,1)"><path d="M 2024 719 L 2037 719 L 2037 747 L 2024 747 L 2024 719 Z Z" fill="none" stroke="#000000" stroke-miterlimit="10"/></g><g transform="translate(2,10) scale(1,1)"><path d="M 2017 760 L 1107 760" fill="none" stroke="#000000" stroke-dasharray="3" stroke-miterlimit="10"/></g><g transform="translate(2,10) scale(1,1)"><path d="M 1117.162674857624 755.790482243984 L 1107 760 L 1117.162674857624 764.209517756016" fill="none" stroke="#000000" stroke-miterlimit="10"/></g><g transform="translate(2,10) scale(1,1)"><g><path fill="none" stroke="none"/><text fill="#000000" font-family="Arial" font-size="13px" font-style="normal" font-weight="normal" stroke="none" text-decoration="none" x="1519.5" y="775">24 : Conferma</text></g></g><g transform="translate(2,10) scale(1,1)"><path d="M 1094 761 L 838 761" fill="none" stroke="#000000" stroke-dasharray="3" stroke-miterlimit="10"/></g><g transform="translate(2,10) scale(1,1)"><path d="M 848.1626748576241 756.790482243984 L 838 761 L 848.1626748576241 765.209517756016" fill="none" stroke="#000000" stroke-miterlimit="10"/></g><g transform="translate(2,10) scale(1,1)"><g><path fill="none" stroke="none"/><text fill="#000000" font-family="Arial" font-size="13px" font-style="normal" font-weight="normal" stroke="none" text-decoration="none" x="923.5" y="776">25 : Conferma</text></g></g><g transform="translate(2,10) scale(1,1)"><path d="M 825 768 L 338 768" fill="none" stroke="#000000" stroke-miterlimit="10"/></g><g transform="translate(2,10) scale(1,1)"><path d="M 348.16267485762415 763.790482243984 L 338 768 L 348.16267485762415 772.209517756016" fill="#000000" stroke="none"/></g><g transform="translate(2,10) scale(1,1)"><path d="M 348.16267485762415 763.790482243984 L 338 768 L 348.16267485762415 772.209517756016 L 348.16267485762415 763.790482243984" fill="none" stroke="#000000" stroke-miterlimit="10"/></g><g transform="translate(2,10) scale(1,1)"><g><path fill="none" stroke="none"/><text fill="#000000" font-family="Arial" font-size="13px" font-style="normal" font-weight="normal" stroke="none" text-decoration="none" x="511.5" y="795">26 : UpdateGUI(CGUI)</text></g></g><g transform="translate(2,10) scale(1,1)"><rect fill="#ffffff" height="28" stroke="none" width="13" x="325" y="768"/></g><g transform="translate(2,10) scale(1,1)"><path d="M 325 768 L 338 768 L 338 796 L 325 796 L 325 768 Z Z" fill="none" stroke="#000000" stroke-miterlimit="10"/></g><g transform="translate(2,10) scale(1,1)"><path d="M 318 817 L 125 817" fill="none" stroke="#000000" stroke-dasharray="3" stroke-miterlimit="10"/></g><g transform="translate(2,10) scale(1,1)"><path d="M 135.16267485762415 812.790482243984 L 125 817 L 135.16267485762415 821.209517756016" fill="none" stroke="#000000" stroke-miterlimit="10"/></g><g transform="translate(2,10) scale(1,1)"><g><path fill="none" stroke="none"/><text fill="#000000" font-family="Arial" font-size="13px" font-style="normal" font-weight="normal" stroke="none" text-decoration="none" x="182.5" y="832">27 : Updated</text></g></g></g></svg>