<?xml version="1.0" encoding="UTF-8" standalone="no"?><svg xmlns="http://www.w3.org/2000/svg" xmlns:xlink="http://www.w3.org/1999/xlink" height="1404" version="1.1" width="1772"><defs/><g><g transform="translate(10,10) scale(1,1)"><path d="M 0 0 L 1752 0 L 1752 1384 L 0 1384 L 0 0" fill="none" stroke="#000000" stroke-miterlimit="10"/></g><g transform="translate(10,10) scale(1,1)"><path d="M 0 0 L 0 22 L 96.2216796875 22 L 107.2216796875 11 L 107.2216796875 0 L 0 0" fill="#ffffff" stroke="none"/></g><g transform="translate(10,10) scale(1,1)"><path d="M 0 0 L 0 22 L 96.2216796875 22 L 107.2216796875 11 L 107.2216796875 0 L 0 0 L 0 0" fill="none" stroke="#000000" stroke-miterlimit="10"/></g><g transform="translate(10,10) scale(1,1)"><g><path fill="none" stroke="none"/><text fill="#000000" font-family="Arial" font-size="13px" font-style="normal" font-weight="normal" stroke="none" text-decoration="none" x="24.72998046875" y="16">Pagamento</text></g></g><g transform="translate(10,10) scale(1,1)"><g><path fill="none" stroke="none"/><text fill="#000000" font-family="Arial" font-size="13px" font-style="normal" font-weight="bold" stroke="none" text-decoration="none" x="4.279541015625" y="16">sd</text></g></g><g transform="translate(10,10) scale(1,1)"><rect fill="#C0C0C0" height="32" opacity="0.2" stroke="none" width="99" x="15" y="135"/></g><g transform="translate(10,10) scale(1,1)"><rect fill="#ffffff" height="32" stroke="none" width="99" x="8" y="128"/></g><g transform="translate(10,10) scale(1,1)"><path d="M 8 128 L 107 128 L 107 160 L 8 160 L 8 128 Z Z" fill="none" stroke="#000000" stroke-miterlimit="10"/></g><g transform="translate(10,10) scale(1,1)"><rect fill="#ffffff" height="32" stroke="none" width="99" x="8" y="128"/></g><g transform="translate(10,10) scale(1,1)"><path d="M 8 128 L 107 128 L 107 160 L 8 160 L 8 128 Z Z" fill="none" stroke="#000000" stroke-miterlimit="10"/></g><g transform="translate(10,10) scale(1,1)"><g><path fill="none" stroke="none"/><text fill="#000000" font-family="Arial" font-size="13px" font-style="normal" font-weight="bold" stroke="none" text-decoration="none" x="18.852294921875" y="146">User: Utente</text></g></g><g transform="translate(10,10) scale(1,1)"><rect fill="#C0C0C0" height="32" opacity="0.2" stroke="none" width="159" x="311" y="135"/></g><g transform="translate(10,10) scale(1,1)"><rect fill="#ffffff" height="32" stroke="none" width="159" x="304" y="128"/></g><g transform="translate(10,10) scale(1,1)"><path d="M 304 128 L 463 128 L 463 160 L 304 160 L 304 128 Z Z" fill="none" stroke="#000000" stroke-miterlimit="10"/></g><g transform="translate(10,10) scale(1,1)"><rect fill="#ffffff" height="32" stroke="none" width="159" x="304" y="128"/></g><g transform="translate(10,10) scale(1,1)"><path d="M 304 128 L 463 128 L 463 160 L 304 160 L 304 128 Z Z" fill="none" stroke="#000000" stroke-miterlimit="10"/></g><g transform="translate(10,10) scale(1,1)"><g><path fill="none" stroke="none"/><text fill="#000000" font-family="Arial" font-size="13px" font-style="normal" font-weight="bold" stroke="none" text-decoration="none" x="325.352294921875" y="146">CGUI: GUI Carrello</text></g></g><g transform="translate(10,10) scale(1,1)"><rect fill="#C0C0C0" height="32" opacity="0.2" stroke="none" width="143" x="495" y="343"/></g><g transform="translate(10,10) scale(1,1)"><rect fill="#ffffff" height="32" stroke="none" width="143" x="488" y="336"/></g><g transform="translate(10,10) scale(1,1)"><path d="M 488 336 L 631 336 L 631 368 L 488 368 L 488 336 Z Z" fill="none" stroke="#000000" stroke-miterlimit="10"/></g><g transform="translate(10,10) scale(1,1)"><rect fill="#ffffff" height="32" stroke="none" width="143" x="488" y="336"/></g><g transform="translate(10,10) scale(1,1)"><path d="M 488 336 L 631 336 L 631 368 L 488 368 L 488 336 Z Z" fill="none" stroke="#000000" stroke-miterlimit="10"/></g><g transform="translate(10,10) scale(1,1)"><g><path fill="none" stroke="none"/><text fill="#000000" font-family="Arial" font-size="13px" font-style="normal" font-weight="bold" stroke="none" text-decoration="none" x="510.740478515625" y="354">Manager Utente</text></g></g><g transform="translate(10,10) scale(1,1)"><rect fill="#C0C0C0" height="29" opacity="0.2" stroke="none" width="120.9853515625" x="911" y="159"/></g><g transform="translate(10,10) scale(1,1)"><rect fill="#ffffff" height="29" stroke="none" width="120.9853515625" x="904" y="152"/></g><g transform="translate(10,10) scale(1,1)"><path d="M 904 152 L 1024.9853515625 152 L 1024.9853515625 181 L 904 181 L 904 152 Z Z" fill="none" stroke="#000000" stroke-miterlimit="10"/></g><g transform="translate(10,10) scale(1,1)"><rect fill="#ffffff" height="29" stroke="none" width="120.9853515625" x="904" y="152"/></g><g transform="translate(10,10) scale(1,1)"><path d="M 904 152 L 1024.9853515625 152 L 1024.9853515625 181 L 904 181 L 904 152 Z Z" fill="none" stroke="#000000" stroke-miterlimit="10"/></g><g transform="translate(10,10) scale(1,1)"><g><path fill="none" stroke="none"/><text fill="#000000" font-family="Arial" font-size="13px" font-style="normal" font-weight="bold" stroke="none" text-decoration="none" x="908.5" y="170">CartUser: Carrello</text></g></g><g transform="translate(10,10) scale(1,1)"><rect fill="#C0C0C0" height="29" opacity="0.2" stroke="none" width="99" x="1031" y="407"/></g><g transform="translate(10,10) scale(1,1)"><rect fill="#ffffff" height="29" stroke="none" width="99" x="1024" y="400"/></g><g transform="translate(10,10) scale(1,1)"><path d="M 1024 400 L 1123 400 L 1123 429 L 1024 429 L 1024 400 Z Z" fill="none" stroke="#000000" stroke-miterlimit="10"/></g><g transform="translate(10,10) scale(1,1)"><rect fill="#ffffff" height="29" stroke="none" width="99" x="1024" y="400"/></g><g transform="translate(10,10) scale(1,1)"><path d="M 1024 400 L 1123 400 L 1123 429 L 1024 429 L 1024 400 Z Z" fill="none" stroke="#000000" stroke-miterlimit="10"/></g><g transform="translate(10,10) scale(1,1)"><g><path fill="none" stroke="none"/><text fill="#000000" font-family="Arial" font-size="13px" font-style="normal" font-weight="bold" stroke="none" text-decoration="none" x="1033.411376953125" y="418">Ord1: Ordine</text></g></g><g transform="translate(10,10) scale(1,1)"><rect fill="#C0C0C0" height="31" opacity="0.2" stroke="none" width="99" x="663" y="615"/></g><g transform="translate(10,10) scale(1,1)"><rect fill="#ffffff" height="31" stroke="none" width="99" x="656" y="608"/></g><g transform="translate(10,10) scale(1,1)"><path d="M 656 608 L 755 608 L 755 639 L 656 639 L 656 608 Z Z" fill="none" stroke="#000000" stroke-miterlimit="10"/></g><g transform="translate(10,10) scale(1,1)"><rect fill="#ffffff" height="31" stroke="none" width="99" x="656" y="608"/></g><g transform="translate(10,10) scale(1,1)"><path d="M 656 608 L 755 608 L 755 639 L 656 639 L 656 608 Z Z" fill="none" stroke="#000000" stroke-miterlimit="10"/></g><g transform="translate(10,10) scale(1,1)"><g><path fill="none" stroke="none"/><text fill="#000000" font-family="Arial" font-size="13px" font-style="normal" font-weight="bold" stroke="none" text-decoration="none" x="667.220458984375" y="626">m: Memento</text></g></g><g transform="translate(10,10) scale(1,1)"><rect fill="#C0C0C0" height="40" opacity="0.2" stroke="none" width="159.24267578125" x="519" y="783"/></g><g transform="translate(10,10) scale(1,1)"><rect fill="#ffffff" height="40" stroke="none" width="159.24267578125" x="512" y="776"/></g><g transform="translate(10,10) scale(1,1)"><path d="M 512 776 L 671.24267578125 776 L 671.24267578125 816 L 512 816 L 512 776 Z Z" fill="none" stroke="#000000" stroke-miterlimit="10"/></g><g transform="translate(10,10) scale(1,1)"><rect fill="#ffffff" height="40" stroke="none" width="159.24267578125" x="512" y="776"/></g><g transform="translate(10,10) scale(1,1)"><path d="M 512 776 L 671.24267578125 776 L 671.24267578125 816 L 512 816 L 512 776 Z Z" fill="none" stroke="#000000" stroke-miterlimit="10"/></g><g transform="translate(10,10) scale(1,1)"><g><path fill="none" stroke="none"/><text fill="#000000" font-family="Arial" font-size="13px" font-style="normal" font-weight="bold" stroke="none" text-decoration="none" x="516.5" y="794">Storico: Storico acquisti</text></g></g><g transform="translate(10,10) scale(1,1)"><rect fill="#C0C0C0" height="32" opacity="0.2" stroke="none" width="111" x="63" y="519"/></g><g transform="translate(10,10) scale(1,1)"><rect fill="#ffffff" height="32" stroke="none" width="111" x="56" y="512"/></g><g transform="translate(10,10) scale(1,1)"><path d="M 56 512 L 167 512 L 167 544 L 56 544 L 56 512 Z Z" fill="none" stroke="#000000" stroke-miterlimit="10"/></g><g transform="translate(10,10) scale(1,1)"><rect fill="#ffffff" height="32" stroke="none" width="111" x="56" y="512"/></g><g transform="translate(10,10) scale(1,1)"><path d="M 56 512 L 167 512 L 167 544 L 56 544 L 56 512 Z Z" fill="none" stroke="#000000" stroke-miterlimit="10"/></g><g transform="translate(10,10) scale(1,1)"><g><path fill="none" stroke="none"/><text fill="#000000" font-family="Arial" font-size="13px" font-style="normal" font-weight="bold" stroke="none" text-decoration="none" x="73.58544921875" y="530">Art: Articolo</text></g></g><g transform="translate(10,10) scale(1,1)"><rect fill="#C0C0C0" height="40" opacity="0.2" stroke="none" width="143" x="255" y="663"/></g><g transform="translate(10,10) scale(1,1)"><rect fill="#ffffff" height="40" stroke="none" width="143" x="248" y="656"/></g><g transform="translate(10,10) scale(1,1)"><path d="M 248 656 L 391 656 L 391 696 L 248 696 L 248 656 Z Z" fill="none" stroke="#000000" stroke-miterlimit="10"/></g><g transform="translate(10,10) scale(1,1)"><rect fill="#ffffff" height="40" stroke="none" width="143" x="248" y="656"/></g><g transform="translate(10,10) scale(1,1)"><path d="M 248 656 L 391 656 L 391 696 L 248 696 L 248 656 Z Z" fill="none" stroke="#000000" stroke-miterlimit="10"/></g><g transform="translate(10,10) scale(1,1)"><g><path fill="none" stroke="none"/><text fill="#000000" font-family="Arial" font-size="13px" font-style="normal" font-weight="bold" stroke="none" text-decoration="none" x="275.42822265625" y="674">obs: Observer</text></g></g><g transform="translate(10,10) scale(1,1)"><rect fill="#C0C0C0" height="32" opacity="0.2" stroke="none" width="103" x="887" y="599"/></g><g transform="translate(10,10) scale(1,1)"><rect fill="#ffffff" height="32" stroke="none" width="103" x="880" y="592"/></g><g transform="translate(10,10) scale(1,1)"><path d="M 880 592 L 983 592 L 983 624 L 880 624 L 880 592 Z Z" fill="none" stroke="#000000" stroke-miterlimit="10"/></g><g transform="translate(10,10) scale(1,1)"><rect fill="#ffffff" height="32" stroke="none" width="103" x="880" y="592"/></g><g transform="translate(10,10) scale(1,1)"><path d="M 880 592 L 983 592 L 983 624 L 880 624 L 880 592 Z Z" fill="none" stroke="#000000" stroke-miterlimit="10"/></g><g transform="translate(10,10) scale(1,1)"><g><path fill="none" stroke="none"/><text fill="#000000" font-family="Arial" font-size="13px" font-style="normal" font-weight="bold" stroke="none" text-decoration="none" x="902.59912109375" y="610">Pr: Proxy</text></g></g><g transform="translate(10,10) scale(1,1)"><path d="M 108 144 L 303 144" fill="none" stroke="#000000" stroke-miterlimit="10"/></g><g transform="translate(10,10) scale(1,1)"><path d="M 225 134 L 185 134" fill="none" stroke="#000000" stroke-miterlimit="10"/></g><g transform="translate(10,10) scale(1,1)"><path d="M 213 138 L 225 134 L 213 129" fill="#000000" stroke="none"/></g><g transform="translate(10,10) scale(1,1)"><g><path fill="none" stroke="none"/><text fill="#000000" font-family="Arial" font-size="13px" font-style="normal" font-weight="normal" stroke="none" text-decoration="none" x="130.662353515625" y="128">1 : GUI Interact Checkout</text></g></g><g transform="translate(10,10) scale(1,1)"><path d="M 397 161 L 545 335" fill="none" stroke="#000000" stroke-miterlimit="10"/></g><g transform="translate(10,10) scale(1,1)"><path d="M 491 256 L 466 226" fill="none" stroke="#000000" stroke-miterlimit="10"/></g><g transform="translate(10,10) scale(1,1)"><path d="M 480 250 L 491 256 L 487 244" fill="#000000" stroke="none"/></g><g transform="translate(10,10) scale(1,1)"><g><path fill="none" stroke="none"/><text fill="#000000" font-family="Arial" font-size="13px" font-style="normal" font-weight="normal" stroke="none" text-decoration="none" x="422.95458984375" y="235">2 : Checkout(User)</text></g></g><g transform="translate(10,10) scale(1,1)"><path d="M 518 335 L 98 161" fill="none" stroke="#000000" stroke-miterlimit="10"/></g><g transform="translate(10,10) scale(1,1)"><path d="M 286 250 L 322 265" fill="none" stroke="#000000" stroke-miterlimit="10"/></g><g transform="translate(10,10) scale(1,1)"><path d="M 297 250 L 286 250 L 294 258" fill="#000000" stroke="none"/></g><g transform="translate(10,10) scale(1,1)"><g><path fill="none" stroke="none"/><text fill="#000000" font-family="Arial" font-size="13px" font-style="normal" font-weight="normal" stroke="none" text-decoration="none" x="214.643310546875" y="243.5">3 : Richiesta parametri pagamento</text></g></g><g transform="translate(10,10) scale(1,1)"><path d="M 69 161 L 168 304 L 487 343" fill="none" stroke="#000000" stroke-miterlimit="10"/></g><g transform="translate(10,10) scale(1,1)"><path d="M 174 314 L 135 310" fill="none" stroke="#000000" stroke-miterlimit="10"/></g><g transform="translate(10,10) scale(1,1)"><path d="M 162 317 L 174 314 L 163 308" fill="#000000" stroke="none"/></g><g transform="translate(10,10) scale(1,1)"><g><path fill="none" stroke="none"/><text fill="#000000" font-family="Arial" font-size="13px" font-style="normal" font-weight="normal" stroke="none" text-decoration="none" x="77.662353515625" y="297">4 : GUI Interact Inserimento</text></g></g><g transform="translate(10,10) scale(1,1)"><path d="M 596 335 L 929 182" fill="none" stroke="#000000" stroke-miterlimit="10"/></g><g transform="translate(10,10) scale(1,1)"><path d="M 775 240 L 739 256" fill="none" stroke="#000000" stroke-miterlimit="10"/></g><g transform="translate(10,10) scale(1,1)"><path d="M 766 248 L 775 240 L 763 240" fill="#000000" stroke="none"/></g><g transform="translate(10,10) scale(1,1)"><g><path fill="none" stroke="none"/><text fill="#000000" font-family="Arial" font-size="13px" font-style="normal" font-weight="normal" stroke="none" text-decoration="none" x="673.62646484375" y="242">5 : pagamento(User, Ordine)</text></g></g><g transform="translate(10,10) scale(1,1)"><path d="M 971 182 L 1066 399" fill="none" stroke="#000000" stroke-miterlimit="10"/></g><g transform="translate(10,10) scale(1,1)"><path d="M 1035 303 L 1019 267" fill="none" stroke="#000000" stroke-miterlimit="10"/></g><g transform="translate(10,10) scale(1,1)"><path d="M 1026 294 L 1035 303 L 1034 291" fill="#000000" stroke="none"/></g><g transform="translate(10,10) scale(1,1)"><g><path fill="none" stroke="none"/><text fill="#000000" font-family="Arial" font-size="13px" font-style="normal" font-weight="normal" stroke="none" text-decoration="none" x="954.122314453125" y="279">6 : SetCarrello(CartUser)</text></g></g><g transform="translate(10,10) scale(1,1)"><path d="M 1073 400 L 1073 379 L 1152 379 L 1152 414 L 1123 414" fill="none" stroke="#000000" stroke-miterlimit="10"/></g><g transform="translate(10,10) scale(1,1)"><path d="M 1161 398 L 1161 358" fill="none" stroke="#000000" stroke-miterlimit="10"/></g><g transform="translate(10,10) scale(1,1)"><path d="M 1156 386 L 1161 398 L 1165 386" fill="#000000" stroke="none"/></g><g transform="translate(10,10) scale(1,1)"><g><path fill="none" stroke="none"/><text fill="#000000" font-family="Arial" font-size="13px" font-style="normal" font-weight="normal" stroke="none" text-decoration="none" x="1166.701416015625" y="372">7 : SetTotale(cart)</text></g></g><g transform="translate(10,10) scale(1,1)"><path d="M 1073 429 L 1073 456 L 1152 456 L 1152 414 L 1123 414" fill="none" stroke="#000000" stroke-miterlimit="10"/></g><g transform="translate(10,10) scale(1,1)"><path d="M 1142 435 L 1142 475" fill="none" stroke="#000000" stroke-miterlimit="10"/></g><g transform="translate(10,10) scale(1,1)"><path d="M 1146 446 L 1142 435 L 1137 446" fill="#000000" stroke="none"/></g><g transform="translate(10,10) scale(1,1)"><g><path fill="none" stroke="none"/><text fill="#000000" font-family="Arial" font-size="13px" font-style="normal" font-weight="normal" stroke="none" text-decoration="none" x="1163.781494140625" y="443">8 : SetID(ID pagamento globale)</text></g></g><g transform="translate(10,10) scale(1,1)"><path d="M 958 182 L 936 237 L 931 591" fill="none" stroke="#000000" stroke-miterlimit="10"/></g><g transform="translate(10,10) scale(1,1)"><path d="M 919 415 L 919 376" fill="none" stroke="#000000" stroke-miterlimit="10"/></g><g transform="translate(10,10) scale(1,1)"><path d="M 914 403 L 919 415 L 923 403" fill="#000000" stroke="none"/></g><g transform="translate(10,10) scale(1,1)"><g><path fill="none" stroke="none"/><text fill="#000000" font-family="Arial" font-size="13px" font-style="normal" font-weight="normal" stroke="none" text-decoration="none" x="820.603271484375" y="361.5">9 : pagamento(Ordine)</text></g></g><g transform="translate(10,10) scale(1,1)"><path d="M 944 592 L 944 572 L 1012 572 L 1012 608 L 983 608" fill="none" stroke="#000000" stroke-miterlimit="10"/></g><g transform="translate(10,10) scale(1,1)"><path d="M 1021 591 L 1021 551" fill="none" stroke="#000000" stroke-miterlimit="10"/></g><g transform="translate(10,10) scale(1,1)"><path d="M 1016 579 L 1021 591 L 1025 579" fill="#000000" stroke="none"/></g><g transform="translate(10,10) scale(1,1)"><g><path fill="none" stroke="none"/><text fill="#000000" font-family="Arial" font-size="13px" font-style="normal" font-weight="normal" stroke="none" text-decoration="none" x="1031.412353515625" y="565">10 : CheckCredenziali</text></g></g><g transform="translate(10,10) scale(1,1)"><path d="M 931 624 L 931 648 L 1012 648 L 1012 608 L 983 608" fill="none" stroke="#000000" stroke-miterlimit="10"/></g><g transform="translate(10,10) scale(1,1)"><path d="M 1002 627 L 1002 667" fill="none" stroke="#000000" stroke-miterlimit="10"/></g><g transform="translate(10,10) scale(1,1)"><path d="M 1006 638 L 1002 627 L 997 638" fill="#000000" stroke="none"/></g><g transform="translate(10,10) scale(1,1)"><g><path fill="none" stroke="none"/><text fill="#000000" font-family="Arial" font-size="13px" font-style="normal" font-weight="normal" stroke="none" text-decoration="none" x="1029.654296875" y="643">11 : Paga</text></g></g><g transform="translate(10,10) scale(1,1)"><path d="M 1073 429 L 1073 456 L 984 456 L 984 416 L 1024 416" fill="none" stroke="#000000" stroke-miterlimit="10"/></g><g transform="translate(10,10) scale(1,1)"><path d="M 974 435 L 974 475" fill="none" stroke="#000000" stroke-miterlimit="10"/></g><g transform="translate(10,10) scale(1,1)"><path d="M 978 446 L 974 435 L 969 446" fill="#000000" stroke="none"/></g><g transform="translate(10,10) scale(1,1)"><g><path fill="none" stroke="none"/><text fill="#000000" font-family="Arial" font-size="13px" font-style="normal" font-weight="normal" stroke="none" text-decoration="none" x="983.44189453125" y="474">12 : SaveMemento</text></g></g><g transform="translate(10,10) scale(1,1)"><path d="M 1045 430 L 733 607" fill="none" stroke="#000000" stroke-miterlimit="10"/></g><g transform="translate(10,10) scale(1,1)"><path d="M 876 536 L 910 517" fill="none" stroke="#000000" stroke-miterlimit="10"/></g><g transform="translate(10,10) scale(1,1)"><path d="M 883 526 L 876 536 L 887 534" fill="#000000" stroke="none"/></g><g transform="translate(10,10) scale(1,1)"><g><path fill="none" stroke="none"/><text fill="#000000" font-family="Arial" font-size="13px" font-style="normal" font-weight="normal" stroke="none" text-decoration="none" x="782.63916015625" y="513.5">13 : SetState(Ord1)</text></g></g><g transform="translate(10,10) scale(1,1)"><path d="M 694 640 L 605 775" fill="none" stroke="#000000" stroke-miterlimit="10"/></g><g transform="translate(10,10) scale(1,1)"><path d="M 647 729 L 668 696" fill="none" stroke="#000000" stroke-miterlimit="10"/></g><g transform="translate(10,10) scale(1,1)"><path d="M 649 717 L 647 729 L 656 722" fill="#000000" stroke="none"/></g><g transform="translate(10,10) scale(1,1)"><g><path fill="none" stroke="none"/><text fill="#000000" font-family="Arial" font-size="13px" font-style="normal" font-weight="normal" stroke="none" text-decoration="none" x="662.03369140625" y="714.5">14 : AddOrdine(m)</text></g></g><g transform="translate(10,10) scale(1,1)"><path d="M 1023 420 L 168 521" fill="none" stroke="#000000" stroke-miterlimit="10"/></g><g transform="translate(10,10) scale(1,1)"><path d="M 577 481 L 616 477" fill="none" stroke="#000000" stroke-miterlimit="10"/></g><g transform="translate(10,10) scale(1,1)"><path d="M 587 475 L 577 481 L 588 484" fill="#000000" stroke="none"/></g><g transform="translate(10,10) scale(1,1)"><g><path fill="none" stroke="none"/><text fill="#000000" font-family="Arial" font-size="13px" font-style="normal" font-weight="normal" stroke="none" text-decoration="none" x="504.0927734375" y="457">15 : NotifyAllObs</text></g></g><g transform="translate(10,10) scale(1,1)"><path d="M 135 545 L 289 655" fill="none" stroke="#000000" stroke-miterlimit="10"/></g><g transform="translate(10,10) scale(1,1)"><path d="M 233 603 L 201 580" fill="none" stroke="#000000" stroke-miterlimit="10"/></g><g transform="translate(10,10) scale(1,1)"><path d="M 221 600 L 233 603 L 226 592" fill="#000000" stroke="none"/></g><g transform="translate(10,10) scale(1,1)"><g><path fill="none" stroke="none"/><text fill="#000000" font-family="Arial" font-size="13px" font-style="normal" font-weight="normal" stroke="none" text-decoration="none" x="186.7373046875" y="585.5">16 : Notify</text></g></g><g transform="translate(10,10) scale(1,1)"><path d="M 247 664 L 144 648 L 116 545" fill="none" stroke="#000000" stroke-miterlimit="10"/></g><g transform="translate(10,10) scale(1,1)"><path d="M 111 598 L 121 636" fill="none" stroke="#000000" stroke-miterlimit="10"/></g><g transform="translate(10,10) scale(1,1)"><path d="M 118 607 L 111 598 L 109 609" fill="#000000" stroke="none"/></g><g transform="translate(10,10) scale(1,1)"><g><path fill="none" stroke="none"/><text fill="#000000" font-family="Arial" font-size="13px" font-style="normal" font-weight="normal" stroke="none" text-decoration="none" x="64.392333984375" y="659">17 : Update</text></g></g><g transform="translate(10,10) scale(1,1)"><path d="M 903 164 L 464 147" fill="none" stroke="#000000" stroke-miterlimit="10"/></g><g transform="translate(10,10) scale(1,1)"><path d="M 663 164 L 702 165" fill="none" stroke="#000000" stroke-miterlimit="10"/></g><g transform="translate(10,10) scale(1,1)"><path d="M 674 159 L 663 164 L 673 168" fill="#000000" stroke="none"/></g><g transform="translate(10,10) scale(1,1)"><g><path fill="none" stroke="none"/><text fill="#000000" font-family="Arial" font-size="13px" font-style="normal" font-weight="normal" stroke="none" text-decoration="none" x="614.75732421875" y="145.5">18 : UpdateGUI(CGUI)</text></g></g></g></svg>