<?xml version="1.0" encoding="UTF-8" standalone="no"?><svg xmlns="http://www.w3.org/2000/svg" xmlns:xlink="http://www.w3.org/1999/xlink" height="579" version="1.1" width="867"><defs/><g><g transform="translate(-78,-446) scale(1,1)"><rect fill="#C0C0C0" height="559" opacity="0.2" stroke="none" width="703" x="239" y="463"/></g><g transform="translate(-78,-446) scale(1,1)"><rect fill="#ffffff" height="559" stroke="none" width="703" x="232" y="456"/></g><g transform="translate(-78,-446) scale(1,1)"><path d="M 232 456 L 935 456 L 935 1015 L 232 1015 L 232 456 Z Z" fill="none" stroke="#000000" stroke-miterlimit="10"/></g><g transform="translate(-78,-446) scale(1,1)"><g><path fill="none" stroke="none"/><text fill="#000000" font-family="Arial" font-size="13px" font-style="normal" font-weight="bold" stroke="none" text-decoration="none" x="500.437744140625" y="474">Gestione del profilo Utente</text></g></g><g transform="translate(-78,-446) scale(1,1)"><path d="M 117.67703675426137 720.48 C 117.67703675426137 711.930631296 124.44128080138864 705 132.785400390625 705 C 141.12951997986136 705 147.89376402698863 711.930631296 147.89376402698863 720.48 C 147.89376402698863 729.029368704 141.12951997986136 735.96 132.785400390625 735.96 C 124.44128080138864 735.96 117.67703675426137 729.029368704 117.67703675426137 720.48 Z" fill="#ffffff" stroke="none"/></g><g transform="translate(-78,-446) scale(1,1)"><path d="M 117.67703675426137 720.48 C 117.67703675426137 711.930631296 124.44128080138864 705 132.785400390625 705 C 141.12951997986136 705 147.89376402698863 711.930631296 147.89376402698863 720.48 C 147.89376402698863 729.029368704 141.12951997986136 735.96 132.785400390625 735.96 C 124.44128080138864 735.96 117.67703675426137 729.029368704 117.67703675426137 720.48 Z" fill="none" stroke="#000000" stroke-miterlimit="10"/></g><g transform="translate(-78,-446) scale(1,1)"><path d="M 132.785400390625 735.96 L 132.785400390625 766.04" fill="none" stroke="#000000" stroke-miterlimit="10"/></g><g transform="translate(-78,-446) scale(1,1)"><path d="M 116.78830948153409 747.24 L 148.7824912997159 747.24" fill="none" stroke="#000000" stroke-miterlimit="10"/></g><g transform="translate(-78,-446) scale(1,1)"><path d="M 132.785400390625 766.04 L 110.56721857244318 797" fill="none" stroke="#000000" stroke-miterlimit="10"/></g><g transform="translate(-78,-446) scale(1,1)"><path d="M 132.785400390625 766.04 L 155.00358220880682 797" fill="none" stroke="#000000" stroke-miterlimit="10"/></g><g transform="translate(-78,-446) scale(1,1)"><g><path fill="none" stroke="none"/><text fill="#000000" font-family="Arial" font-size="13px" font-style="normal" font-weight="bold" stroke="none" text-decoration="none" x="112.561767578125" y="816">Utente</text></g></g><g transform="translate(-78,-446) scale(1,1)"><path d="M 303 635 C 303 619.5360256 332.7730608 607 369.5 607 C 406.2269392 607 436 619.5360256 436 635 C 436 650.4639744 406.2269392 663 369.5 663 C 332.7730608 663 303 650.4639744 303 635 Z" fill="#C0C0C0" opacity="0.2" stroke="none"/></g><g transform="translate(-78,-446) scale(1,1)"><path d="M 296 628 C 296 612.5360256 325.7730608 600 362.5 600 C 399.2269392 600 429 612.5360256 429 628 C 429 643.4639744 399.2269392 656 362.5 656 C 325.7730608 656 296 643.4639744 296 628 Z" fill="#ffffff" stroke="none"/></g><g transform="translate(-78,-446) scale(1,1)"><path d="M 296 628 C 296 612.5360256 325.7730608 600 362.5 600 C 399.2269392 600 429 612.5360256 429 628 C 429 643.4639744 399.2269392 656 362.5 656 C 325.7730608 656 296 643.4639744 296 628 Z" fill="none" stroke="#000000" stroke-miterlimit="10"/></g><g transform="translate(-78,-446) scale(1,1)"><g><path fill="none" stroke="none"/><text fill="#000000" font-family="Arial" font-size="13px" font-style="normal" font-weight="bold" stroke="none" text-decoration="none" x="319.878662109375" y="633.5">Registrazione</text></g></g><g transform="translate(-78,-446) scale(1,1)"><path d="M 179 736 L 313 657" fill="none" stroke="#000000" stroke-miterlimit="10"/></g><g transform="translate(-78,-446) scale(1,1)"><path d="M 311 764 C 311 747.9837408 340.5492032 735 377 735 C 413.4507968 735 443 747.9837408 443 764 C 443 780.0162592 413.4507968 793 377 793 C 340.5492032 793 311 780.0162592 311 764 Z" fill="#C0C0C0" opacity="0.2" stroke="none"/></g><g transform="translate(-78,-446) scale(1,1)"><path d="M 304 757 C 304 740.9837408 333.5492032 728 370 728 C 406.4507968 728 436 740.9837408 436 757 C 436 773.0162592 406.4507968 786 370 786 C 333.5492032 786 304 773.0162592 304 757 Z" fill="#ffffff" stroke="none"/></g><g transform="translate(-78,-446) scale(1,1)"><path d="M 304 757 C 304 740.9837408 333.5492032 728 370 728 C 406.4507968 728 436 740.9837408 436 757 C 436 773.0162592 406.4507968 786 370 786 C 333.5492032 786 304 773.0162592 304 757 Z" fill="none" stroke="#000000" stroke-miterlimit="10"/></g><g transform="translate(-78,-446) scale(1,1)"><g><path fill="none" stroke="none"/><text fill="#000000" font-family="Arial" font-size="13px" font-style="normal" font-weight="bold" stroke="none" text-decoration="none" x="352.312255859375" y="762.5">Login</text></g></g><g transform="translate(-78,-446) scale(1,1)"><path d="M 179 762 L 303 759" fill="none" stroke="#000000" stroke-miterlimit="10"/></g><g transform="translate(-78,-446) scale(1,1)"><path d="M 279 887 C 279 869.3268864 325.7862384 855 383.5 855 C 441.2137616 855 488 869.3268864 488 887 C 488 904.6731136 441.2137616 919 383.5 919 C 325.7862384 919 279 904.6731136 279 887 Z" fill="#C0C0C0" opacity="0.2" stroke="none"/></g><g transform="translate(-78,-446) scale(1,1)"><path d="M 272 880 C 272 862.3268864 318.7862384 848 376.5 848 C 434.2137616 848 481 862.3268864 481 880 C 481 897.6731136 434.2137616 912 376.5 912 C 318.7862384 912 272 897.6731136 272 880 Z" fill="#ffffff" stroke="none"/></g><g transform="translate(-78,-446) scale(1,1)"><path d="M 272 880 C 272 862.3268864 318.7862384 848 376.5 848 C 434.2137616 848 481 862.3268864 481 880 C 481 897.6731136 434.2137616 912 376.5 912 C 318.7862384 912 272 897.6731136 272 880 Z" fill="none" stroke="#000000" stroke-miterlimit="10"/></g><g transform="translate(-78,-446) scale(1,1)"><g><path fill="none" stroke="none"/><text fill="#000000" font-family="Arial" font-size="13px" font-style="normal" font-weight="bold" stroke="none" text-decoration="none" x="306.913818359375" y="885.5">Visualizzazione profilo</text></g></g><g transform="translate(-78,-446) scale(1,1)"><path d="M 179 785 L 307 847" fill="none" stroke="#000000" stroke-miterlimit="10"/></g><g transform="translate(-78,-446) scale(1,1)"><path d="M 679 767 C 679 744.908608 707.6537728 727 743 727 C 778.3462272 727 807 744.908608 807 767 C 807 789.091392 778.3462272 807 743 807 C 707.6537728 807 679 789.091392 679 767 Z" fill="#C0C0C0" opacity="0.2" stroke="none"/></g><g transform="translate(-78,-446) scale(1,1)"><path d="M 672 760 C 672 737.908608 700.6537728 720 736 720 C 771.3462272 720 800 737.908608 800 760 C 800 782.091392 771.3462272 800 736 800 C 700.6537728 800 672 782.091392 672 760 Z" fill="#ffffff" stroke="none"/></g><g transform="translate(-78,-446) scale(1,1)"><path d="M 672 760 C 672 737.908608 700.6537728 720 736 720 C 771.3462272 720 800 737.908608 800 760 C 800 782.091392 771.3462272 800 736 800 C 700.6537728 800 672 782.091392 672 760 Z" fill="none" stroke="#000000" stroke-miterlimit="10"/></g><g transform="translate(-78,-446) scale(1,1)"><g><path fill="none" stroke="none"/><text fill="#000000" font-family="Arial" font-size="13px" font-style="normal" font-weight="bold" stroke="none" text-decoration="none" x="707.591064453125" y="765.5">Time-Out</text></g></g><g transform="translate(-78,-446) scale(1,1)"><path d="M 671 759 L 437 758" fill="none" stroke="#000000" stroke-dasharray="3" stroke-miterlimit="10"/></g><g transform="translate(-78,-446) scale(1,1)"><path d="M 447.1805712871023 753.8339505201897 L 437 758 L 447.1445928313957 762.2529091555305" fill="none" stroke="#000000" stroke-miterlimit="10"/></g><g transform="translate(-78,-446) scale(1,1)"><g><path fill="none" stroke="none"/><text fill="#000000" font-family="Arial" font-size="13px" font-style="normal" font-weight="normal" stroke="none" text-decoration="none" x="526.5" y="793">«extend»</text></g></g><g transform="translate(-78,-446) scale(1,1)"><path d="M 671 782 L 475 847" fill="none" stroke="#000000" stroke-dasharray="3" stroke-miterlimit="10"/></g><g transform="translate(-78,-446) scale(1,1)"><path d="M 483.32102083692797 839.80551515177 L 475 847 L 485.9711192835136 847.7965812368591" fill="none" stroke="#000000" stroke-miterlimit="10"/></g><g transform="translate(-78,-446) scale(1,1)"><g><path fill="none" stroke="none"/><text fill="#000000" font-family="Arial" font-size="13px" font-style="normal" font-weight="normal" stroke="none" text-decoration="none" x="555.5" y="847">«extend»</text></g></g><g transform="translate(-78,-446) scale(1,1)"><path d="M 671 737 L 430 652" fill="none" stroke="#000000" stroke-dasharray="3" stroke-miterlimit="10"/></g><g transform="translate(-78,-446) scale(1,1)"><path d="M 440.9841886340284 651.4104238369122 L 430 652 L 438.18388757189905 659.3501009660083" fill="none" stroke="#000000" stroke-miterlimit="10"/></g><g transform="translate(-78,-446) scale(1,1)"><g><path fill="none" stroke="none"/><text fill="#000000" font-family="Arial" font-size="13px" font-style="normal" font-weight="normal" stroke="none" text-decoration="none" x="513.5" y="727">«extend»</text></g></g><g transform="translate(-78,-446) scale(1,1)"><path d="M 519 528 C 519 518.6111584 565.3385232 511 622.5 511 C 679.6614768 511 726 518.6111584 726 528 C 726 537.3888416 679.6614768 545 622.5 545 C 565.3385232 545 519 537.3888416 519 528 Z" fill="#C0C0C0" opacity="0.2" stroke="none"/></g><g transform="translate(-78,-446) scale(1,1)"><path d="M 512 521 C 512 511.6111584 558.3385232 504 615.5 504 C 672.6614768 504 719 511.6111584 719 521 C 719 530.3888416 672.6614768 538 615.5 538 C 558.3385232 538 512 530.3888416 512 521 Z" fill="#ffffff" stroke="none"/></g><g transform="translate(-78,-446) scale(1,1)"><path d="M 512 521 C 512 511.6111584 558.3385232 504 615.5 504 C 672.6614768 504 719 511.6111584 719 521 C 719 530.3888416 672.6614768 538 615.5 538 C 558.3385232 538 512 530.3888416 512 521 Z" fill="none" stroke="#000000" stroke-miterlimit="10"/></g><g transform="translate(-78,-446) scale(1,1)"><g><path fill="none" stroke="none"/><text fill="#000000" font-family="Arial" font-size="13px" font-style="normal" font-weight="bold" stroke="none" text-decoration="none" x="546.770751953125" y="526.5">Account gia' esistente</text></g></g><g transform="translate(-78,-446) scale(1,1)"><path d="M 572 539 L 430 599" fill="none" stroke="#000000" stroke-dasharray="3" stroke-miterlimit="10"/></g><g transform="translate(-78,-446) scale(1,1)"><path d="M 437.7228948361698 591.1669357624578 L 430 599 L 440.99972414888214 598.9220984692104" fill="none" stroke="#000000" stroke-miterlimit="10"/></g><g transform="translate(-78,-446) scale(1,1)"><g><path fill="none" stroke="none"/><text fill="#000000" font-family="Arial" font-size="13px" font-style="normal" font-weight="normal" stroke="none" text-decoration="none" x="485.5" y="601">«extend»</text></g></g><g transform="translate(-78,-446) scale(1,1)"><path d="M 719 600 C 719 590.6111584 766.010096 583 824 583 C 881.989904 583 929 590.6111584 929 600 C 929 609.3888416 881.989904 617 824 617 C 766.010096 617 719 609.3888416 719 600 Z" fill="#C0C0C0" opacity="0.2" stroke="none"/></g><g transform="translate(-78,-446) scale(1,1)"><path d="M 712 593 C 712 583.6111584 759.010096 576 817 576 C 874.989904 576 922 583.6111584 922 593 C 922 602.3888416 874.989904 610 817 610 C 759.010096 610 712 602.3888416 712 593 Z" fill="#ffffff" stroke="none"/></g><g transform="translate(-78,-446) scale(1,1)"><path d="M 712 593 C 712 583.6111584 759.010096 576 817 576 C 874.989904 576 922 583.6111584 922 593 C 922 602.3888416 874.989904 610 817 610 C 759.010096 610 712 602.3888416 712 593 Z" fill="none" stroke="#000000" stroke-miterlimit="10"/></g><g transform="translate(-78,-446) scale(1,1)"><g><path fill="none" stroke="none"/><text fill="#000000" font-family="Arial" font-size="13px" font-style="normal" font-weight="bold" stroke="none" text-decoration="none" x="747.29638671875" y="598.5">Account non esistente</text></g></g><g transform="translate(-78,-446) scale(1,1)"><path d="M 768 611 L 437 732" fill="none" stroke="#000000" stroke-dasharray="3" stroke-miterlimit="10"/></g><g transform="translate(-78,-446) scale(1,1)"><path d="M 445.0996228831008 724.5571437504443 L 437 732 L 447.9901923911518 732.4644041402368" fill="none" stroke="#000000" stroke-miterlimit="10"/></g><g transform="translate(-78,-446) scale(1,1)"><g><path fill="none" stroke="none"/><text fill="#000000" font-family="Arial" font-size="13px" font-style="normal" font-weight="normal" stroke="none" text-decoration="none" x="585.5" y="704">«extend»</text></g></g></g></svg>